<?xml version="1.0" encoding="utf-8"?>
<!-- Generator: Adobe Illustrator 26.0.1, SVG Export Plug-In . SVG Version: 6.00 Build 0)  -->
<svg version="1.1" id="Layer_1" xmlns="http://www.w3.org/2000/svg" xmlns:xlink="http://www.w3.org/1999/xlink" x="0px" y="0px"
	 viewBox="0 0 102.2 106.7" style="enable-background:new 0 0 102.2 106.7;" xml:space="preserve">
<style type="text/css">
	.st0{fill:none;stroke:#464646;stroke-width:5.9645;stroke-miterlimit:10;}
</style>
<g>
	<path class="st0" d="M73.3,50.3l2.6-25.9c0.6-5.6-0.3-10-2.5-13.1s-5.7-4.6-10.5-4.6h-23c-4.8,0-8.4,1.5-10.6,4.6
		s-3.1,7.4-2.5,13.1l2.6,25.9"/>
	<path class="st0" d="M21.5,81.1v12.6c0,3.5,2.8,6.3,6.3,6.3h7c3.5,0,6.3-2.8,6.3-6.3V82.2h20.3v11.5c0,3.5,2.8,6.3,6.3,6.3h7
		c3.5,0,6.3-2.8,6.3-6.3V81.1c0,0,9-4.8,8.8-23.6c0,0,8.4-6.3,2.9-14.2c0,0-0.2-0.3-0.7-0.8c-6.5-6.4-17.6-2.3-18.5,6.8L71.9,64
		c-0.2,1.9-1.8,3.4-3.7,3.4H34.4c-1.9,0-3.5-1.5-3.7-3.4l-1.6-15.6c-0.5-5.5-5.2-9.7-10.7-9.4c-2.5,0.1-5.1,1.1-7.7,3.8
		c0,0-7.1,8.4,2.3,15.5C13,58.4,11.9,75,21.5,81.1z"/>
</g>
</svg>
