<svg width="75" height="75" viewBox="0 0 75 75" fill="none" xmlns="http://www.w3.org/2000/svg">
<circle cx="37.2436" cy="37.2436" r="36.2436" stroke="#95013D" stroke-width="2"/>
<path d="M36.669 17C37.7237 17 38.7784 17 39.8331 17C41.3377 17 42.6174 17.5374 43.7143 18.5157C43.9956 18.7637 44.1924 18.8326 44.5721 18.7086C47.019 17.8818 49.3674 19.8384 48.9315 22.3324C48.8752 22.6493 48.9315 22.7596 49.2409 22.8698C50.9846 23.5174 51.7721 24.8264 51.5049 26.5763C51.4628 26.8657 51.5049 26.9621 51.7862 27.0723C53.7549 27.8715 54.444 29.1529 53.9799 31.1509C53.8956 31.4816 54.0221 31.5505 54.3034 31.6745C56.5815 32.6528 57.1581 35.2708 55.4284 37.0069C52.4331 40.0107 49.4096 42.9869 46.3159 45.8805C44.1643 47.8922 41.4924 48.898 38.5534 49.2287C38.3706 49.2425 38.1596 49.2012 38.019 49.3527C37.8924 49.4767 37.7237 49.6145 37.6956 49.7661C37.6674 49.9452 37.9206 49.9728 38.0471 50.0279C39.0034 50.4413 40.0018 50.6755 41.0424 50.5791C41.6893 50.5239 42.1393 50.7444 42.5893 51.1991C43.9112 52.5357 45.2612 53.8309 46.6112 55.1536C46.6815 55.2225 46.7377 55.2776 46.8081 55.3465C47.3002 55.8564 47.3706 56.3524 46.9909 56.7382C46.6112 57.1102 46.0768 57.0689 45.5706 56.5866C44.8674 55.9115 44.1784 55.2225 43.4752 54.5474C42.8284 53.9135 42.1674 53.2935 41.5487 52.6459C41.2956 52.3841 41.0424 52.2876 40.6909 52.3014C39.2706 52.3565 37.9487 52.0121 36.7252 51.3231C36.3315 51.1027 36.1206 51.1715 35.8393 51.4609C34.1518 53.1419 32.4362 54.8092 30.7346 56.4902C30.4815 56.7382 30.2424 56.9862 29.8487 56.9862C29.1596 56.9862 28.7377 56.3386 29.0752 55.7461C29.1877 55.5532 29.3565 55.3879 29.5252 55.2225C31.9299 52.8526 34.3627 50.4826 36.7534 48.0989C37.1471 47.7131 37.569 47.5201 38.1174 47.4788C41.0424 47.2997 43.5456 46.156 45.6268 44.1581C48.4534 41.4437 51.2237 38.6741 54.0362 35.9459C54.5424 35.4499 54.8237 34.8987 54.5706 34.2098C54.2049 33.1626 52.9253 32.8595 52.0393 33.6035C51.6737 33.9204 51.3503 34.2925 50.9846 34.6231C50.5628 35.009 50.0987 35.0779 49.6768 34.6507C49.2971 34.2511 49.3393 33.8102 49.719 33.4244C50.4362 32.6941 51.1815 32.0052 51.8987 31.2749C52.4612 30.6962 52.5315 29.9797 52.1378 29.3872C51.7581 28.7947 51.069 28.5467 50.3659 28.7396C50.0706 28.8223 49.8315 29.0152 49.6206 29.2218C48.9877 29.8419 48.369 30.4619 47.7362 31.0682C47.1877 31.5918 46.6674 31.6883 46.2596 31.3162C45.8518 30.9304 45.9081 30.4344 46.4565 29.8832C47.3565 28.9876 48.2706 28.092 49.1846 27.2101C49.5784 26.8243 49.8737 26.3834 49.7893 25.8047C49.7049 25.2122 49.4096 24.785 48.819 24.5646C48.1862 24.3303 47.6237 24.4681 47.1456 24.9228C46.2456 25.7909 45.3456 26.6728 44.4596 27.5408C44.3893 27.6097 44.3331 27.6786 44.2627 27.7337C43.7002 28.2573 43.194 28.3262 42.8002 27.9128C42.4206 27.5133 42.4627 27.0586 42.9971 26.535C43.869 25.6669 44.7549 24.8126 45.6268 23.9583C46.0065 23.5863 46.4002 23.228 46.7659 22.8285C47.3846 22.1533 47.3846 21.2577 46.7659 20.6652C46.1752 20.1002 45.2471 20.0727 44.6143 20.679C42.744 22.484 40.9018 24.3028 39.0315 26.1216C38.8346 26.3145 38.8065 26.4385 38.9612 26.7003C40.4237 28.9738 38.6799 31.6056 36.4721 31.6469C36.1768 31.6469 36.0784 31.7985 36.0362 32.0603C35.7971 33.8102 34.7565 34.8023 32.9846 35.0365C32.6612 35.0778 32.6331 35.2432 32.5909 35.4912C32.3096 37.1998 31.3252 38.1643 29.6237 38.3848C29.3143 38.4261 29.2018 38.5226 29.1456 38.8395C28.7377 41.1957 26.8534 42.3117 24.5752 41.5264C24.1674 41.3886 24.0268 41.5952 23.8159 41.8019C21.2143 44.351 18.6127 46.9001 16.0112 49.4354C15.8846 49.5594 15.744 49.6972 15.6174 49.8212C15.2096 50.207 14.7596 50.2897 14.3096 49.9039C13.9018 49.5594 13.9159 49.0496 14.394 48.5811C15.7581 47.2308 17.1362 45.8805 18.5143 44.5439C19.8221 43.2625 21.1159 41.9535 22.4518 40.7134C22.8737 40.3138 22.8174 40.1071 22.4237 39.7627C21.9174 39.3217 21.4393 38.8395 21.0034 38.3297C19.5268 36.5797 20.1174 34.1547 22.2409 33.2453C22.6206 33.0799 22.6909 32.9421 22.5924 32.5563C22.1424 30.8477 22.9862 29.2356 24.6877 28.6569C25.1096 28.5191 25.1518 28.3538 25.1096 27.9817C24.8565 26.3421 25.6721 25.0193 27.219 24.4544C27.5987 24.3166 27.6971 24.1788 27.6549 23.7792C27.3737 21.3955 29.2299 19.7144 31.6487 20.1278C32.0143 20.1967 32.169 20.238 32.0424 19.7695C31.8737 19.1771 31.9299 18.5432 31.9581 17.9232C31.9721 17.3169 32.3237 17 32.9424 17C34.1799 17 35.4174 17 36.669 17ZM30.9174 21.7675C30.2987 21.795 29.8065 22.0568 29.5252 22.6218C29.2018 23.2694 29.3424 23.8756 29.8487 24.3855C31.5643 26.0803 33.2799 27.7613 35.0096 29.4423C35.7268 30.1312 36.6127 30.145 37.2596 29.525C37.9346 28.8774 37.9065 28.0093 37.1612 27.279C35.4877 25.6118 33.7862 23.9721 32.1127 22.3186C31.7893 21.9879 31.3956 21.8088 30.9174 21.7675ZM35.1502 22.8836C35.9377 23.6414 36.5846 24.2477 37.2174 24.8815C37.4846 25.1571 37.6393 25.0331 37.8362 24.8264C39.3549 23.3245 40.8737 21.8364 42.4065 20.362C42.7159 20.0589 42.6596 19.8936 42.3643 19.6731C41.6893 19.1495 40.9299 18.7775 40.0721 18.7499C38.0893 18.7086 36.0924 18.7361 34.1096 18.7086C33.744 18.7086 33.6877 18.8601 33.7159 19.1771C33.8284 20.2518 34.7424 21.1061 35.8815 21.1612C36.6268 21.1888 37.3721 21.1612 38.1315 21.1612C38.8627 21.1612 39.2424 21.4643 39.2284 22.0155C39.2284 22.5667 38.8487 22.8698 38.1174 22.8698C37.2034 22.8973 36.2893 22.8836 35.1502 22.8836ZM32.7456 33.3142C33.3924 33.3004 33.8846 33.011 34.1377 32.4461C34.4331 31.7985 34.2924 31.1922 33.7721 30.6824C32.3518 29.2907 30.9315 27.8853 29.4971 26.5074C28.7799 25.8185 27.8799 25.8047 27.2471 26.411C26.5862 27.0448 26.6143 27.9404 27.3315 28.6569C28.7237 30.0486 30.144 31.4127 31.5502 32.7906C31.8877 33.1213 32.2674 33.3279 32.7456 33.3142ZM25.6018 30.2139C25.1377 30.2277 24.6456 30.4757 24.3643 31.0682C24.069 31.702 24.1674 32.2945 24.6596 32.7768C25.8268 33.948 26.994 35.1054 28.1893 36.2353C28.8643 36.8691 29.7784 36.8553 30.3971 36.2628C31.0159 35.6566 31.0299 34.7747 30.369 34.1133C29.2159 32.9421 28.0206 31.8123 26.8393 30.6548C26.544 30.3655 26.1924 30.2139 25.6018 30.2139ZM23.4924 34.7472C22.8456 34.7609 22.3674 35.0365 22.0862 35.6014C21.7768 36.2353 21.9174 36.814 22.3956 37.31C23.1549 38.0816 23.9284 38.8533 24.7159 39.5973C25.4049 40.2449 26.3471 40.2449 26.9659 39.6111C27.5565 39.0048 27.5424 38.1092 26.8956 37.4616C26.1502 36.7038 25.3768 35.9735 24.6174 35.2294C24.3081 34.8987 23.9424 34.7472 23.4924 34.7472Z" fill="#95013D"/>
<path d="M55.864 43.2764C56.2718 43.2901 56.4968 43.4142 56.6796 43.5933C57.3265 44.2271 57.9733 44.8472 58.6202 45.481C59.014 45.8668 59.1546 46.2939 58.7608 46.7624C58.4233 47.162 57.8749 47.162 57.3968 46.7349C56.6937 46.0873 56.0187 45.4259 55.3577 44.7507C55.0765 44.4614 54.9921 44.1169 55.189 43.7449C55.3718 43.4279 55.639 43.2764 55.864 43.2764Z" fill="#95013D"/>
<path d="M54.6406 41.8709C54.6547 42.4634 54.2609 42.863 53.7687 42.8492C53.2484 42.8216 52.9531 42.5323 52.925 42.0224C52.8968 41.5402 53.3046 41.1268 53.7968 41.1544C54.3171 41.1682 54.5984 41.4713 54.6406 41.8709Z" fill="#95013D"/>
</svg>
