<svg width="75" height="75" viewBox="0 0 75 75" fill="none" xmlns="http://www.w3.org/2000/svg">
<circle cx="37.2436" cy="37.2436" r="36.2436" stroke="#95013D" stroke-width="2"/>
<path d="M57.0002 33.2124C57.0002 34.1423 56.6002 34.8737 55.9377 35.506C53.9627 37.4029 52.0502 39.3742 50.0127 41.1967C48.9877 42.1018 48.7627 43.0316 49.0252 44.3086C49.5627 46.937 49.9627 49.5902 50.4377 52.2186C50.6627 53.508 50.3752 54.6114 49.2877 55.4049C48.1752 56.2108 47.0127 56.1488 45.8252 55.5165C43.2627 54.1651 40.6627 52.8509 38.1127 51.4747C37.3627 51.0656 36.7127 51.0532 35.9502 51.4623C33.3877 52.8385 30.8002 54.1403 28.2377 55.5041C27.0502 56.1364 25.8877 56.2108 24.7752 55.4173C23.6627 54.6238 23.3752 53.4956 23.6127 52.1814C24.1252 49.3051 24.6127 46.4163 25.1252 43.5276C25.2502 42.8333 25.1377 42.2258 24.5502 41.7423C24.3252 41.5563 24.1252 41.3455 23.9252 41.1347C23.4877 40.676 23.4252 40.2173 23.8002 39.8949C24.2252 39.523 24.6127 39.6966 25.0252 40.0065C26.7002 41.2463 26.9627 42.8457 26.5252 44.7922C25.9752 47.2842 25.6127 49.8258 25.1752 52.3426C25.1002 52.7641 25.0252 53.198 25.2377 53.6196C25.6377 54.4254 26.5127 54.6362 27.4752 54.1403C30.1377 52.7517 32.8127 51.3631 35.4752 49.9622C36.5127 49.4166 37.5377 49.3918 38.5627 49.9622C38.7502 50.0613 38.9252 50.1481 39.1127 50.2473C41.6002 51.5367 44.0752 52.8385 46.5627 54.1279C46.9127 54.3139 47.2752 54.475 47.6877 54.4254C48.5252 54.3015 49.0502 53.6196 48.9002 52.7269C48.5627 50.6316 48.2002 48.5364 47.8377 46.4411C47.6752 45.4865 47.5127 44.5318 47.3377 43.5772C47.1377 42.4489 47.4752 41.5067 48.3002 40.7132C50.4502 38.6427 52.5877 36.5599 54.7377 34.4894C55.0127 34.229 55.2627 33.9687 55.3752 33.5843C55.6127 32.6917 55.0502 31.923 54.0002 31.7742C51.0377 31.3403 48.0752 30.894 45.1127 30.4972C43.8252 30.3237 42.9377 29.6914 42.3752 28.5383C41.0627 25.8728 39.7377 23.2196 38.4002 20.554C37.9627 19.6737 37.2627 19.3638 36.4752 19.6737C36.0377 19.8473 35.8002 20.1945 35.6002 20.5912C34.3127 23.1948 32.9752 25.786 31.7252 28.4144C31.1127 29.6914 30.1627 30.3484 28.7502 30.5344C25.8627 30.9064 22.9877 31.3527 20.1127 31.7742C19.6002 31.8486 19.1377 31.9974 18.8377 32.4561C18.4627 33.0264 18.5377 33.7207 19.0627 34.2662C19.4377 34.663 19.8377 35.0101 20.2127 35.4069C20.5377 35.754 20.5877 36.1507 20.2377 36.5103C19.9127 36.845 19.5127 36.845 19.1752 36.5475C18.6127 36.0515 18.0377 35.568 17.6002 34.9605C16.3127 33.1628 17.2877 30.6832 19.5002 30.3113C22.5377 29.8029 25.5877 29.3814 28.6252 28.9723C29.4002 28.8607 29.9127 28.5383 30.2627 27.8316C31.5502 25.2033 32.8752 22.5873 34.1627 19.9589C34.7252 18.7315 35.6252 18 37.0002 18C38.3752 18 39.2752 18.7439 39.8627 19.9465C41.1502 22.5749 42.4752 25.1909 43.7627 27.8192C44.1127 28.5259 44.6252 28.8483 45.4002 28.9599C48.4627 29.3814 51.5377 29.8153 54.5877 30.3113C56.0252 30.5344 56.9877 31.7742 57.0002 33.2124Z" fill="#95013D"/>
<path d="M21.9623 38.9899C21.5748 38.9527 21.2873 38.7419 21.2373 38.2832C21.1873 37.8368 21.5248 37.4773 21.9748 37.4773C22.4373 37.4773 22.7123 37.7129 22.7623 38.1716C22.8123 38.6055 22.4748 38.9775 21.9623 38.9899Z" fill="#95013D"/>
</svg>
