<svg width="56" height="56" viewBox="0 0 56 56" fill="none" xmlns="http://www.w3.org/2000/svg">
<path d="M26.6201 2.99542C31.1842 3.03791 35.4935 4.14261 39.4632 6.41575C40.0364 6.73442 40.3548 6.69193 40.8006 6.22456C42.6262 4.35506 44.4943 2.5068 46.3412 0.658546C46.6808 0.318637 47.0205 -0.127493 47.5936 0.0424613C48.188 0.212416 48.3154 0.722279 48.4427 1.27463C48.7612 2.76173 49.1433 4.22759 49.4405 5.71469C49.5466 6.2458 49.7377 6.47949 50.2896 6.58571C51.818 6.88313 53.3252 7.26553 54.8324 7.60543C55.3419 7.71166 55.8089 7.86037 55.9788 8.41272C56.1274 8.94383 55.7665 9.28374 55.4481 9.6024C53.6012 11.4507 51.7756 13.3414 49.8863 15.1472C49.2919 15.6995 49.3343 16.0819 49.6952 16.7405C58.4625 32.3763 49.0159 52.4097 31.3753 55.5963C16.9613 58.1669 3.29035 48.8194 0.488228 34.4582C-2.3139 20.0758 7.34494 6.03336 21.8863 3.39906C23.4359 3.12289 25.028 2.95293 26.6201 2.99542ZM28.0849 54.1092C31.6512 54.088 36.3214 52.6859 40.4822 49.7541C46.8719 45.2503 50.3745 39.0045 51.0538 31.2504C51.4572 26.5766 50.417 22.1153 48.2305 17.9514C47.912 17.3353 47.6785 17.2504 47.2115 17.8027C46.6808 18.4188 46.1076 18.9924 45.492 19.5235C44.8976 20.0334 44.8127 20.437 45.1524 21.223C47.0629 25.4931 47.4662 29.912 46.3199 34.4795C43.815 44.5918 34.326 51.0925 23.9029 49.8816C13.9257 48.7132 6.15616 40.0455 5.98633 29.912C5.75282 15.7208 19.5087 5.69345 33.0523 10.1123C34.0076 10.4309 34.9416 11.3869 35.8544 11.0045C36.7248 10.6434 37.2979 9.6024 38.0834 8.92258C38.7839 8.32774 38.6778 8.03032 37.8923 7.62668C32.4155 4.88616 26.6838 4.10012 20.7187 5.54474C8.49126 8.54018 0.594369 20.0971 2.1228 32.7162C3.58755 44.868 14.1804 54.1305 28.0849 54.1092ZM8.00301 29.7633C8.02424 30.2731 8.02424 31.1654 8.15161 32.0364C9.74373 42.6373 19.5299 49.6267 30.0379 47.6722C42.1804 45.4203 48.7612 31.6327 42.9022 20.7769C42.6899 20.3945 42.4988 20.0758 42.0106 19.9696C40.928 19.7572 39.8666 19.5447 38.8051 19.2686C38.2108 19.1199 37.8711 19.4173 37.5527 19.8209C37.1493 20.3095 37.68 20.522 37.8923 20.7769C40.4185 24.1548 41.3101 27.9362 40.6095 32.0789C39.3783 39.2382 32.84 44.4431 25.5163 43.8482C17.768 43.2109 12.0364 37.0288 12.1637 29.4871C12.2699 23.6874 14.9446 19.2686 20.1455 16.7192C25.3252 14.1699 30.3988 14.7435 35.1539 18.0789C35.4511 18.2913 35.6421 18.8862 36.1941 18.5038C36.7035 18.1426 36.8946 17.6752 36.7248 17.0379C36.47 16.1244 36.2578 15.1897 36.0879 14.2549C35.9818 13.6601 35.6846 13.3626 35.1751 13.0865C22.8628 6.60695 8.08793 15.4871 8.00301 29.7633ZM26.4928 17.0804C19.6998 17.0804 14.138 22.5189 14.0318 29.2321C13.9045 37.1775 20.7612 43.1047 28.743 41.7663C33.2858 41.0015 36.5125 38.261 38.1258 33.9271C39.718 29.6995 39.0811 25.6631 36.4276 21.9878C36.1092 21.5417 35.8544 21.478 35.4511 21.9029C34.326 23.0713 33.1797 24.2397 31.9909 25.3444C31.439 25.8755 31.3965 26.2579 31.7574 26.959C33.6679 30.783 30.9295 35.3293 26.6626 35.4355C24.2426 35.4992 22.0136 34.0546 21.0584 31.7815C20.1243 29.5508 20.6763 26.9378 22.4594 25.2595C24.2001 23.6024 26.9173 23.1563 29.0402 24.261C29.7619 24.6434 30.1865 24.6009 30.7384 23.9848C31.7786 22.8376 32.9037 21.7329 34.0288 20.6707C34.5807 20.1396 34.4746 19.8846 33.9227 19.481C31.6937 17.9089 29.2312 17.0592 26.4928 17.0804ZM46.8719 3.01666C46.4048 3.12289 46.2138 3.4628 45.9803 3.69648C44.0485 5.60847 42.1167 7.5417 40.2062 9.47493C39.3358 10.346 38.0834 11.1107 37.7013 12.1517C37.2979 13.2564 38.1046 14.5948 38.3593 15.827C38.4018 15.9969 38.423 16.1669 38.4443 16.3581C38.5292 17.0592 38.8476 17.4415 39.6118 17.569C40.7581 17.7602 41.9045 17.9939 43.0083 18.3126C43.6664 18.5038 44.0485 18.3126 44.4731 17.8664C47.1054 15.2109 49.7589 12.5554 52.4124 9.89982C52.6247 9.68738 52.9431 9.53867 52.9219 9.11378C51.7968 8.85885 50.6717 8.51894 49.5254 8.34899C48.3791 8.17903 47.7847 7.64792 47.6361 6.47949C47.4875 5.31105 47.1478 4.1851 46.8719 3.01666ZM26.1744 33.5022C29.21 33.5447 31.163 30.8255 30.2926 28.2337C30.0803 27.5751 29.8256 27.4476 29.3161 28.0212C28.8067 28.5948 28.2123 29.1259 27.6816 29.6783C27.1721 30.2094 26.5989 30.8255 25.8984 30.1669C25.1979 29.5083 25.771 28.8922 26.3017 28.3824C26.8537 27.8513 27.3844 27.2564 27.9575 26.7466C28.5307 26.2367 28.5095 25.918 27.7452 25.7268C26.1531 25.3232 24.7096 25.5781 23.5845 26.8315C22.4382 28.1062 22.1622 29.5721 22.8628 31.1441C23.5421 32.6737 24.7945 33.4173 26.1744 33.5022Z" fill="#95013D"/>
</svg>
