<svg width="41" height="42" viewBox="0 0 41 42" fill="none" xmlns="http://www.w3.org/2000/svg">
<path d="M30.1439 29.9904C28.4549 30.4761 26.8067 30.7911 25.0904 30.7648C24.7771 30.7648 24.6954 30.9879 24.5592 31.1979C22.4887 34.5579 19.424 36.2117 15.3648 36.0936C10.7064 35.9492 6.56549 32.1167 6.18409 27.6673C5.73459 22.4698 9.05818 18.2436 14.3841 17.2723C18.7157 16.4848 23.3333 18.9917 25.0632 23.1129C25.2539 23.5854 25.4854 23.6773 25.9485 23.6117C27.1472 23.4279 28.2778 23.0998 29.3402 22.5223C29.7489 22.2992 29.8715 22.1154 29.6808 21.6692C27.4196 16.4848 23.4559 13.3348 17.6532 12.6523C9.82097 11.7336 2.81964 16.7998 1.48476 24.2811C0.749214 28.3761 1.78443 32.1167 4.44058 35.4242C4.56317 35.5817 4.69938 35.7261 4.80835 35.8836C5.01267 36.1854 4.95818 36.4873 4.68576 36.6973C4.39971 36.9204 4.0728 36.9073 3.82762 36.6448C3.56882 36.3823 3.32364 36.0804 3.09207 35.7786C-2.73783 28.1661 -0.149792 17.3511 8.56782 12.9936C9.08542 12.7311 9.35785 12.4423 9.50768 11.8517C11.3466 4.48856 18.2253 -0.39394 26.0848 0.0260582C33.3721 0.419807 39.7333 6.01105 40.7821 12.9542C41.8173 19.7792 38.4937 26.0004 32.119 29.1636C31.7921 29.3211 31.5878 29.4917 31.506 29.8723C30.2801 35.7392 25.2811 40.5298 19.1652 41.6848C14.2479 42.6167 9.82098 41.5536 5.87081 38.5873C5.69373 38.4561 5.50304 38.3117 5.39407 38.1279C5.25785 37.8917 5.2851 37.6161 5.53028 37.4192C5.78908 37.2092 6.07513 37.1961 6.33393 37.3798C6.75619 37.6686 7.16483 37.9967 7.58709 38.2723C15.9914 43.8111 27.5831 39.6898 30.1439 30.2267C30.1575 30.1873 30.1439 30.1348 30.1439 29.9904ZM30.9748 21.2361C31.2472 21.1442 31.3971 20.9211 31.5605 20.7242C34.1349 17.7579 34.2984 13.7942 31.9555 10.5392C31.6967 10.1717 31.4515 9.79106 31.9147 9.44981C32.4186 9.08231 32.7456 9.44981 33.018 9.81731C34.8024 12.2454 35.3472 14.9098 34.5572 17.7842C33.4675 21.7086 29.8987 24.5436 25.9622 24.8323C21.3037 25.1736 17.4625 22.5617 15.9233 18.8736C15.7735 18.5061 15.6236 18.3486 15.2014 18.4142C13.9618 18.5848 12.7768 18.9129 11.6735 19.5036C11.224 19.7529 11.1695 19.9761 11.3466 20.4223C13.8937 26.8142 20.8814 30.5679 27.8691 29.2686C35.9466 27.7461 41.2725 20.0154 39.3655 12.3111C37.9897 6.7723 34.3529 3.08418 28.5911 1.71918C22.7884 0.341057 17.803 1.96856 13.8256 6.29981C12.3409 7.91418 11.3738 9.83043 10.8426 11.9698C10.9652 11.9698 11.0333 11.9829 11.0877 11.9698C12.6406 11.5236 14.207 11.2348 15.8416 11.2742C16.223 11.2873 16.3319 11.0511 16.4818 10.8017C18.8655 6.74606 23.81 4.94793 28.3595 6.47043C29.313 6.78543 30.1848 7.24481 30.9748 7.83543C31.3153 8.08481 31.4243 8.39981 31.1791 8.74106C30.9203 9.09543 30.5662 9.06918 30.2256 8.83293C30.1303 8.76731 30.0485 8.70168 29.9532 8.64918C26.6569 6.48355 22.3798 6.73293 19.3967 9.27918C18.7293 9.85668 18.1572 10.4998 17.7213 11.2873C25.3765 13.1773 27.406 14.7129 30.9748 21.2361ZM10.0662 20.7636C7.95486 22.2204 6.87878 25.8692 7.73692 28.8354C8.67679 32.0904 11.728 34.5973 15.4738 34.8336C18.525 35.0436 22.0256 33.2586 23.306 30.7123C16.9449 29.7936 12.5588 26.4467 10.0662 20.7636ZM17.2718 18.5717C17.8439 20.8161 21.4672 23.5329 23.7555 23.4411C23.1834 21.1836 19.5602 18.4667 17.2718 18.5717Z" fill="#95013D"/>
</svg>
