<svg width="248" height="84" viewBox="0 0 248 84" fill="none" xmlns="http://www.w3.org/2000/svg">
<path d="M63.8115 2.42029H1.92154L3.46782 52.7747L8.09372 62.7187L33.2288 81.0476L58.7522 61.2242L63.8115 52.6V2.42029Z" fill="white"/>
<path d="M0 0.705816C1.06223 0.222682 2.22467 0.0008413 3.39016 0.0588367C23.0583 0.0588367 42.7265 0.123536 62.3947 0.0200195C65.0538 0.0200195 65.9012 0.751105 65.8818 3.43607C65.7697 18.075 65.7697 32.7162 65.8818 47.3595C65.9271 55.4079 62.744 61.8518 56.4424 66.7688C49.2739 72.3329 41.9825 77.7287 34.7751 83.2344C33.5976 84.1402 32.6466 84.2631 31.3979 83.2991C23.9512 77.5734 16.4074 71.9641 8.99302 66.206C5.11607 63.2793 2.35976 59.1118 1.18394 54.3986C1.00926 53.7063 1.02226 52.8523 0.0323805 52.6906L0 0.705816ZM33.1512 4.45831C24.8763 4.45831 16.595 4.53594 8.32014 4.41301C5.84868 4.37419 4.95591 4.98882 4.98178 7.64791C5.11765 21.118 4.98171 34.5881 5.06582 48.0582C5.00814 50.936 5.64907 53.7849 6.93362 56.3608C8.21817 58.9366 10.1081 61.1627 12.4414 62.8481C18.3742 67.3252 24.4041 71.6923 30.1881 76.3571C32.4201 78.1557 33.8434 78.2656 36.1273 76.4023C41.6072 71.9253 47.2747 67.6617 53.0393 63.5404C58.461 59.6585 61.3207 54.528 61.3789 48.0129C61.4953 34.5428 61.3789 21.0727 61.4695 7.60261C61.4695 5.23467 60.6996 4.42596 58.3057 4.45831C49.9209 4.523 41.536 4.45831 33.1512 4.45831Z" fill="#D50C0D"/>
<path d="M97.4609 34.711C96.2834 36.7943 95.1448 38.9034 93.922 40.9544C92.4533 43.4129 90.6224 43.4258 89.1473 41.0126C87.9761 38.8948 86.5791 36.9099 84.9807 35.0927C84.9807 37.1307 84.8966 39.1817 84.9807 41.2132C85.0648 42.7336 84.5667 43.29 82.9945 43.2641C81.4223 43.2382 80.6201 43.057 80.6783 41.2002C80.8013 36.9366 80.8207 32.6601 80.6783 28.3965C80.6201 26.6109 81.6488 26.3456 82.9169 25.9186C84.3984 25.4204 85.246 25.7698 85.9771 27.2125C87.6527 30.4992 89.5096 33.6823 91.5605 37.4025C93.5014 33.9929 95.2742 31.1268 96.7363 28.0924C97.6939 26.0609 99.0978 25.5045 101.071 25.8604C103.335 26.2615 102.21 28.086 102.255 29.2311C102.397 33.1777 102.255 37.1307 102.346 41.0773C102.391 42.753 101.854 43.2835 100.165 43.29C98.4767 43.2964 97.9268 42.7206 98.0368 41.0708C98.1662 39.007 98.0368 36.9237 98.0368 34.8534L97.4609 34.711Z" fill="white"/>
<path d="M201.191 45.4509C199.153 45.4121 197.018 46.1432 195.524 43.7752C195.019 42.973 193.699 43.5294 192.761 43.4388C187.365 42.9083 184.059 40.1068 183.606 35.675C183.121 30.8809 185.301 27.3031 189.571 25.9121C194.553 24.2882 200.699 25.9121 202.964 29.4834C205.228 33.0548 204.633 37.9718 200.945 41.2973C198.965 43.0441 201.741 43.7429 201.191 45.4509ZM191.842 36.2767C193.537 36.4838 195.375 35.4098 196.611 37.2989C198.17 39.6928 198.868 37.8101 199.283 36.6196C199.93 34.6787 200.052 32.5501 198.558 30.8744C196.882 29.0047 194.56 29.0047 192.289 29.3411C189.274 29.7875 187.876 31.5991 188.057 34.711C188.226 37.5189 189.571 39.1946 192.541 39.3757C192.981 38.1012 191.635 37.5901 191.842 36.2508V36.2767Z" fill="white"/>
<path d="M143.396 36.639C143.396 33.1647 143.455 30.6415 143.396 28.1248C143.351 26.6238 143.571 25.7892 145.434 25.7633C147.414 25.7633 147.712 26.5591 147.673 28.2477C147.576 32.2978 147.673 36.3479 147.608 40.4044C147.608 41.3361 148.32 42.8371 146.806 43.0959C145.292 43.3546 143.642 43.7428 142.394 42.1254C140.071 39.0911 137.625 36.1538 134.94 32.8154C134.061 35.8562 134.468 38.567 134.513 41.2261C134.513 43.1153 133.672 43.2512 132.184 43.277C130.696 43.3029 130.088 42.9277 130.127 41.3361C130.23 37.176 130.192 33.0159 130.127 28.8559C130.127 27.4649 130.224 26.4815 131.919 26.0674C133.614 25.6533 134.669 25.5627 135.801 27.0961C137.981 30.0657 140.401 32.906 143.396 36.639Z" fill="white"/>
<path d="M171.081 42.6883C167.322 43.7364 165.044 42.5589 163.653 39.4986C162.476 36.9107 160.114 37.4542 158.07 37.6677C156.258 37.8553 157.048 39.5116 157.028 40.5209C157.028 42.0672 157.028 43.07 154.861 43.0635C152.622 43.0635 152.784 41.8795 152.816 40.4303C152.862 38.4894 152.816 36.5873 152.816 34.6593C152.816 33.3071 152.486 31.9225 154.505 31.4697C156.11 31.1074 156.905 31.0168 157.209 33.0483C157.378 34.2064 164.844 33.8699 165.575 32.7442C166.519 31.295 165.523 29.6193 163.511 29.5417C160.722 29.4381 157.921 29.5805 155.133 29.464C154.421 29.464 152.816 30.2404 153.127 28.4741C153.321 27.3807 153.192 25.6404 155.068 25.6404C158.717 25.6404 162.411 25.3622 166.002 25.8409C170.349 26.4167 172.517 32.2784 169.379 35.2868C167.16 37.4025 167.8 38.5605 169.334 40.2621C169.966 41.0337 170.549 41.844 171.081 42.6883V42.6883Z" fill="white"/>
<path d="M247.689 28.0472C247.146 29.3088 246.175 29.5805 244.862 29.5223C242.397 29.4188 239.932 29.5223 237.467 29.4835C236.367 29.4835 235.604 29.6517 235.63 31.0233C235.656 32.3949 236.406 32.5631 237.512 32.5372C239.55 32.4984 241.582 32.4725 243.62 32.5372C244.849 32.5825 246.421 31.8902 246.447 34.3487C246.447 36.9366 244.843 36.3414 243.458 36.3673C241.427 36.4191 239.389 36.3673 237.351 36.3673C236.445 36.3673 235.669 36.4255 235.643 37.6613C235.617 38.897 236.212 39.3175 237.396 39.3046C240.928 39.2658 244.467 39.3046 248 39.3046C247.942 42.3066 246.706 43.6264 243.419 43.277C240.217 43.0387 237.003 43.0235 233.799 43.2318C232.104 43.2835 231.295 42.9406 231.353 40.9803C231.495 36.5161 231.444 32.0455 231.353 27.5749C231.353 26.0674 231.825 25.5304 233.372 25.5628C237.545 25.6469 241.724 25.7374 245.884 25.5304C248.207 25.4398 247.858 26.6885 247.689 28.0472Z" fill="white"/>
<path d="M226.578 32.1167C226.578 32.6537 226.578 33.1906 226.578 33.7212C226.688 37.1113 226.708 40.5533 223.039 42.3066C221.165 43.2704 219.082 43.7586 216.975 43.7282C214.867 43.6977 212.8 43.1495 210.954 42.1319C210.037 41.6608 209.263 40.9514 208.714 40.0783C208.166 39.2051 207.862 38.2005 207.835 37.1696C207.7 34.077 207.797 30.978 207.771 27.8789C207.771 25.5369 209.757 25.938 211.006 25.6986C212.668 25.4204 212.002 26.9926 212.021 27.7301C212.106 30.4022 212.021 33.0807 212.073 35.7462C212.17 38.7029 213.71 39.8157 217.385 39.7445C220.859 39.6798 222.185 38.6059 222.257 35.6492C222.328 32.9771 222.373 30.2986 222.257 27.6331C222.166 25.8668 223.098 25.7957 224.431 25.8022C225.763 25.8086 226.773 25.8474 226.611 27.6331C226.468 29.1147 226.578 30.6222 226.578 32.1167Z" fill="white"/>
<path d="M126.724 42.8629C124.375 42.9341 122.441 43.6717 121.076 41.2131C120.474 40.1262 118.669 40.8379 117.414 40.7667C116.159 40.6956 114.871 40.7667 113.383 40.7667C113.674 38.2694 114.483 36.7943 117.155 37.1695C118.636 37.3701 119.161 36.8266 118.391 35.3774C117.692 34.0834 117.097 32.7054 116.12 30.7515C114.541 34.064 112.943 36.8848 111.856 39.8868C110.769 42.8888 108.893 43.6328 105.768 42.6494C108.311 37.8036 110.743 32.9447 113.383 28.2412C114.871 25.5821 118.067 25.7827 119.432 28.4612C121.833 33.1582 124.213 37.8877 126.724 42.8629Z" fill="white"/>
<path d="M179.317 34.4522C179.317 36.6908 179.213 38.9293 179.317 41.1614C179.42 42.9406 178.624 43.2511 177.046 43.2705C175.467 43.29 175.105 42.5912 175.105 41.1679C175.163 36.6972 175.182 32.2202 175.105 27.7495C175.105 26.1321 175.752 25.8086 177.208 25.8086C178.663 25.8086 179.407 26.0803 179.323 27.7495C179.233 29.9557 179.317 32.1943 179.317 34.4522Z" fill="white"/>
<path d="M125.281 56.1907C123.987 54.9938 122.486 55.7119 121.192 55.4532C119.536 55.1297 118.268 54.3986 118.352 52.587C118.436 50.7755 119.646 49.9991 121.386 49.9474C122.887 49.9474 124.395 49.9474 125.915 49.9474C126.51 49.9474 127.351 49.7791 127.319 50.7431C127.319 51.5713 126.795 52.0371 125.857 52.0889C124.272 52.1988 122.57 51.6618 120.513 52.7358C122.324 53.5963 123.709 53.1628 124.996 53.3375C126.556 53.5381 127.655 54.3339 127.759 55.9578C127.862 57.5817 126.782 58.5845 125.268 58.7916C123.561 58.96 121.845 59.0184 120.131 58.9662C119.484 58.9662 118.507 59.2056 118.611 57.9699C118.695 57.0188 119.348 56.7859 120.17 56.6759C121.807 56.5595 123.534 57.0965 125.281 56.1907Z" fill="white"/>
<path d="M205.416 58.5134C204.413 58.1187 202.323 59.3674 202.013 57.6723C201.579 55.2526 200.809 51.8948 202.692 50.4197C204.413 49.0804 207.661 49.3133 209.996 50.6138C211.937 51.6877 212.138 53.7063 211.627 55.6925C210.98 58.2805 208.897 58.6622 206.6 58.5134C206.276 58.494 205.959 58.5134 205.416 58.5134ZM206.063 56.6954C207.693 56.8183 208.858 56.4236 209.013 54.5862C209.168 52.7488 207.984 52.6453 206.58 52.6065C205.176 52.5676 204.102 52.6517 204.316 54.5797C204.432 55.8025 204.271 57.0059 206.037 56.6954H206.063Z" fill="white"/>
<path d="M145.544 58.5069C141.08 58.5069 139.404 57.3941 139.482 54.308C139.547 51.7719 140.666 50.0185 143.506 49.9474C144.891 49.9085 146.282 49.9474 147.673 49.9474C148.572 49.9474 149.122 50.3291 149.096 51.2413C149.07 52.1536 148.3 52.0501 147.692 52.063C146.625 52.063 145.551 52.063 144.457 52.063C143.163 52.063 142.452 52.6776 142.381 53.9651C142.322 55.0585 142.381 56.2684 143.675 56.553C144.736 56.7795 146.379 57.3359 146.845 56.1325C147.349 54.8385 147.964 53.8034 149.167 54.3533C150.086 54.7738 149.575 56.2942 149.543 57.3229C149.491 59.0892 148.035 58.3452 147.117 58.494C146.594 58.539 146.068 58.5433 145.544 58.5069Z" fill="white"/>
<path d="M192.864 57.1482C192.483 57.7608 192.019 58.3181 191.486 58.8045C191.222 58.9921 190.903 59.0858 190.579 59.0706C190.255 59.0553 189.946 58.932 189.701 58.7204C189.228 58.2675 189.662 57.7499 189.895 57.2906C190.982 55.1038 192.127 52.9429 193.13 50.7237C193.325 50.2853 193.645 49.9142 194.05 49.6565C194.455 49.3987 194.927 49.2659 195.407 49.2745C196.552 49.1839 196.701 50.2514 197.025 50.9567C198.254 53.4152 199.412 55.906 200.906 59.0568L193.408 57.1612C193.363 56.9736 193.356 56.6436 193.272 56.6242C192.877 56.5207 192.89 56.87 192.864 57.1482ZM193.57 55.7443C196.63 55.2591 196.63 55.2591 194.967 52.7747C194.172 53.5734 193.679 54.6227 193.57 55.7443V55.7443Z" fill="white"/>
<path d="M137.379 56.3913C137.955 56.553 138.738 56.456 138.673 57.42C138.615 58.2416 138.026 58.4745 137.379 58.4875C135.342 58.4875 133.304 58.4875 131.266 58.4875C130.179 58.4875 129.687 58.0152 129.758 56.9412C129.765 56.8356 129.765 56.7297 129.758 56.6242C129.221 50.3161 131.33 48.5305 137.651 49.915C138.175 50.0315 138.751 50.0315 138.686 50.7755C138.615 51.6877 138.039 51.9789 137.16 52.0694C135.568 52.2118 133.86 51.6618 131.848 52.7164C133.491 53.5834 134.766 53.3181 135.943 53.2728C137.625 53.2081 137.612 54.1398 137.431 55.3043C135.833 55.8219 133.976 54.9226 131.693 56.3783L137.379 56.3913Z" fill="white"/>
<path d="M151.529 53.5057C151.529 52.8588 151.574 52.2118 151.529 51.5648C151.477 51.355 151.477 51.1359 151.527 50.9258C151.578 50.7157 151.678 50.5208 151.819 50.3573C151.96 50.1938 152.139 50.0666 152.339 49.9863C152.54 49.9059 152.757 49.8748 152.972 49.8956C154.208 49.8568 153.845 50.8467 153.877 51.5195C153.923 52.3671 153.877 53.2275 153.877 54.1074C153.877 55.7378 154.402 56.7406 156.278 56.7342C158.154 56.7277 158.827 55.9578 158.73 54.2045C158.678 53.137 158.73 52.0694 158.73 50.9696C158.71 50.8366 158.72 50.7007 158.76 50.5723C158.8 50.4439 158.869 50.3263 158.961 50.2285C159.053 50.1306 159.167 50.055 159.293 50.0074C159.418 49.9598 159.553 49.9415 159.687 49.9538C160.205 49.9173 160.718 50.0766 161.124 50.4002C162.715 52.5676 160.658 57.9634 158.025 58.6945C153.942 59.8461 151.529 57.9117 151.529 53.5057Z" fill="white"/>
<path d="M179.407 51.7395C180.947 48.0646 184.078 50.1091 186.298 50.245C188.801 50.3938 189.384 52.8329 189.054 55.1814C188.704 57.6205 187.113 58.591 184.764 58.481H184.441C178.683 58.5975 178.683 58.5975 179.375 52.8329C181.135 52.1859 181.736 52.9881 181.51 54.6379C181.283 56.2877 181.995 56.8959 183.664 56.8118C185.334 56.7277 186.336 56.2813 186.369 54.4633C186.401 52.6452 185.573 51.9918 183.833 51.9983C182.357 51.9983 180.844 52.4382 179.407 51.7395Z" fill="white"/>
<path d="M165.103 52.1859C164.41 51.9789 163.408 51.953 163.472 51.0149C163.524 50.1997 164.32 49.9539 165.141 49.9733C167.031 50.0315 168.946 49.7274 170.718 50.782C172.62 51.9077 173.028 53.6093 171.566 54.9291C170.272 56.0872 170.272 56.4884 171.566 57.3165C172.006 57.5882 172.51 58.0217 172.025 58.5781C171.933 58.7119 171.808 58.82 171.662 58.8921C171.516 58.9643 171.354 58.998 171.192 58.9903C171.029 58.9825 170.871 58.9334 170.733 58.8477C170.595 58.762 170.481 58.6425 170.401 58.5005C169.994 58.0088 169.586 57.5106 169.146 57.0512C167.852 55.6926 166.487 54.7933 165.866 57.4588C165.543 58.8498 164.65 58.3581 163.925 58.4293C162.858 58.5393 163.084 57.5947 163.181 57.1353C163.511 55.5244 161.887 53.04 165.122 52.6388C165.374 52.9623 165.555 53.4217 165.885 53.5834C166.5 53.8736 167.169 54.0294 167.848 54.0406C168.528 54.0517 169.202 53.9179 169.826 53.6481C169.926 53.6069 170.015 53.541 170.083 53.4564C170.152 53.3719 170.198 53.2714 170.217 53.1644C170.237 53.0573 170.229 52.9471 170.194 52.8439C170.16 52.7408 170.1 52.648 170.02 52.5741C169.056 51.6554 167.807 52.2248 166.688 52.1083C166.158 52.0889 165.628 52.1148 165.103 52.1859V52.1859Z" fill="white"/>
<path d="M177 54.2174C176.069 55.5114 178.23 58.3128 175.629 58.3063C173.028 58.2999 174.51 55.5567 174.536 54.1851C174.561 52.8135 173.041 50.0768 175.674 50.1156C178.307 50.1544 176.062 52.8976 177 54.2174Z" fill="white"/>
<path d="M58.6874 29.781C58.6874 36.2961 58.7651 42.8112 58.6874 49.3263C58.6652 51.534 58.1334 53.7067 57.1335 55.6751C56.1336 57.6434 54.6927 59.3543 52.9229 60.6743C46.8543 65.4425 40.6303 69.9908 34.5228 74.7267C33.3259 75.6583 32.5819 75.4901 31.5079 74.6361C25.4846 69.9843 19.3382 65.4943 13.3472 60.8037C11.377 59.3142 9.79205 57.3745 8.72499 55.147C7.65793 52.9194 7.13976 50.4688 7.21385 48C7.21385 35.3904 7.29151 22.7678 7.15564 10.1711C7.15564 7.53791 8.04195 6.93622 10.5005 6.93622C25.8597 7.0268 41.2191 7.01385 56.5784 6.99444C58.254 6.99444 58.7974 7.57025 58.778 9.2718C58.6875 16.1039 58.7393 22.9425 58.7393 29.7746L58.6874 29.781ZM30.6345 44.6616C28.37 44.3639 26.2544 44.6616 25.0187 46.8095C24.4623 47.7917 24.179 48.9049 24.1984 50.0335C24.2177 51.1622 24.5389 52.2651 25.1287 53.2276C25.5395 53.9771 26.0832 54.6458 26.7332 55.2008C27.7296 56.0549 28.3765 57.0512 27.8072 58.2611C27.2378 59.4709 26.0538 58.604 25.2192 58.4681C22.489 58.0152 22.4502 60.3767 22.2172 61.703C21.9326 63.2687 23.6988 62.5635 24.5658 62.6282C26.1638 62.7446 27.8007 62.6282 29.3923 62.6605C30.1687 62.6605 30.9645 62.6605 31.3332 61.91C32.459 59.7232 33.548 57.5213 34.6004 55.3044C35.0145 54.4374 34.4258 54.2368 33.6753 54.1721C33.1965 54.1269 32.239 54.0233 32.5948 53.454C33.3202 52.4643 34.193 51.5915 35.1827 50.8661C35.5192 50.5814 35.9203 50.9308 36.1726 51.3513C37.6154 53.7451 39.8928 55.1361 42.3384 56.3007C42.6448 56.3978 42.9055 56.6028 43.0721 56.8777C43.2387 57.1526 43.2998 57.4787 43.2441 57.7952C43.0953 58.7269 42.3513 58.6104 41.7561 58.4422C38.5212 57.64 38.353 59.8914 37.8742 62.0071C46.589 62.9322 46.589 62.9322 47.9218 54.7997C47.9506 54.5809 47.996 54.3646 48.0576 54.1527C48.4393 52.8976 48.2259 52.1536 46.8672 51.3772C42.7783 49.0545 42.073 44.9074 44.8615 41.0255C48.0964 36.5873 48.0964 36.5873 44.7192 32.0131C43.7293 30.6674 43.1924 29.2117 44.9327 28.1765C46.5502 27.219 47.7988 28.2283 48.6981 29.5675C48.9755 30.143 49.1923 30.7458 49.3451 31.3661C50.3867 34.0382 51.8165 34.5169 54.7279 32.9771C53.7517 32.6276 52.8819 32.0328 52.202 31.2498C51.5222 30.4669 51.0552 29.5221 50.8461 28.5065C50.4191 26.5267 48.944 25.4722 46.906 25.3039C44.868 25.1357 43.2376 25.718 42.2413 27.4972C41.2449 29.2764 41.122 31.1656 42.3836 32.9383C42.8753 33.6306 43.5158 34.2323 43.9816 34.9375C44.3881 35.4471 44.5872 36.0914 44.5392 36.7415C44.4912 37.3916 44.1997 37.9996 43.7228 38.4441C43.3198 38.8871 42.7697 39.1686 42.1747 39.2364C41.5797 39.3043 40.9803 39.1537 40.4879 38.8129C38.0477 37.3924 36.265 35.0681 35.5256 32.3431C37.3372 31.6961 36.8196 33.9993 38.4241 33.8376C38.4953 31.4438 39.524 29.3088 40.7597 27.1802C43.3864 22.6513 43.1082 17.3591 40.1968 13.9559C37.6542 10.9798 31.2621 9.56943 27.0308 11.1092C25.821 11.5492 24.003 12.662 24.8505 13.6325C26.3127 15.2887 24.6758 14.797 24.2035 15.0946C23.5271 15.4042 22.8779 15.7699 22.2626 16.188C21.4409 16.932 19.2864 16.8026 20.121 18.6983C20.768 20.1799 21.8291 21.3897 23.9059 20.7039C24.967 20.3481 26.6297 20.0181 26.6556 21.7197C26.6556 23.046 25.2386 22.4831 24.3264 22.4184C23.6018 22.3731 22.6055 22.2373 22.5084 23.2013C22.5495 23.9391 22.8034 24.6492 23.2395 25.2457C23.783 26.1644 24.4688 25.6598 25.1805 25.3039C26.1315 24.8187 27.1214 24.4305 28.0983 24.01L28.6159 24.6246C27.9689 25.2716 27.3219 26.0027 26.6167 26.6432C23.7894 29.2311 22.7348 29.1405 20.6063 26.1127C19.5646 24.6311 18.5748 23.1042 17.4684 21.6744C16.5433 20.4904 12.2926 20.2381 12.4349 21.1374C12.6937 23.0072 12.5773 25.5175 14.6088 26.3132C15.0855 26.4674 15.518 26.7343 15.8694 27.0914C16.2208 27.4484 16.4809 27.8851 16.6274 28.3642C17.3909 30.2339 18.0637 32.136 18.7689 34.0252V34.724C17.1903 34.8728 15.6117 35.0604 14.033 35.1704C11.7815 35.3192 11.8139 37.3572 11.4904 38.6705C11.0698 40.3915 12.9719 39.8286 13.7418 39.8933C17.6237 40.1909 21.5056 39.5569 25.2839 40.8056C25.7359 40.9682 26.2175 41.0321 26.6963 40.993C27.175 40.9539 27.6398 40.8128 28.0595 40.5791L28.5771 41.2649C27.4061 43.9111 30.8739 42.7659 31.0809 44.2863C30.8803 44.3834 30.7574 44.5192 30.6345 44.6551V44.6616Z" fill="#070607"/>
<path d="M18.7236 33.9993C20.0176 34.6463 21.4538 34.4781 22.8642 34.5234C21.5334 35.0323 20.073 35.0936 18.7042 34.6981L18.7236 33.9993Z" fill="#1F1F1F"/>
<path d="M27.9948 40.5532L28.9329 39.738L29.4311 40.1521L28.5124 41.239L27.9948 40.5532Z" fill="#070607"/>
<path d="M28.9329 39.7381C29.0882 39.4534 29.1076 38.8517 29.6252 39.2076C30.1428 39.5634 29.5799 39.8545 29.4311 40.1521L28.9329 39.7381Z" fill="#070607"/>
<path d="M28.053 24.01L28.8359 23.9065L28.5706 24.6246L28.053 24.01Z" fill="#070607"/>
<path d="M31.0162 44.2604C31.3785 44.2993 31.579 44.4933 31.3655 44.8168C31.3202 44.8945 30.8868 44.7133 30.6344 44.6551C30.7574 44.5192 30.8803 44.3834 31.0162 44.2604Z" fill="#070607"/>
</svg>
