<svg width="141" height="40" viewBox="0 0 141 40" fill="none" xmlns="http://www.w3.org/2000/svg">
<path d="M4.1701 30.51C2.90583 29.5453 1.75826 28.6713 0.613291 27.7947C0.413486 27.6465 0.25317 27.4514 0.146448 27.2266C0.0397265 27.0019 -0.0101321 26.7544 0.00125595 26.5058C0.00903606 22.3824 0.00903606 18.2585 0.00125595 14.1342C0.00125595 13.5079 0.277447 13.0774 0.752033 12.7156C5.50654 9.09784 10.2611 5.47793 15.0156 1.85586C15.3423 1.60819 15.6639 1.35663 15.9946 1.11026C16.7998 0.506008 17.3574 0.504712 18.1587 1.11026L31.2397 11.0714C31.9775 11.6329 32.7114 12.2008 33.4557 12.7571C33.6694 12.9023 33.8426 13.0996 33.9587 13.3303C34.0749 13.5611 34.1303 13.8177 34.1196 14.0758C34.1041 18.2425 34.1041 22.4096 34.1196 26.5771C34.1196 26.9662 34.0755 27.3448 33.7773 27.5834C32.5519 28.5572 31.3045 29.5012 29.9637 30.5359C29.9637 29.3222 29.9637 28.2512 29.9637 27.1801C29.9637 26.8235 30.2503 26.6938 30.4733 26.5733C31.1917 26.1842 31.3551 25.6163 31.3434 24.8227C31.2941 21.6705 31.3136 18.517 31.3317 15.3647C31.3317 14.9148 31.2176 14.6139 30.8468 14.3274C26.4087 10.969 21.9801 7.59757 17.561 4.21323C17.1719 3.9111 16.945 3.95389 16.5858 4.23397C12.1667 7.61832 7.73771 10.9897 3.29872 14.3481C3.14947 14.4454 3.02902 14.5809 2.94989 14.7406C2.87076 14.9002 2.83584 15.0781 2.84877 15.2558C2.86693 18.5814 2.86693 21.9065 2.84877 25.2312C2.84877 25.7382 2.96029 26.1026 3.41413 26.3386C4.03264 26.6614 4.25308 27.149 4.19214 27.8596C4.11563 28.6985 4.1701 29.5401 4.1701 30.51Z" fill="#3C4751"/>
<path d="M27.4703 28.7947C27.4703 29.7659 27.4612 30.7397 27.4703 31.7096C27.4767 32.3165 27.2628 32.7742 26.7389 33.1217C23.8318 35.0555 20.9315 37.0005 18.0382 38.9568C17.3898 39.3925 16.7752 39.4028 16.1217 38.9568C13.2266 37.0057 10.3268 35.0607 7.42222 33.1217C7.19166 32.9828 7.00377 32.7832 6.87912 32.5446C6.75447 32.3061 6.69787 32.0378 6.71553 31.7693C6.73887 29.781 6.73887 27.7928 6.71553 25.8045C6.70645 25.1652 6.96709 24.7477 7.47279 24.4106C10.3411 22.4984 13.2059 20.5802 16.0672 18.6559C16.7622 18.1878 17.4015 18.1943 18.0965 18.665C20.9492 20.5944 23.8149 22.5118 26.6935 24.4171C27.233 24.7749 27.4819 25.2314 27.4716 25.8706C27.4586 26.8509 27.4703 27.8234 27.4703 28.7947ZM9.44634 28.5976C9.44634 29.4599 9.46579 30.173 9.43727 30.8836C9.423 31.2324 9.55397 31.4256 9.83535 31.6124C12.1331 33.1373 14.4239 34.6721 16.7078 36.2169C16.9788 36.401 17.1577 36.4088 17.4378 36.2169C19.7399 34.6609 22.0497 33.1156 24.3673 31.5812C24.4965 31.509 24.6019 31.4008 24.671 31.2699C24.74 31.139 24.7696 30.9908 24.7563 30.8434C24.7356 29.4845 24.733 28.1204 24.7563 26.764C24.7695 26.6067 24.737 26.4488 24.6627 26.3094C24.5884 26.17 24.4755 26.0551 24.3375 25.9783C22.0397 24.4547 19.742 22.9311 17.465 21.3789C17.1487 21.1637 16.9606 21.2 16.687 21.3906C14.9754 22.5576 13.2534 23.6961 11.5379 24.8489C10.8584 25.3053 9.95983 25.6269 9.57213 26.2752C9.15978 26.9378 9.49303 27.9103 9.44894 28.5976H9.44634Z" fill="#EB472A"/>
<path d="M85.1351 30.6943L72.2876 16.7536C72.1514 17.0039 72.2059 17.2399 72.2059 17.459C72.2059 21.5825 72.1903 25.7072 72.2175 29.8307C72.2175 30.409 72.0697 30.623 71.5018 30.5322C71.3295 30.5114 71.1554 30.5114 70.9831 30.5322C70.6524 30.562 70.5111 30.4389 70.5409 30.0926C70.5669 29.7931 70.5409 29.4884 70.5409 29.185V12.7469L83.5791 26.7835V14.3548C84.1432 14.7295 84.5983 15.0329 85.0573 15.3338C85.2363 15.4505 85.2103 15.6281 85.2103 15.798C85.2103 20.6995 85.2103 25.6009 85.2103 30.5024C85.1932 30.5692 85.1679 30.6336 85.1351 30.6943V30.6943Z" fill="#EB472A"/>
<path d="M42.9695 25.7954C42.9695 27.1984 42.9527 28.6027 42.9799 30.0058C42.989 30.4453 42.8412 30.5452 42.4275 30.5413C41.2929 30.5335 41.2929 30.5517 41.2929 29.4261C41.2929 26.8328 41.2735 24.2394 41.3085 21.646C41.3163 21.0535 41.1334 20.903 40.5784 20.9432C39.9301 20.9899 39.2818 20.9354 38.6334 20.9614C38.2444 20.9782 38.1147 20.8525 38.1212 20.4427C38.1575 19.2614 38.0214 19.4961 39.0756 19.4754C39.6371 19.465 40.1998 19.4482 40.7613 19.4754C41.1918 19.5013 41.3072 19.3457 41.302 18.9295C41.28 17.2023 41.3098 15.4738 41.2825 13.7427C41.2748 13.2487 41.3876 13.0814 41.9192 13.0879C44.4244 13.1177 46.9309 13.0983 49.44 13.1022C50.4336 13.0886 51.4236 13.2241 52.377 13.5042C54.2844 14.0929 55.3321 15.4907 55.2206 17.2477C55.0987 19.1421 53.9434 20.3597 51.9205 20.7384C50.8326 20.9393 49.733 20.9549 48.6309 20.9549C46.9244 20.9549 45.218 20.9666 43.5115 20.9458C43.0875 20.9458 42.9579 21.0755 42.9643 21.4969C42.9838 22.9427 42.9695 24.3691 42.9695 25.7954ZM47.3018 19.4676C48.5751 19.4028 50.1117 19.5973 51.6366 19.3379C52.8373 19.1357 53.4831 18.4303 53.5401 17.2529C53.5998 15.9912 53.0629 15.2443 51.8674 14.9292C51.3049 14.7768 50.7255 14.6957 50.1428 14.688C47.919 14.6751 45.6939 14.688 43.4701 14.6712C43.081 14.6712 42.9436 14.7658 42.9514 15.173C42.976 16.4463 42.9786 17.721 42.9514 18.993C42.9423 19.4248 43.1148 19.4858 43.4843 19.4793C44.6708 19.4507 45.8585 19.4637 47.3018 19.4637V19.4676Z" fill="#EB472A"/>
<path d="M110.321 21.8081C110.321 19.1097 110.334 16.4113 110.309 13.7129C110.309 13.2215 110.439 13.1061 110.92 13.1087C114.526 13.1294 118.133 13.1437 121.739 13.1087C122.517 13.0996 122.333 13.5443 122.367 13.9697C122.404 14.4391 122.36 14.6997 121.744 14.6932C118.678 14.6569 115.611 14.6854 112.544 14.666C112.066 14.666 111.865 14.7425 111.886 15.2871C111.931 16.4943 111.922 17.7054 111.886 18.9178C111.873 19.3807 112.015 19.4884 112.463 19.4858C115.011 19.4637 117.56 19.5026 120.113 19.4559C120.778 19.443 120.834 19.7153 120.82 20.2339C120.808 20.7202 120.861 21.0599 120.142 21.0457C117.595 20.9912 115.046 21.0379 112.491 21.012C112.008 21.012 111.878 21.1274 111.883 21.6162C111.912 23.8828 111.912 26.1494 111.883 28.416C111.883 28.9114 112.024 29.0319 112.502 29.0294C115.633 29.0086 118.766 29.0436 121.896 28.9982C122.577 28.9892 122.552 29.303 122.544 29.7672C122.537 30.2106 122.608 30.5556 121.909 30.5452C118.26 30.5011 114.609 30.5102 110.96 30.5452C110.389 30.5452 110.3 30.3598 110.312 29.8502C110.334 27.1621 110.321 24.4845 110.321 21.8081Z" fill="#EB472A"/>
<path d="M133.959 22.6328C133.959 25.0511 133.945 27.4681 133.972 29.8865C133.972 30.3935 133.842 30.6022 133.324 30.5218C133.174 30.5004 133.021 30.5004 132.871 30.5218C132.482 30.5724 132.336 30.4414 132.353 30.0278C132.388 29.36 132.363 28.6896 132.363 28.0205C132.363 23.7687 132.354 19.5156 132.375 15.2625C132.375 14.7814 132.262 14.6478 131.772 14.6569C130.131 14.6906 128.49 14.6478 126.844 14.6828C126.341 14.6945 126.183 14.5389 126.258 14.0695C126.278 13.9406 126.278 13.8094 126.258 13.6805C126.187 13.2254 126.368 13.1061 126.824 13.1087C131.034 13.1268 135.245 13.1268 139.457 13.1087C139.923 13.1087 140.032 13.2448 140.021 13.6883C139.997 14.6673 140.021 14.6686 139.032 14.6686C137.585 14.6686 136.136 14.7075 134.692 14.6504C134.036 14.6258 133.922 14.8423 133.931 15.444C133.98 17.8403 133.959 20.2365 133.959 22.6328Z" fill="#EB472A"/>
<path d="M94.6891 14.3587V17.5161C94.6891 21.1196 94.6995 24.7244 94.6774 28.3292C94.6774 28.8582 94.8071 29.0268 95.3569 29.0216C98.4884 28.9969 101.62 29.032 104.75 28.9931C105.455 28.984 105.353 29.3639 105.372 29.7983C105.393 30.2638 105.365 30.5387 104.745 30.5335C101.054 30.5024 97.3616 30.5024 93.6686 30.5335C93.1499 30.5335 93.0773 30.3675 93.0786 29.9111C93.0959 25.3347 93.0959 20.7587 93.0786 16.1831C93.0786 15.6191 93.2083 15.2508 93.7192 14.9992C94.0174 14.8462 94.2858 14.6271 94.6891 14.3587Z" fill="#EB472A"/>
<path d="M61.0738 21.8146C61.0738 19.1408 61.0881 16.4658 61.0609 13.792C61.0609 13.2733 61.1724 13.0257 61.7248 13.1164C61.8748 13.1391 62.0273 13.1391 62.1773 13.1164C62.5961 13.0581 62.7466 13.2137 62.7336 13.6481C62.7038 14.5973 62.7245 15.5464 62.7245 16.5008C62.7245 20.9432 62.7128 25.387 62.7375 29.8294C62.7375 30.3961 62.6078 30.6347 62.0282 30.5361C61.8993 30.5159 61.7681 30.5159 61.6392 30.5361C61.1918 30.6022 61.0583 30.4324 61.0622 29.9733C61.0855 27.2503 61.0738 24.5325 61.0738 21.8146Z" fill="#EB472A"/>
<path d="M17.0255 32.3009C15.6627 32.3009 15.6704 32.3009 15.9012 30.9731C16.0037 30.3818 16.0478 29.7788 16.1606 29.1888C16.206 28.9412 16.0517 28.8439 15.9401 28.6935C15.4033 27.9686 15.4604 27.1803 16.0854 26.6084C16.3539 26.3533 16.7092 26.2095 17.0796 26.2061C17.45 26.2028 17.8079 26.3401 18.081 26.5903C18.671 27.1089 18.754 28.005 18.2106 28.674C17.9785 28.958 18.0161 29.2303 18.0537 29.5182C18.1523 30.2625 18.2664 31.0046 18.3961 31.7446C18.4635 32.1336 18.4168 32.367 17.9344 32.3074C17.6319 32.2868 17.3283 32.2847 17.0255 32.3009V32.3009Z" fill="#EB472A"/>
</svg>
