<svg id="Layer_1" data-name="Layer 1" xmlns="http://www.w3.org/2000/svg" viewBox="0 0 971.23 540.56"><defs><style>.cls-1{opacity:0.5;}.cls-2{fill:#fff;}.cls-3{fill:#dbb777;}</style></defs><path class="cls-2" d="M537,401.64H549.2c15.55,0,24.66,8.69,24.66,22.24,0,13.3-9.05,22.23-24.66,22.23H537Zm12.27,39.79c11.66,0,19.38-5.95,19.38-17.55s-7.72-17.56-19.38-17.56h-7.11v35.11Z"/><path class="cls-2" d="M597.94,446.11V401.64h5.17v44.47Z"/><path class="cls-2" d="M671.79,428.68c-1.1,9.78-8.75,18.22-22,18.22s-22.9-10.08-22.9-23,9.72-23,22.9-23c11.42,0,17.49,6.56,20.29,11.66l-4.74,2.31c-2.25-3.83-6.81-9.18-15.55-9.18-10,0-17.74,7.78-17.74,18.23a17.74,17.74,0,0,0,17.74,18.16c9.47,0,16.46-5.83,16.88-15.06H647.06v-4.62h25A40.73,40.73,0,0,1,671.79,428.68Z"/><path class="cls-2" d="M695.82,446.11V401.64H701v44.47Z"/><path class="cls-2" d="M741.33,406.32v39.79h-5.1V406.32H722.86v-4.68h31.83v4.68Z"/><path class="cls-2" d="M799.57,434.81h-22.3l-4.67,11.3H767l18.71-44.47h5.53l18.65,44.47h-5.65Zm-1.88-4.55-9.24-22.42-9.29,22.42Z"/><path class="cls-2" d="M859.81,446.11H831.69V401.64h5.16v39.79h23Z"/><path class="cls-3" d="M236.42,114.74a7.42,7.42,0,0,1,1.47,4.77,6.45,6.45,0,0,1-2.2,5,7.37,7.37,0,0,1-5.14,2q-3.68,0-5.88-3.67-14.32-20.94-39.29-20.93-20.56,0-32.32,13.4t-11.75,29.56q0,24.24,18.36,52.51l61.7,96.95q7.33,11.38,7.34,23.5,0,17.63-14.14,30.48t-32.13,12.85q-23.13,0-36-21.66a6.31,6.31,0,0,1-1.47-4,7.55,7.55,0,0,1,7.35-7.35q3.3,0,6.24,4,8.82,15.06,24.61,15.06a30.47,30.47,0,0,0,21.48-8.81q9.36-8.82,9.36-20.57A31,31,0,0,0,209.25,302l-61.7-96.58Q127,172.77,127,144.48q0-20.92,15.79-38.74t43-17.81Q218.06,87.93,236.42,114.74Z"/><path class="cls-3" d="M353.9,252.45a232.45,232.45,0,0,1-2.21,31,297.81,297.81,0,0,1-7.34,35.8q-5.14,19.47-16.53,32t-27.54,12.48q-16.15,0-27.72-12.48t-16.71-32a296,296,0,0,1-7.35-35.8,232.37,232.37,0,0,1-2.2-31,264.67,264.67,0,0,1,2.75-38.75,194.91,194.91,0,0,1,8.63-35.43q5.88-16.89,16.71-27a36.21,36.21,0,0,1,25.52-10.1q18.36,0,31.22,17.81t17.81,42A256.47,256.47,0,0,1,353.9,252.45Zm-14.69,0q0-44.8-11.75-70.14T299.91,157q-15.8,0-27.35,25.15T261,252.45q0,45.17,11.75,70.69t27.54,25.52q15.78,0,27.36-25.52T339.21,252.45Z"/><path class="cls-3" d="M439.49,342.05q3.67,13.21,3.67,14.69a7.52,7.52,0,0,1-7.34,7.34q-5.88,0-7.35-5.87-19.46-70.51-40-85.57v85.2q0,7.34-7.35,7.34-7,0-7-7.34V147.42a6.66,6.66,0,0,1,2.2-4.77,7,7,0,0,1,5.14-2.21q15.06,0,33.23,19.1t18.18,44.8a64.61,64.61,0,0,1-8.81,32.87A67.51,67.51,0,0,1,398.73,262q10.65,7,18.73,20.94a146.58,146.58,0,0,1,12.12,25.88Q433.62,320.75,439.49,342.05Zm-51-184v92.54a48.08,48.08,0,0,0,22.21-18.91,50.76,50.76,0,0,0,7.9-27.36,50.15,50.15,0,0,0-7.71-26.81Q403.14,165.05,388.45,158.07Z"/><path class="cls-3" d="M507.46,154H486.9V354.9q0,7.35-7.35,7.35-7,0-7-7.35V154H451.65c-4.91,0-7.35-2.32-7.35-7,0-4.89,2.44-7.34,7.35-7.34h55.81q7.71,0,7.71,7.34Q515.17,154,507.46,154Z"/><path class="cls-3" d="M641.9,342.05q-21.3,21.3-52.51,21.3-29.75,0-51.42-21.85T516.31,291a78,78,0,0,1,11.93-41.49A65.23,65.23,0,0,1,561.11,222q-18.37-12.48-18.36-36.36,0-17.62,13.4-31t31.4-13.4q14,0,23.5,6.24t9.55,12.49q0,6.24-5.88,6.24a7.48,7.48,0,0,1-5.51-2.2,27.82,27.82,0,0,0-20.93-8.82q-12.12,0-21.85,9.55t-9.73,22q0,10.66,8.81,20.2a28.75,28.75,0,0,0,22,9.55,11.74,11.74,0,0,1,7.53,2.2c1.83,1.47,2.75,3.07,2.75,4.78a6.61,6.61,0,0,1-2.57,5.14,10.37,10.37,0,0,1-7,2.2q-25.34,0-41.68,18.36t-16.34,41.5q0,23.13,17.45,40.76t42,17.63Q614,349,632,331.77a6.88,6.88,0,0,1,9.92-.19,6.47,6.47,0,0,1,2.2,5A7.48,7.48,0,0,1,641.9,342.05Z"/><path class="cls-3" d="M761.72,252.45a232.45,232.45,0,0,1-2.21,31,297.81,297.81,0,0,1-7.34,35.8q-5.14,19.47-16.53,32T708.1,363.71q-16.15,0-27.72-12.48t-16.71-32a296,296,0,0,1-7.35-35.8,232.37,232.37,0,0,1-2.2-31,264.67,264.67,0,0,1,2.75-38.75,194.92,194.92,0,0,1,8.64-35.43q5.87-16.89,16.7-27a36.21,36.21,0,0,1,25.53-10.1q18.35,0,31.21,17.81t17.81,42A256.47,256.47,0,0,1,761.72,252.45Zm-14.69,0q0-44.8-11.75-70.14T707.74,157q-15.79,0-27.36,25.15t-11.57,70.33q0,45.17,11.75,70.69t27.54,25.52q15.78,0,27.36-25.52T747,252.45Z"/></svg>