<svg xmlns="http://www.w3.org/2000/svg" viewBox="0 0 634.73 277.25"><defs><style>.cls-1{fill:#dbb777;}</style></defs><g id="Layer_2" data-name="Layer 2"><g id="Layer_1-2" data-name="Layer 1"><path class="cls-1" d="M109.43,26.81a7.4,7.4,0,0,1,1.47,4.77,6.45,6.45,0,0,1-2.2,5,7.37,7.37,0,0,1-5.14,2q-3.68,0-5.88-3.67Q83.35,14,58.39,14,37.81,14,26.07,27.36T14.32,56.92q0,24.24,18.36,52.51l61.7,96.95q7.34,11.38,7.34,23.5,0,17.63-14.14,30.48T55.45,273.21q-23.13,0-36-21.66a6.33,6.33,0,0,1-1.47-4,7,7,0,0,1,2.21-5.14,7,7,0,0,1,5.14-2.21q3.3,0,6.24,4,8.82,15.06,24.61,15.06,12.11,0,21.48-8.81T87,229.88a31,31,0,0,0-4.77-15.79l-61.7-96.58Q0,84.82,0,56.55,0,35.63,15.79,17.81T58.76,0Q91.07,0,109.43,26.81Z"/><path class="cls-1" d="M226.9,164.52a232.37,232.37,0,0,1-2.2,31,297.81,297.81,0,0,1-7.34,35.8q-5.15,19.47-16.53,32t-27.54,12.48q-16.17,0-27.73-12.48t-16.7-32a296,296,0,0,1-7.35-35.8,232.37,232.37,0,0,1-2.2-31,264.57,264.57,0,0,1,2.75-38.75,194.7,194.7,0,0,1,8.63-35.43q5.88-16.89,16.71-27a36.21,36.21,0,0,1,25.52-10.1q18.36,0,31.22,17.81t17.81,42A256.66,256.66,0,0,1,226.9,164.52Zm-14.68,0q0-44.81-11.76-70.14T172.92,69q-15.79,0-27.36,25.15T134,164.52q0,45.16,11.75,70.69t27.54,25.52q15.78,0,27.36-25.52T212.22,164.52Z"/><path class="cls-1" d="M312.5,254.12q3.67,13.22,3.67,14.69a7.52,7.52,0,0,1-7.34,7.34q-5.88,0-7.35-5.88-19.46-70.5-40-85.56v85.2q0,7.33-7.35,7.34-7,0-7-7.34V59.49a6.66,6.66,0,0,1,2.2-4.77,7,7,0,0,1,5.14-2.21q15.06,0,33.23,19.1t18.18,44.8a64.61,64.61,0,0,1-8.81,32.87,67.51,67.51,0,0,1-25.34,24.78q10.65,7,18.73,20.93a147,147,0,0,1,12.12,25.89Q306.63,232.82,312.5,254.12Zm-51-184v92.54a48.13,48.13,0,0,0,22.21-18.91,50.76,50.76,0,0,0,7.9-27.36,50.15,50.15,0,0,0-7.71-26.81Q276.15,77.12,261.46,70.14Z"/><path class="cls-1" d="M380.47,66.1H359.91V267q0,7.35-7.35,7.34-7,0-7-7.34V66.1H324.65q-7.35,0-7.34-7,0-7.34,7.34-7.34h55.82q7.71,0,7.71,7.34Q388.18,66.11,380.47,66.1Z"/><path class="cls-1" d="M514.91,254.12q-21.3,21.3-52.51,21.3-29.75,0-51.42-21.85t-21.66-50.5a78,78,0,0,1,11.93-41.49A65.18,65.18,0,0,1,434.12,134q-18.37-12.48-18.36-36.36,0-17.62,13.4-31t31.4-13.4q13.95,0,23.5,6.24T493.61,72q0,6.24-5.88,6.24a7.52,7.52,0,0,1-5.51-2.2,27.82,27.82,0,0,0-20.93-8.82q-12.12,0-21.85,9.55t-9.73,22q0,10.66,8.81,20.2a28.75,28.75,0,0,0,22,9.55,11.74,11.74,0,0,1,7.53,2.2q2.75,2.21,2.75,4.77a6.62,6.62,0,0,1-2.57,5.15,10.43,10.43,0,0,1-7,2.2q-25.34,0-41.68,18.36t-16.34,41.5q0,23.13,17.45,40.76t42,17.62q24.24,0,42.23-17.26a7.07,7.07,0,0,1,5.14-2.2,7,7,0,0,1,4.78,2,6.47,6.47,0,0,1,2.2,5A7.48,7.48,0,0,1,514.91,254.12Z"/><path class="cls-1" d="M634.73,164.52a232.45,232.45,0,0,1-2.21,31,297.81,297.81,0,0,1-7.34,35.8q-5.14,19.47-16.53,32t-27.54,12.48q-16.17,0-27.72-12.48t-16.71-32a296,296,0,0,1-7.35-35.8,232.37,232.37,0,0,1-2.2-31,264.57,264.57,0,0,1,2.75-38.75,194.7,194.7,0,0,1,8.63-35.43q5.88-16.89,16.71-27a36.21,36.21,0,0,1,25.53-10.1q18.35,0,31.21,17.81t17.81,42A256.64,256.64,0,0,1,634.73,164.52Zm-14.69,0q0-44.81-11.75-70.14T580.75,69Q565,69,553.39,94.19t-11.57,70.33q0,45.16,11.75,70.69t27.54,25.52q15.78,0,27.36-25.52T620,164.52Z"/></g></g></svg>