<svg width="30" height="29" viewBox="0 0 30 29" fill="none" xmlns="http://www.w3.org/2000/svg">
<path d="M11.3973 27.3508C12.0657 27.3508 12.6076 26.8089 12.6076 26.1405C12.6076 25.472 12.0657 24.9302 11.3973 24.9302C10.7289 24.9302 10.187 25.472 10.187 26.1405C10.187 26.8089 10.7289 27.3508 11.3973 27.3508Z" stroke="#141313" stroke-width="2" stroke-linecap="round" stroke-linejoin="round"/>
<path d="M24.7103 27.3508C25.3787 27.3508 25.9206 26.8089 25.9206 26.1405C25.9206 25.472 25.3787 24.9302 24.7103 24.9302C24.0419 24.9302 23.5 25.472 23.5 26.1405C23.5 26.8089 24.0419 27.3508 24.7103 27.3508Z" stroke="#141313" stroke-width="2" stroke-linecap="round" stroke-linejoin="round"/>
<path d="M1.71484 1.93408H6.55603L9.79962 18.1399C9.9103 18.6972 10.2134 19.1977 10.656 19.5539C11.0985 19.9102 11.6522 20.0994 12.2202 20.0885H23.9843C24.5523 20.0994 25.106 19.9102 25.5485 19.5539C25.9911 19.1977 26.2942 18.6972 26.4049 18.1399L28.3414 7.98556H7.76632" stroke="#141313" stroke-width="2" stroke-linecap="round" stroke-linejoin="round"/>
</svg>
