<svg width="75" height="75" viewBox="0 0 75 75" fill="none" xmlns="http://www.w3.org/2000/svg">
<circle cx="37.2436" cy="37.2436" r="36.2436" stroke="#95013D" stroke-width="2"/>
<path d="M47.1439 46.9904C45.4549 47.4761 43.8067 47.7911 42.0904 47.7648C41.7771 47.7648 41.6954 47.9879 41.5592 48.1979C39.4887 51.5579 36.424 53.2117 32.3648 53.0936C27.7064 52.9492 23.5655 49.1167 23.1841 44.6673C22.7346 39.4698 26.0582 35.2436 31.3841 34.2723C35.7157 33.4848 40.3333 35.9917 42.0632 40.1129C42.2539 40.5854 42.4854 40.6773 42.9485 40.6117C44.1472 40.4279 45.2778 40.0998 46.3402 39.5223C46.7489 39.2992 46.8715 39.1154 46.6808 38.6692C44.4196 33.4848 40.4559 30.3348 34.6532 29.6523C26.821 28.7336 19.8196 33.7998 18.4848 41.2811C17.7492 45.3761 18.7844 49.1167 21.4406 52.4242C21.5632 52.5817 21.6994 52.7261 21.8083 52.8836C22.0127 53.1854 21.9582 53.4873 21.6858 53.6973C21.3997 53.9204 21.0728 53.9073 20.8276 53.6448C20.5688 53.3823 20.3236 53.0804 20.0921 52.7786C14.2622 45.1661 16.8502 34.3511 25.5678 29.9936C26.0854 29.7311 26.3579 29.4423 26.5077 28.8517C28.3466 21.4886 35.2253 16.6061 43.0848 17.0261C50.3721 17.4198 56.7333 23.0111 57.7821 29.9542C58.8173 36.7792 55.4937 43.0004 49.119 46.1636C48.7921 46.3211 48.5878 46.4917 48.506 46.8723C47.2801 52.7392 42.2811 57.5298 36.1652 58.6848C31.2479 59.6167 26.821 58.5536 22.8708 55.5873C22.6937 55.4561 22.503 55.3117 22.3941 55.1279C22.2579 54.8917 22.2851 54.6161 22.5303 54.4192C22.7891 54.2092 23.0751 54.1961 23.3339 54.3798C23.7562 54.6686 24.1648 54.9967 24.5871 55.2723C32.9914 60.8111 44.5831 56.6898 47.1439 47.2267C47.1575 47.1873 47.1439 47.1348 47.1439 46.9904ZM47.9748 38.2361C48.2472 38.1442 48.3971 37.9211 48.5605 37.7242C51.1349 34.7579 51.2984 30.7942 48.9555 27.5392C48.6967 27.1717 48.4515 26.7911 48.9147 26.4498C49.4186 26.0823 49.7456 26.4498 50.018 26.8173C51.8024 29.2454 52.3472 31.9098 51.5572 34.7842C50.4675 38.7086 46.8987 41.5436 42.9622 41.8323C38.3037 42.1736 34.4625 39.5617 32.9233 35.8736C32.7735 35.5061 32.6236 35.3486 32.2014 35.4142C30.9618 35.5848 29.7768 35.9129 28.6735 36.5036C28.224 36.7529 28.1695 36.9761 28.3466 37.4223C30.8937 43.8142 37.8814 47.5679 44.8691 46.2686C52.9466 44.7461 58.2725 37.0154 56.3655 29.3111C54.9897 23.7723 51.3529 20.0842 45.5911 18.7192C39.7884 17.3411 34.803 18.9686 30.8256 23.2998C29.3409 24.9142 28.3738 26.8304 27.8426 28.9698C27.9652 28.9698 28.0333 28.9829 28.0877 28.9698C29.6406 28.5236 31.207 28.2348 32.8416 28.2742C33.223 28.2873 33.3319 28.0511 33.4818 27.8017C35.8655 23.7461 40.81 21.9479 45.3595 23.4704C46.313 23.7854 47.1848 24.2448 47.9748 24.8354C48.3153 25.0848 48.4243 25.3998 48.1791 25.7411C47.9203 26.0954 47.5662 26.0692 47.2256 25.8329C47.1303 25.7673 47.0485 25.7017 46.9532 25.6492C43.6569 23.4836 39.3798 23.7329 36.3967 26.2792C35.7293 26.8567 35.1572 27.4998 34.7213 28.2873C42.3765 30.1773 44.406 31.7129 47.9748 38.2361ZM27.0662 37.7636C24.9549 39.2204 23.8788 42.8692 24.7369 45.8354C25.6768 49.0904 28.728 51.5973 32.4738 51.8336C35.525 52.0436 39.0256 50.2586 40.306 47.7123C33.9449 46.7936 29.5588 43.4467 27.0662 37.7636ZM34.2718 35.5717C34.8439 37.8161 38.4672 40.5329 40.7555 40.4411C40.1834 38.1836 36.5602 35.4667 34.2718 35.5717Z" fill="#95013D"/>
</svg>
