<svg width="15" height="16" viewBox="0 0 15 16" fill="none" xmlns="http://www.w3.org/2000/svg">
<path d="M10.9967 6.73093C11.0393 6.66208 11.0871 6.59275 11.1386 6.52335C11.2755 6.33896 11.4539 6.19919 11.6671 6.11194C11.8708 6.02862 12.0939 5.99639 12.3213 5.99639C12.8071 5.99639 13.2671 6.10479 13.6025 6.41542C13.9131 6.70315 14.0713 7.07619 14.0713 7.4988C14.0713 7.8562 13.9623 8.18653 13.7322 8.46171C13.6013 8.61823 13.4467 8.74126 13.2726 8.83017C13.2707 9.00128 13.2673 9.15258 13.2623 9.28368C13.2541 9.50235 13.2363 9.74767 13.2095 10.0187C13.1816 10.3013 13.1382 10.5549 13.0745 10.7721C13.0144 10.9771 12.9355 11.1808 12.839 11.3831C12.7266 11.6185 12.5757 11.8252 12.3839 11.9957C12.2869 12.082 12.1824 12.1589 12.0713 12.2269V14.0144C12.0713 14.2825 11.9775 14.5359 11.7759 14.7326L11.4268 14.3747L11.7759 14.7326C11.5816 14.9221 11.3359 15.0156 11.0713 15.0156H10.0713C9.80671 15.0156 9.561 14.9221 9.36671 14.7326L9.69224 14.3988L9.36671 14.7326C9.16505 14.5359 9.07129 14.2825 9.07129 14.0144V12.5096H6.07129V13.9831C6.07129 14.2509 5.97847 14.4984 5.79421 14.6981C5.60432 14.9039 5.35313 15.0156 5.07129 15.0156H4.07129C3.80671 15.0156 3.561 14.9221 3.36671 14.7326C3.16532 14.5362 3.07154 14.2832 3.07129 14.0155L3.07129 14.0163L3.57129 14.0144H3.07129L10.9967 6.73093ZM10.9967 6.73093L11.2643 3.9442L11.2644 3.9437C11.3429 3.11751 11.2381 2.38868 10.8594 1.83319C10.4572 1.24303 9.8221 0.984375 9.07129 0.984375H6.07129C5.32018 0.984375 4.68488 1.243 4.2777 1.82972C3.89185 2.38572 3.78396 3.11605 3.86259 3.9437L3.86264 3.9442L4.13024 6.73093C4.08769 6.66208 4.0399 6.59275 3.98837 6.52335C3.85148 6.33896 3.67309 6.19919 3.45985 6.11194C3.25618 6.02861 3.03307 5.99639 2.80566 5.99639C2.32117 5.99639 1.85968 6.10424 1.52763 6.4198C1.22361 6.70872 1.07129 7.08049 1.07129 7.4988C1.07129 7.85628 1.17597 8.18918 1.40602 8.46508C1.53386 8.61841 1.68461 8.7396 1.85437 8.82785C1.85628 8.99682 1.85967 9.14749 1.86461 9.27953C1.87289 9.50101 1.8907 9.74537 1.91756 10.0119C1.94571 10.2912 1.99094 10.5435 2.05892 10.7609C2.12149 10.9611 2.20116 11.1602 2.29704 11.3582L2.74152 11.143L2.29704 11.3582C2.40966 11.5908 2.56038 11.7951 2.75082 11.9643C2.84823 12.0509 2.95304 12.1281 3.06459 12.1962L10.9967 6.73093Z" stroke="#464646"/>
</svg>
