<svg width="75" height="75" viewBox="0 0 75 75" fill="none" xmlns="http://www.w3.org/2000/svg">
<circle cx="37.2436" cy="37.2436" r="36.2436" stroke="#95013D" stroke-width="2"/>
<path d="M26.0369 28.0606C24.9011 27.8428 23.8394 27.5223 22.8764 26.9456C22.469 26.7021 22.2715 26.3432 22.4814 25.869C22.7036 25.3692 23.111 25.3051 23.5801 25.4973C23.6789 25.5358 23.7653 25.5999 23.8517 25.6511C24.9135 26.2022 26.0369 26.497 27.2345 26.497C28.5184 26.497 29.7159 26.1894 30.8394 25.5486C32.3085 24.7027 33.7653 23.8184 35.2345 22.9853C35.6295 22.7674 35.7283 22.6649 35.3579 22.2548C33.8024 20.6142 34.4567 17.8843 36.5431 17.1538C37.8147 16.7052 39.2468 17.2307 39.9999 18.4226C40.7283 19.5761 40.6172 21.1397 39.7406 22.165C39.6048 22.3188 39.4196 22.4214 39.1604 22.6264C39.9258 23.0878 40.5431 23.4723 41.1851 23.8184C42.6172 24.6002 43.9258 25.6255 45.4937 26.1382C47.432 26.779 49.2962 26.5867 51.111 25.6639C51.1974 25.6127 51.2838 25.5486 51.3826 25.5101C51.8394 25.3051 52.2468 25.3692 52.4814 25.8562C52.7036 26.3176 52.5184 26.6893 52.111 26.9328C51.3456 27.3942 50.5184 27.7146 49.6542 27.9068C49.432 27.9581 49.2098 28.0094 48.9382 28.0735C49.7406 29.7524 50.5184 31.3929 51.2962 33.0206C52.1357 34.7765 52.9752 36.5323 53.8147 38.2882C53.9505 38.583 54.0369 38.8649 54.0246 39.211C53.8764 42.6202 51.1357 45.3629 47.827 45.4398C44.6295 45.5039 41.8147 42.915 41.4814 39.5955C41.432 39.07 41.4937 38.5958 41.7283 38.1088C43.2468 34.9687 44.7406 31.8159 46.2591 28.6758C46.4814 28.2144 46.5184 27.9966 45.9258 27.9068C44.6789 27.7274 43.6048 27.0994 42.5307 26.4586C41.3209 25.7408 40.0986 25.0231 38.8888 24.3054C38.2838 23.9465 38.2838 23.9465 38.2838 24.7027C38.2838 27.266 38.2838 29.8293 38.2838 32.3926C38.2838 32.8156 38.1851 33.1488 37.7653 33.3026C37.4443 33.4179 37.1604 33.3282 36.9258 33.0719C36.7283 32.8412 36.753 32.5592 36.753 32.2773C36.753 29.7396 36.753 27.2019 36.753 24.6514C36.753 23.9465 36.753 23.9465 36.1604 24.2926C34.7653 25.1128 33.3703 25.9203 31.9752 26.7405C31.0369 27.2916 30.074 27.7402 28.9999 27.9068C28.6048 27.9709 28.5061 28.0991 28.7159 28.522C30.1604 31.5083 31.5307 34.533 33.0369 37.4936C33.6048 38.6214 33.6295 39.6724 33.2962 40.8131C32.4814 43.6071 29.753 45.6064 27.0246 45.4142C23.9875 45.2091 21.5801 42.979 21.0863 39.9672C20.9628 39.2238 21.0369 38.5702 21.3826 37.8781C22.8517 34.879 24.2715 31.8543 25.7036 28.8424C25.79 28.6117 25.9011 28.3554 26.0369 28.0606ZM47.7036 29.1757C47.6295 29.3295 47.6048 29.3807 47.5801 29.4448C46.2715 32.1875 44.9628 34.9303 43.6419 37.673C43.4196 38.1344 43.6665 38.096 43.9628 38.096C46.4443 38.096 48.9382 38.0831 51.4196 38.1088C51.9382 38.1088 51.8888 37.955 51.7159 37.5705C50.7283 35.5327 49.7653 33.4948 48.79 31.457C48.4443 30.7393 48.0986 30.0216 47.7036 29.1757ZM27.2591 29.1757C25.8517 32.1235 24.5184 34.9175 23.1727 37.7115C22.9628 38.1344 23.2468 38.096 23.5061 38.096C25.9875 38.096 28.4814 38.0831 30.9628 38.1088C31.4196 38.1088 31.4937 38.0062 31.2838 37.5833C30.6172 36.2376 29.9875 34.879 29.3332 33.5333C28.6666 32.1235 27.9875 30.7136 27.2591 29.1757ZM27.2345 39.698C25.8641 39.698 24.4814 39.7237 23.111 39.6852C22.6295 39.6724 22.6048 39.8646 22.7036 40.2491C23.2345 42.3254 25.1974 43.8249 27.3579 43.7865C29.4443 43.748 31.3332 42.2101 31.8147 40.1594C31.9011 39.7749 31.8394 39.6852 31.469 39.698C30.0616 39.7108 28.6542 39.698 27.2345 39.698ZM47.7159 39.698C46.3209 39.698 44.9258 39.7108 43.5307 39.6852C43.0863 39.6724 43.0369 39.8006 43.148 40.2235C43.6912 42.2998 45.5925 43.7993 47.7283 43.7865C49.827 43.7737 51.7406 42.2741 52.2591 40.2363C52.3579 39.839 52.3085 39.6724 51.8394 39.6852C50.469 39.7237 49.0863 39.698 47.7159 39.698ZM37.4567 18.6277C36.6542 18.6405 36.0122 19.3326 36.0369 20.1528C36.0616 20.9603 36.7036 21.6139 37.4567 21.6139C38.2468 21.6267 38.9135 20.9347 38.9135 20.1144C38.9135 19.2941 38.2591 18.6149 37.4567 18.6277Z" fill="#95013D"/>
<path d="M37.4814 58.0001C33.9012 58.0001 30.3209 58.0001 26.753 58.0001C25.8888 58.0001 25.6419 57.7566 25.6419 56.8722C25.6419 56.2571 25.5802 55.6419 25.7036 55.0267C25.9999 53.54 27.074 52.5274 28.5308 52.4762C28.9999 52.4634 29.1481 52.348 29.1481 51.8354C29.1481 49.7591 30.3826 48.5159 32.395 48.5159C33.6049 48.5159 34.8271 48.4903 36.037 48.5287C36.5678 48.5415 36.7283 48.4262 36.7283 47.8366C36.6913 45.2092 36.716 42.5818 36.7036 39.9545C36.7036 39.5828 36.7777 39.2752 37.111 39.0958C37.3826 38.942 37.6666 38.9676 37.9258 39.1598C38.2098 39.3649 38.2345 39.6853 38.2345 40.0185C38.2345 42.6459 38.2468 45.2733 38.2221 47.9007C38.2221 48.4005 38.3333 48.5543 38.8271 48.5415C40.0987 48.5031 41.3826 48.5287 42.6542 48.5287C44.5308 48.5415 45.79 49.8103 45.79 51.7713C45.79 52.3224 45.9012 52.4762 46.4567 52.5018C48.0493 52.5531 49.2345 53.8604 49.2962 55.5393C49.3209 56.0135 49.3086 56.4749 49.2962 56.9491C49.2839 57.7566 49.0246 58.0257 48.2592 58.0257C44.6789 58.0001 41.0863 58.0001 37.4814 58.0001ZM37.4197 56.398C39.0987 56.398 40.79 56.398 42.4691 56.398C44.0493 56.398 45.6296 56.398 47.2098 56.398C47.4197 56.398 47.7036 56.5262 47.7407 56.0904C47.8641 54.8729 47.2468 54.0654 46.0987 54.0654C40.3456 54.0654 34.5925 54.0654 28.8394 54.0654C27.7654 54.0654 27.2345 54.655 27.1975 55.77C27.1728 56.2571 27.2839 56.4237 27.79 56.4237C30.9999 56.3852 34.2098 56.398 37.4197 56.398ZM37.5061 52.4506C39.5802 52.4506 41.6542 52.4377 43.7407 52.4634C44.1728 52.4634 44.2962 52.3352 44.2839 51.8994C44.2592 50.7075 43.753 50.1308 42.5802 50.1308C39.1728 50.1308 35.753 50.1179 32.3456 50.1308C31.2221 50.1308 30.7283 50.7075 30.6913 51.8738C30.6789 52.3737 30.8394 52.4634 31.2839 52.4634C33.3456 52.4377 35.4197 52.4506 37.5061 52.4506Z" fill="#95013D"/>
<path d="M36.7161 36.1479C36.7161 35.6866 37.0617 35.3149 37.4938 35.3533C37.9259 35.4046 38.2099 35.6353 38.2346 36.1223C38.2469 36.5709 37.9012 36.9554 37.4815 36.9554C37.0617 36.9682 36.7161 36.5965 36.7161 36.1479Z" fill="#95013D"/>
</svg>
