<svg width="31" height="31" viewBox="0 0 31 31" fill="none" xmlns="http://www.w3.org/2000/svg">
<g clip-path="url(#clip0_12_168)">
<path d="M6.24072 25.3093C7.06 22.3053 8.69855 21.2129 10.6102 21.2129H19.4857C21.3973 21.2129 23.0359 22.3053 23.8552 25.3093" stroke="#141313" stroke-width="2" stroke-linecap="round" stroke-linejoin="round"/>
<path d="M15.1164 17.1166C17.3788 17.1166 19.2128 15.2826 19.2128 13.0202C19.2128 10.7578 17.3788 8.92383 15.1164 8.92383C12.854 8.92383 11.02 10.7578 11.02 13.0202C11.02 15.2826 12.854 17.1166 15.1164 17.1166Z" stroke="#141313" stroke-width="2" stroke-linecap="round" stroke-linejoin="round"/>
<path d="M15.1165 29.4059C22.6578 29.4059 28.7712 23.2925 28.7712 15.7513C28.7712 8.21006 22.6578 2.09668 15.1165 2.09668C7.57529 2.09668 1.46191 8.21006 1.46191 15.7513C1.46191 23.2925 7.57529 29.4059 15.1165 29.4059Z" stroke="#141313" stroke-width="2" stroke-linecap="round" stroke-linejoin="round"/>
</g>
<defs>
<clipPath id="clip0_12_168">
<rect width="30.0402" height="30.0402" fill="white" transform="translate(0.0961914 0.730957)"/>
</clipPath>
</defs>
</svg>
