<svg width="175" height="50" viewBox="0 0 175 50" fill="none" xmlns="http://www.w3.org/2000/svg">
<path d="M15.0647 24.8624C15.1043 22.3834 15.6112 20.1855 17.0883 18.3083C17.8012 17.3619 18.7183 16.5884 19.7715 16.0454C20.8246 15.5024 21.9867 15.2038 23.1711 15.1719C24.11 15.177 25.0396 15.3584 25.9115 15.7065C26.6719 15.964 27.4204 16.2649 28.1965 16.4986C28.574 16.6095 28.9754 16.6095 29.3529 16.4986C30.3786 16.1976 31.3607 15.7778 32.3864 15.4808C33.593 15.117 34.8671 15.0349 36.1104 15.2409C37.3538 15.4468 38.5333 15.9354 39.5582 16.6689C40.1317 17.078 40.6369 17.5752 41.0551 18.142C41.1739 18.2965 41.1423 18.3559 40.9918 18.4509C39.7079 19.1921 38.6981 20.3284 38.1127 21.6903C36.9247 24.605 37.5663 28.7671 41.7719 30.7987C42.0254 30.9175 42.0214 31.0085 41.9422 31.2343C41.0591 33.6907 39.674 35.9363 37.8751 37.8279C37.1601 38.6612 36.1691 39.2094 35.0832 39.3724C34.2385 39.4384 33.3901 39.3027 32.6081 38.9764C31.9058 38.693 31.1847 38.4588 30.4499 38.2754C29.0863 38.0273 27.6797 38.1871 26.4066 38.7348C25.764 38.9952 25.1019 39.2044 24.4265 39.3605C23.9728 39.4585 23.5039 39.463 23.0484 39.3738C22.5929 39.2846 22.1604 39.1036 21.7771 38.8417C21.0359 38.3457 20.376 37.7379 19.8208 37.0399C17.4792 34.3018 15.9195 30.9828 15.3063 27.4325C15.1698 26.582 15.0891 25.7235 15.0647 24.8624Z" fill="black"/>
<path d="M87.6897 28.0304C88.082 27.4682 88.5763 26.9846 89.1471 26.6048C90.9331 25.4761 94.1765 25.3969 95.8397 28.1888C96.711 29.6383 96.8733 31.2263 96.6832 32.8737C96.5836 33.958 96.1983 34.9965 95.5665 35.8834C95.0805 36.5739 94.4236 37.1263 93.66 37.4866C92.8963 37.8469 92.0522 38.0027 91.2103 37.9387C90.633 37.9374 90.0627 37.8114 89.5385 37.5695C89.0143 37.3275 88.5485 36.9753 88.1729 36.5368C88.0858 36.4299 88.0065 36.3111 87.9075 36.1844C87.8682 36.2795 87.8572 36.384 87.8759 36.4853C87.8759 38.373 87.8759 40.2633 87.8759 42.1563C87.8759 42.3662 87.8283 42.4216 87.6145 42.4137C87.0997 42.4137 86.5849 42.4137 86.0701 42.4137C85.8245 42.4137 85.7612 42.3622 85.7651 42.1088C85.7651 38.3281 85.7651 34.5475 85.7651 30.7669C85.7651 29.3531 85.7453 27.9393 85.678 26.5295C85.678 26.1335 85.678 26.1335 86.074 26.1335C86.47 26.1335 86.866 26.1335 87.2819 26.1335C87.4957 26.1335 87.5709 26.181 87.5749 26.4068C87.6185 26.9374 87.6581 27.4839 87.6897 28.0304ZM94.5962 31.848C94.6132 30.9376 94.3935 30.0383 93.9587 29.2383C93.5863 28.5295 92.9536 27.9928 92.1936 27.741C91.4336 27.4891 90.6056 27.5418 89.8837 27.8879C89.3525 28.1304 88.8937 28.5069 88.5521 28.9804C88.2105 29.454 87.9979 30.0082 87.9353 30.5887C87.858 31.418 87.8421 32.2519 87.8877 33.0836C87.8896 33.4488 87.9608 33.8102 88.0976 34.1488C88.2872 34.6965 88.6261 35.1803 89.076 35.5456C89.526 35.9108 90.0691 36.1431 90.644 36.2161C91.2286 36.3304 91.8339 36.2696 92.3841 36.0414C92.9343 35.8131 93.4049 35.4275 93.7369 34.9329C94.3403 34.0204 94.6409 32.9411 94.5962 31.848Z" fill="black"/>
<path d="M74.8708 28.0267C75.2526 27.4844 75.7271 27.0138 76.2726 26.6366C78.1814 25.4011 81.6426 25.413 83.2187 28.5375C83.8657 29.8921 84.0893 31.4102 83.8603 32.8937C83.758 33.9787 83.3699 35.0172 82.7356 35.9034C82.2493 36.5855 81.5957 37.131 80.8377 37.4875C80.0797 37.8439 79.2426 37.9994 78.4072 37.9389C77.3568 37.9336 76.3492 37.522 75.5955 36.7905C75.4133 36.6123 75.2588 36.3945 75.0608 36.1687V36.4776C75.0608 38.3508 75.0608 40.22 75.0608 42.0931C75.0608 42.3743 74.9816 42.4297 74.7242 42.4178C74.2173 42.3941 73.7104 42.4178 73.2075 42.4178C72.9857 42.4178 72.9501 42.3505 72.9501 42.1486C72.9501 38.5079 72.9501 34.8671 72.9501 31.2264C72.9501 29.6186 72.9501 28.0069 72.8511 26.3991C72.8511 26.1812 72.8907 26.1139 73.1204 26.1218C73.5877 26.1218 74.055 26.1218 74.5223 26.1218C74.7123 26.1218 74.7599 26.1813 74.7638 26.3595C74.7995 26.906 74.8391 27.4683 74.8708 28.0267ZM75.0648 32.2284C75.0141 32.8693 75.084 33.5141 75.2707 34.1293C75.4686 34.7098 75.8327 35.2194 76.3178 35.5947C76.8029 35.97 77.3876 36.1944 77.9993 36.24C78.5703 36.3339 79.1564 36.2543 79.6817 36.0114C80.207 35.7686 80.6473 35.3736 80.9456 34.8777C81.4986 34.0234 81.8016 33.0314 81.8205 32.0139C81.8394 30.9964 81.5734 29.9939 81.0525 29.1197C80.7454 28.5585 80.2655 28.1113 79.6841 27.8445C79.1027 27.5777 78.4507 27.5055 77.825 27.6386C77.2053 27.7557 76.6319 28.047 76.1718 28.4784C75.7117 28.9097 75.384 29.4632 75.2272 30.0741C75.0645 30.7798 75.0097 31.5062 75.0648 32.2284Z" fill="black"/>
<path d="M57.9727 37.6814L58.8914 34.9884C60.3804 30.6164 61.8708 26.2431 63.3624 21.8685C63.3696 21.8239 63.3856 21.7813 63.4095 21.7431C63.4334 21.7049 63.4648 21.6719 63.5017 21.646C63.5387 21.6202 63.5804 21.602 63.6245 21.5926C63.6686 21.5832 63.7142 21.5827 63.7584 21.5913C64.4316 21.5913 65.1088 21.5913 65.7821 21.5913C65.9207 21.5913 65.9999 21.6229 66.0474 21.7655C67.8453 27.0457 69.6472 32.3259 71.453 37.6061C71.453 37.6061 71.453 37.6061 71.453 37.6734H69.9085C69.2234 37.6734 69.2234 37.6734 69.0056 37.0279C68.5344 35.6379 68.0591 34.2558 67.5958 32.8618C67.5813 32.7827 67.5362 32.7125 67.4701 32.6665C67.4041 32.6205 67.3226 32.6025 67.2433 32.6163C65.5484 32.6163 63.8522 32.6163 62.1546 32.6163C62.0645 32.6036 61.973 32.6261 61.8992 32.6792C61.8254 32.7324 61.775 32.812 61.7586 32.9015C61.2715 34.4222 60.7606 35.9349 60.2695 37.4517C60.2101 37.6259 60.1389 37.6813 59.9606 37.6774C59.2914 37.6734 58.6538 37.6814 57.9727 37.6814ZM67.081 30.9847C66.2692 28.4859 65.287 26.0781 64.6653 23.5515C64.3762 24.5534 64.1228 25.5316 63.7941 26.5177C63.3109 27.9314 62.8357 29.3452 62.3565 30.759C62.3011 30.9135 62.2773 30.9887 62.4951 30.9887C64 30.9808 65.5207 30.9847 67.0691 30.9847H67.081Z" fill="black"/>
<path d="M102.798 35.1112C103.375 35.4661 104.003 35.733 104.659 35.9032C105.785 36.2493 106.99 36.2424 108.112 35.8834C108.552 35.7261 108.941 35.4546 109.241 35.0966C109.54 34.7387 109.739 34.3073 109.817 33.847C109.894 33.3867 109.848 32.9141 109.682 32.4778C109.516 32.0415 109.236 31.6573 108.872 31.3649C108.267 30.9182 107.6 30.562 106.892 30.3075C105.867 29.9546 104.906 29.4355 104.049 28.771C103.531 28.3332 103.13 27.7731 102.882 27.1414C102.635 26.5098 102.549 25.8264 102.632 25.1531C102.715 24.4798 102.964 23.8377 103.357 23.285C103.751 22.7322 104.276 22.2862 104.885 21.9873C106.037 21.4298 107.323 21.2101 108.595 21.3536C109.475 21.405 110.337 21.6199 111.138 21.9873C111.312 22.0704 111.371 22.1457 111.292 22.3437C111.13 22.7714 110.987 23.203 110.853 23.6426C110.797 23.8129 110.75 23.8247 110.587 23.7455C109.347 23.0775 107.902 22.8981 106.536 23.2426C106.116 23.3379 105.73 23.5483 105.423 23.8503C105.115 24.1523 104.898 24.5339 104.795 24.9524C104.692 25.371 104.708 25.8098 104.841 26.2199C104.973 26.6299 105.218 26.9949 105.546 27.274C106.163 27.7603 106.856 28.1416 107.597 28.4027C108.504 28.7296 109.369 29.1616 110.175 29.6897C111.637 30.7273 112.175 32.1648 111.953 33.8994C111.874 34.6728 111.58 35.4087 111.106 36.0249C110.632 36.6411 109.996 37.1131 109.268 37.3883C107.915 37.9352 106.433 38.0809 104.999 37.808C104.127 37.6829 103.282 37.4153 102.497 37.016C102.458 37.0039 102.422 36.9834 102.391 36.9558C102.361 36.9282 102.338 36.8942 102.322 36.8563C102.306 36.8185 102.3 36.7776 102.302 36.7368C102.304 36.6959 102.315 36.656 102.334 36.62C102.493 36.1368 102.631 35.6498 102.798 35.1112Z" fill="black"/>
<path d="M125.695 37.9468C124.375 37.9778 123.09 37.5205 122.087 36.6625C121.083 35.8045 120.432 34.6063 120.258 33.2976C119.938 31.686 120.201 30.0133 120.998 28.5771C121.407 27.8524 121.983 27.2358 122.678 26.7784C123.373 26.3211 124.167 26.0362 124.994 25.9475C126.319 25.7244 127.679 25.9769 128.835 26.6604C129.506 27.0664 130.079 27.6169 130.51 28.2718C130.942 28.9267 131.222 29.6695 131.33 30.4462C131.584 31.7478 131.477 33.0937 131.021 34.339C130.717 35.2079 130.192 35.9828 129.498 36.5875C128.803 37.1922 127.964 37.606 127.061 37.7884C126.612 37.8867 126.155 37.9397 125.695 37.9468ZM122.329 31.8758C122.3 32.7297 122.48 33.5778 122.852 34.347C123.422 35.4835 124.289 36.2478 125.604 36.327C126.217 36.3745 126.83 36.234 127.362 35.9241C127.893 35.6142 128.317 35.1497 128.578 34.5925C129.063 33.7526 129.313 32.7982 129.303 31.8287C129.294 30.8591 129.024 29.9099 128.523 29.08C128.254 28.6025 127.865 28.2039 127.394 27.9239C126.923 27.6438 126.387 27.4923 125.839 27.4842C125.291 27.4762 124.75 27.6121 124.271 27.8782C123.792 28.1443 123.392 28.5313 123.109 29.0008C122.583 29.8664 122.313 30.8631 122.329 31.8758Z" fill="black"/>
<path d="M145.437 32.2956C144.169 32.2956 142.906 32.2956 141.643 32.2956C141.457 32.2956 141.381 32.3194 141.397 32.5332C141.492 33.7213 141.829 34.7549 142.807 35.4994C143.522 36.0233 144.392 36.2937 145.278 36.2677C146.328 36.3063 147.375 36.1255 148.351 35.737C148.498 35.6736 148.557 35.6895 148.593 35.8558C148.68 36.2518 148.771 36.6478 148.89 37.0439C148.941 37.2102 148.89 37.2538 148.751 37.3052C147.96 37.6217 147.128 37.823 146.28 37.9032C145.237 38.0443 144.177 37.9798 143.159 37.7131C142.273 37.4801 141.469 37.0035 140.839 36.3372C140.209 35.6709 139.778 34.8415 139.595 33.943C139.34 33.0109 139.275 32.037 139.404 31.0792C139.532 30.1213 139.852 29.1991 140.344 28.3672C141.508 26.3871 143.583 25.6307 145.741 25.9911C147.809 26.3316 148.886 27.7058 149.377 29.6344C149.558 30.4127 149.616 31.2142 149.551 32.0105C149.551 32.2323 149.468 32.3075 149.238 32.3036C147.979 32.2877 146.716 32.2956 145.437 32.2956ZM144.458 30.767C145.393 30.767 146.328 30.767 147.262 30.767C147.456 30.767 147.539 30.7314 147.504 30.5255C147.468 30.3195 147.448 30.0225 147.405 29.773C147.333 29.3135 147.15 28.8787 146.87 28.5072C146.59 28.1357 146.223 27.8388 145.801 27.643C145.38 27.4472 144.916 27.3584 144.452 27.3846C143.987 27.4107 143.537 27.551 143.14 27.793C142.086 28.4226 141.659 29.4483 141.445 30.5967C141.409 30.7987 141.548 30.7512 141.651 30.7512L144.458 30.767Z" fill="black"/>
<path d="M116.504 23.3456C116.504 24.2089 116.504 25.0405 116.504 25.8722C116.504 26.0662 116.547 26.1216 116.749 26.1216C117.593 26.1216 118.436 26.1216 119.276 26.1216C119.478 26.1216 119.533 26.177 119.525 26.3751C119.525 26.7473 119.525 27.1236 119.525 27.4958C119.525 27.7017 119.482 27.7651 119.264 27.7611C118.432 27.7611 117.597 27.7611 116.765 27.7611C116.551 27.7611 116.504 27.8126 116.504 28.0225C116.504 29.9788 116.504 31.9351 116.504 33.8915C116.476 34.4062 116.559 34.921 116.749 35.4002C116.839 35.6259 116.993 35.8208 117.191 35.9613C117.389 36.1018 117.623 36.182 117.866 36.1923C118.277 36.2346 118.693 36.2052 119.094 36.1052C119.244 36.0656 119.304 36.0814 119.312 36.2636C119.312 36.6834 119.351 37.1031 119.375 37.5229C119.375 37.6179 119.403 37.6971 119.264 37.7328C118.333 38.0365 117.334 38.0626 116.389 37.808C115.923 37.672 115.506 37.4054 115.186 37.0398C114.867 36.6742 114.659 36.2248 114.587 35.7448C114.465 35.1588 114.408 34.5612 114.417 33.9627C114.417 31.9826 114.417 30.0342 114.417 28.066C114.417 27.8324 114.357 27.769 114.124 27.777C113.692 27.8007 113.26 27.777 112.833 27.777C112.655 27.777 112.611 27.7255 112.615 27.5552C112.615 27.1592 112.615 26.7632 112.615 26.3672C112.615 26.2088 112.659 26.1573 112.821 26.1612C113.288 26.1612 113.756 26.1612 114.227 26.1612C114.373 26.1612 114.413 26.1256 114.413 25.9751C114.413 25.4048 114.413 24.8346 114.413 24.2643C114.413 24.0584 114.484 23.995 114.662 23.9475C115.272 23.7297 115.874 23.5396 116.504 23.3456Z" fill="black"/>
<path d="M135.219 28.3592C135.483 27.7133 135.889 27.1353 136.408 26.6682C136.735 26.3784 137.118 26.1586 137.533 26.0224C137.949 25.8862 138.388 25.8364 138.823 25.8762C138.997 25.8762 139.085 25.9356 139.081 26.1416C139.061 26.6564 139.081 27.1712 139.081 27.686C139.081 27.8682 139.045 27.9197 138.847 27.8959C138.434 27.8262 138.011 27.8528 137.611 27.9737C137.21 28.0946 136.843 28.3066 136.538 28.5929C136.216 28.9 135.96 29.2685 135.783 29.6766C135.606 30.0848 135.513 30.5242 135.509 30.969C135.465 32.8778 135.485 34.7866 135.477 36.6954C135.477 36.9567 135.477 37.2221 135.477 37.4874C135.477 37.622 135.433 37.6616 135.299 37.6616C134.701 37.6616 134.111 37.6616 133.501 37.6616C133.382 37.6616 133.327 37.626 133.342 37.5032C133.358 37.3805 133.342 37.3726 133.342 37.3052C133.342 33.9866 133.382 30.6641 133.299 27.3415C133.299 26.989 133.271 26.6326 133.247 26.2762C133.247 26.1297 133.279 26.0861 133.429 26.0901C133.925 26.0901 134.423 26.0901 134.919 26.0901C135.089 26.0901 135.113 26.1534 135.12 26.3C135.14 27.0009 135.188 27.682 135.219 28.3592Z" fill="black"/>
<path d="M35.2852 8.2101C35.2576 9.98844 34.5356 11.6855 33.2734 12.9385C32.4273 13.9151 31.3091 14.617 30.0617 14.9542C29.6714 15.0401 29.2733 15.0853 28.8737 15.0889C28.6598 15.0889 28.5846 15.0136 28.5727 14.7998C28.5219 13.6245 28.8048 12.4589 29.3885 11.4376C29.9525 10.375 30.7654 9.46473 31.7578 8.78473C32.7502 8.10474 33.8926 7.67521 35.0872 7.5329C35.2574 7.50518 35.2852 7.56854 35.2852 7.69922C35.2852 7.82991 35.2852 8.03981 35.2852 8.2101Z" fill="black"/>
<path d="M60.3332 13.667V10.1029C60.3332 9.99994 60.2857 9.87718 60.4679 9.85342C61.8183 9.67125 63.1766 9.54057 64.4953 10.0079C65.9012 10.5068 66.5942 11.5919 66.7051 13.0215C66.78 13.5987 66.7372 14.185 66.5793 14.7452C66.4214 15.3053 66.1517 15.8277 65.7863 16.2808C65.2149 16.9116 64.4423 17.3244 63.6003 17.449C62.5731 17.6106 61.5286 17.6319 60.4956 17.5124C60.2976 17.5124 60.3332 17.3777 60.3332 17.2589V13.667ZM61.3747 13.667C61.3747 14.6016 61.3747 15.5362 61.3747 16.4748C61.3747 16.6649 61.4223 16.7441 61.6203 16.7401C62.0163 16.7401 62.4123 16.7678 62.8083 16.7401C64.0439 16.6372 64.9983 16.1105 65.4299 14.8828C65.6696 14.1876 65.7175 13.4407 65.5685 12.7206C65.4964 12.2529 65.2893 11.8165 64.9728 11.4648C64.6562 11.1131 64.244 10.8613 63.7865 10.7405C63.1044 10.5627 62.3944 10.5183 61.6955 10.6098C61.4539 10.6098 61.3747 10.7128 61.3787 10.9662C61.3827 11.8374 61.3747 12.7443 61.3747 13.6552V13.667Z" fill="black"/>
<path d="M94.2794 16.6411C94.0166 16.9652 93.6698 17.2108 93.2769 17.3512C92.884 17.4916 92.46 17.5213 92.0513 17.4372C91.6427 17.353 91.265 17.1581 90.9595 16.8739C90.6541 16.5896 90.4326 16.2269 90.3193 15.8253C90.1373 15.313 90.0837 14.764 90.1631 14.2262C90.2425 13.6884 90.4525 13.1782 90.7747 12.7404C91.539 11.6751 93.4676 11.3781 94.3943 12.6849C94.3943 12.475 94.4378 12.2889 94.4299 12.1345C94.422 11.98 94.4893 11.9127 94.6556 11.9246C94.822 11.9365 95.1704 11.8573 95.3091 11.9681C95.4477 12.079 95.3328 12.3879 95.3328 12.6057C95.3328 13.9363 95.3328 15.263 95.3328 16.5936C95.3355 17.0141 95.3023 17.4341 95.2338 17.849C95.1789 18.3454 94.9604 18.8095 94.6126 19.168C94.2649 19.5265 93.8077 19.7591 93.3131 19.829C92.502 19.995 91.6599 19.9164 90.8935 19.6033C90.6717 19.5162 90.5806 19.4053 90.7034 19.1677C90.7786 19.0132 90.7747 18.7717 90.8935 18.6885C91.0123 18.6054 91.1786 18.8033 91.3291 18.8588C91.7578 19.0247 92.2163 19.1003 92.6756 19.0806C93.0957 19.0806 93.4986 18.9137 93.7957 18.6166C94.0927 18.3195 94.2596 17.9166 94.2596 17.4965C94.2992 17.243 94.2794 16.9698 94.2794 16.6411ZM94.2794 14.6294H94.2992C94.2992 14.4353 94.2992 14.2333 94.2992 14.0433C94.2964 13.7602 94.2089 13.4844 94.048 13.2515C93.887 13.0186 93.6601 12.8392 93.3963 12.7364C93.1315 12.618 92.8362 12.5856 92.552 12.6438C92.2678 12.7021 92.0091 12.8481 91.8123 13.0611C91.1707 13.6829 91.0202 15.0412 91.4954 15.8649C91.6423 16.147 91.8746 16.3756 92.159 16.5178C92.4435 16.66 92.7657 16.7087 93.0795 16.6569C93.3838 16.6025 93.6629 16.4527 93.8765 16.2291C94.0901 16.0056 94.227 15.72 94.2675 15.4135C94.2876 15.1631 94.2876 14.9114 94.2675 14.661L94.2794 14.6294Z" fill="black"/>
<path d="M70.1936 14.9264C69.6155 14.9264 69.0333 14.9264 68.4512 14.9264C68.2888 14.9264 68.2571 14.966 68.273 15.1323C68.372 16.2174 69.0967 16.8391 70.253 16.8114C70.675 16.8134 71.0937 16.7383 71.4886 16.5896C71.643 16.5263 71.6906 16.554 71.7381 16.7164C71.9005 17.3223 71.9084 17.3262 71.2906 17.4846C70.6839 17.6551 70.0472 17.6902 69.4254 17.5876C68.8702 17.5214 68.3549 17.2658 67.9661 16.8641C67.5773 16.4623 67.3388 15.9388 67.2909 15.3818C67.2113 14.9294 67.2225 14.4657 67.3238 14.0177C67.4251 13.5696 67.6145 13.1462 67.8809 12.7721C68.7561 11.5602 70.7916 11.4811 71.6431 12.6414C72.0678 13.2672 72.2546 14.0243 72.1697 14.7759C72.1697 14.9501 72.047 14.9303 71.9321 14.9303L70.1936 14.9264ZM69.7105 14.166H70.9857C71.0728 14.166 71.1678 14.1937 71.1797 14.0393C71.1839 13.658 71.0365 13.2907 70.7699 13.0182C70.6379 12.8832 70.4806 12.7756 70.3069 12.7014C70.1333 12.6273 69.9468 12.588 69.758 12.5859C69.3768 12.5817 69.0094 12.7292 68.7369 12.9958C68.4643 13.2624 68.3089 13.6264 68.3047 14.0076C68.3047 14.17 68.3759 14.166 68.4868 14.166H69.7105Z" fill="black"/>
<path d="M109.855 14.9263C109.272 14.9263 108.69 14.9263 108.112 14.9263C107.95 14.9263 107.914 14.962 107.93 15.1283C108.029 16.2173 108.754 16.8391 109.91 16.8114C110.333 16.8134 110.753 16.7383 111.15 16.5896C111.296 16.5302 111.352 16.55 111.395 16.7163C111.561 17.3222 111.569 17.3222 110.952 17.4846C110.363 17.651 109.746 17.6901 109.142 17.5994C108.58 17.5472 108.054 17.3 107.656 16.9007C107.257 16.5014 107.011 15.9753 106.96 15.4134C106.872 14.957 106.878 14.4875 106.978 14.0334C107.077 13.5794 107.268 13.1502 107.538 12.772C108.413 11.5602 110.453 11.4771 111.3 12.6413C111.723 13.2664 111.911 14.0213 111.831 14.7719C111.831 14.9462 111.708 14.9303 111.597 14.9303L109.855 14.9263ZM109.379 14.166H110.643C110.738 14.166 110.829 14.166 110.821 14.0274C110.773 13.077 110.128 12.4948 109.292 12.5938C108.948 12.6511 108.632 12.8182 108.391 13.0702C108.149 13.3222 107.996 13.6455 107.954 13.9917C107.922 14.1303 107.977 14.17 108.112 14.166H109.379Z" fill="black"/>
<path d="M85.0521 16.8352C84.8426 17.0948 84.575 17.3017 84.2711 17.4393C83.9671 17.5768 83.6351 17.6412 83.3017 17.6272C82.9582 17.6463 82.6179 17.5531 82.3321 17.3616C82.0463 17.1701 81.8306 16.8908 81.7177 16.5659C81.5963 16.2157 81.588 15.8361 81.6938 15.4809C81.7997 15.1256 82.0144 14.8125 82.3077 14.5858C82.885 14.1972 83.5606 13.9802 84.2561 13.9601C84.4062 13.9443 84.5575 13.9443 84.7076 13.9601C84.9531 13.9839 84.9769 13.8651 84.961 13.6631C84.956 13.3877 84.8449 13.1249 84.6509 12.9294C84.4568 12.7339 84.1949 12.6208 83.9195 12.6137C83.4132 12.5649 82.904 12.6698 82.4582 12.9147C82.2919 13.0097 82.2364 12.9859 82.177 12.8038C81.9909 12.2494 81.987 12.2573 82.5493 12.0513C83.0968 11.8545 83.681 11.7815 84.2601 11.8375C84.7289 11.8698 85.1677 12.0802 85.4865 12.4255C85.8053 12.7708 85.98 13.2249 85.9748 13.6948C86.0461 14.6848 85.9748 15.6749 86.0184 16.6689C86.0237 16.8835 86.0409 17.0977 86.0699 17.3104C86.0976 17.4807 86.0421 17.5322 85.8837 17.5124H85.7689C85.1353 17.5164 85.1353 17.5164 85.0521 16.8352ZM84.9927 15.2511C84.9927 15.1086 84.9927 14.97 84.9927 14.8314C84.9927 14.6928 84.9491 14.6769 84.8422 14.6809C84.2968 14.6509 83.7524 14.7571 83.2582 14.9898C83.0208 15.1078 82.8381 15.3128 82.7481 15.5622C82.6581 15.8115 82.6678 16.0859 82.775 16.3283C82.8801 16.5455 83.0635 16.7148 83.2883 16.8022C83.5131 16.8896 83.7627 16.8887 83.9868 16.7996C84.6719 16.6412 84.9927 16.1422 84.9927 15.2591V15.2511Z" fill="black"/>
<path d="M99.6018 16.8509C99.3886 17.1145 99.1159 17.3237 98.8061 17.4614C98.4963 17.5991 98.1583 17.6613 97.8198 17.6429C97.4899 17.6525 97.1652 17.5588 96.8912 17.3749C96.6171 17.191 96.4073 16.9261 96.2912 16.6172C96.1722 16.2897 96.1523 15.9344 96.234 15.5957C96.3157 15.2569 96.4953 14.9497 96.7505 14.7124C97.2203 14.3359 97.7876 14.101 98.3861 14.0352C98.7005 13.9871 99.0184 13.9645 99.3365 13.9679C99.483 13.9679 99.5266 13.9204 99.5226 13.7739C99.5317 13.6281 99.5113 13.482 99.4626 13.3443C99.4139 13.2067 99.3379 13.0802 99.2392 12.9726C99.1404 12.865 99.021 12.7785 98.888 12.7181C98.7551 12.6578 98.6113 12.6249 98.4653 12.6214C97.9674 12.5779 97.4676 12.6812 97.0277 12.9185C96.8852 13.0016 96.8099 13.0373 96.7387 12.8274C96.5525 12.2611 96.5406 12.273 97.1347 12.0591C97.6822 11.8629 98.2669 11.7925 98.8454 11.8532C99.3084 11.8882 99.7409 12.0972 100.056 12.438C100.371 12.7789 100.546 13.2264 100.544 13.6907C100.616 14.6451 100.544 15.5995 100.588 16.5539C100.581 16.8189 100.598 17.084 100.639 17.3459C100.675 17.5004 100.612 17.5518 100.465 17.532H100.41C100.188 17.532 99.9147 17.5954 99.7523 17.4924C99.59 17.3895 99.6771 17.0845 99.6018 16.8509ZM99.5543 15.2668C99.5543 15.1282 99.5543 14.9856 99.5543 14.847C99.5543 14.7084 99.5226 14.7084 99.4236 14.7084C98.8617 14.6739 98.3002 14.783 97.792 15.0253C97.5599 15.1423 97.3811 15.3435 97.292 15.5877C97.203 15.832 97.2104 16.101 97.3129 16.34C97.4127 16.5565 97.5903 16.7275 97.8103 16.8192C98.0304 16.9109 98.2769 16.9166 98.5009 16.835C99.2256 16.641 99.5543 16.142 99.5543 15.247V15.2668Z" fill="black"/>
<path d="M126.155 16.8351C125.944 17.0951 125.676 17.3021 125.372 17.4397C125.067 17.5772 124.734 17.6414 124.4 17.6271C124.056 17.646 123.716 17.5521 123.43 17.3599C123.144 17.1677 122.929 16.8875 122.816 16.5619C122.695 16.2112 122.688 15.8314 122.794 15.4761C122.901 15.1208 123.116 14.808 123.41 14.5818C123.987 14.1926 124.663 13.9755 125.359 13.9561C125.498 13.9403 125.639 13.9403 125.778 13.9561C126.056 13.9917 126.079 13.8492 126.056 13.6274C126.044 13.3579 125.93 13.103 125.737 12.9141C125.545 12.7252 125.288 12.6164 125.018 12.6096C124.512 12.5588 124.002 12.6638 123.557 12.9106C123.382 13.0096 123.335 12.9779 123.276 12.7958C123.089 12.2453 123.085 12.2532 123.648 12.0473C124.195 11.8512 124.78 11.7782 125.359 11.8334C125.827 11.8667 126.265 12.0773 126.584 12.4224C126.903 12.7675 127.078 13.2211 127.073 13.6907C127.145 14.6729 127.073 15.6708 127.117 16.6371C127.122 16.8609 127.139 17.0843 127.168 17.3064C127.196 17.4806 127.137 17.5281 126.978 17.5083H126.867C126.238 17.5163 126.238 17.5163 126.155 16.8351ZM126.095 15.251C126.095 15.1124 126.095 14.9738 126.095 14.8313C126.095 14.6887 126.095 14.6689 125.957 14.6729C125.396 14.6377 124.836 14.7467 124.329 14.9897C124.097 15.1089 123.919 15.3118 123.831 15.5573C123.742 15.8029 123.751 16.0727 123.854 16.3124C123.954 16.5287 124.131 16.6995 124.352 16.7905C124.572 16.8816 124.818 16.8862 125.042 16.8034C125.747 16.6411 126.095 16.1461 126.095 15.2669V15.251Z" fill="black"/>
<path d="M113.629 12.8235C113.9 12.4012 114.308 12.0855 114.785 11.9296C115.262 11.7738 115.778 11.7874 116.246 11.9681C116.607 12.1131 116.914 12.3651 117.126 12.6902C117.339 13.0152 117.446 13.3977 117.434 13.7858C117.486 14.9739 117.454 16.1619 117.466 17.35C117.466 17.4886 117.415 17.5242 117.284 17.5163C117.069 17.5044 116.853 17.5044 116.638 17.5163C116.46 17.5163 116.421 17.4648 116.425 17.2945C116.425 16.352 116.425 15.4055 116.425 14.4591C116.426 14.1793 116.395 13.9003 116.333 13.6274C116.286 13.4138 116.181 13.2168 116.032 13.057C115.882 12.8972 115.692 12.7803 115.482 12.7185C115.272 12.6567 115.049 12.6522 114.837 12.7055C114.625 12.7588 114.43 12.8679 114.274 13.0215C114.1 13.1765 113.963 13.3688 113.873 13.5841C113.783 13.7993 113.743 14.0321 113.755 14.265C113.755 15.2749 113.755 16.2847 113.755 17.2945C113.755 17.4965 113.704 17.5599 113.506 17.5361C113.308 17.5123 112.904 17.647 112.753 17.4807C112.603 17.3143 112.718 16.9975 112.714 16.748C112.714 15.2234 112.746 13.6947 112.674 12.174C112.674 11.9919 112.714 11.9325 112.888 11.9562C112.944 11.9603 112.999 11.9603 113.054 11.9562C113.609 11.9562 113.609 11.9563 113.633 12.5186L113.629 12.8235Z" fill="black"/>
<path d="M79.8406 17.6351C77.9714 17.6589 76.819 16.4471 76.8824 14.7006C76.9655 12.2849 79.1674 11.3583 81.1158 12.0315C81.2781 12.0909 81.3138 12.1622 81.2504 12.3206C81.187 12.479 81.1831 12.7562 81.0564 12.8631C80.9296 12.9701 80.7277 12.78 80.5534 12.7364C79.5832 12.5107 78.7674 12.78 78.2882 13.4928C77.5952 14.5264 77.9516 16.0907 79.0129 16.6015C79.305 16.7298 79.6206 16.796 79.9396 16.796C80.2586 16.796 80.5742 16.7298 80.8663 16.6015C81.0603 16.5302 81.1158 16.5579 81.1593 16.756C81.3019 17.3698 81.3098 17.3619 80.6841 17.5163C80.4082 17.5869 80.1253 17.6268 79.8406 17.6351Z" fill="black"/>
<path d="M72.9343 16.4551C73.3493 16.6895 73.8128 16.8251 74.2887 16.8511C74.4667 16.8574 74.6442 16.8291 74.8114 16.7679C74.9433 16.7246 75.0609 16.6463 75.1517 16.5413C75.2424 16.4362 75.3028 16.3084 75.3264 16.1717C75.35 16.0349 75.3359 15.8943 75.2857 15.7649C75.2354 15.6355 75.1509 15.5223 75.0411 15.4373C74.8623 15.2994 74.6633 15.1898 74.4511 15.1126C74.1881 15.0152 73.9327 14.8987 73.6867 14.7641C73.4076 14.6382 73.1764 14.4259 73.0273 14.1584C72.8783 13.891 72.8193 13.5826 72.8591 13.279C72.8877 12.9735 73.0088 12.684 73.2062 12.4491C73.4036 12.2142 73.668 12.045 73.964 11.9642C74.6132 11.7486 75.3196 11.7839 75.944 12.0632C76.0945 12.1266 76.1816 12.1939 76.0945 12.3761C76.0074 12.5583 76.0153 12.7721 75.8926 12.883C75.7698 12.9939 75.5916 12.7761 75.4253 12.7246C75.1318 12.6288 74.8207 12.599 74.5144 12.6375C74.3643 12.6543 74.223 12.7169 74.1096 12.8168C73.9963 12.9167 73.9164 13.049 73.8808 13.1958C73.8446 13.3433 73.8594 13.4987 73.9226 13.6367C73.9859 13.7747 74.094 13.8873 74.2293 13.9562C74.4621 14.0934 74.7058 14.2113 74.958 14.3086C75.1401 14.3878 75.3223 14.4631 75.4926 14.5581C75.7865 14.6948 76.0283 14.923 76.1818 15.2085C76.3353 15.4941 76.3922 15.8216 76.344 16.1422C76.3214 16.4703 76.1936 16.7823 75.9796 17.032C75.7656 17.2817 75.4768 17.4557 75.156 17.5282C74.3952 17.759 73.576 17.7012 72.8551 17.3659C72.7046 17.2986 72.665 17.2233 72.7324 17.0689C72.7997 16.9144 72.871 16.6412 72.9343 16.4551Z" fill="black"/>
<path d="M121.842 13.4453C121.842 14.7165 121.842 15.9877 121.842 17.2589C121.842 17.4688 121.79 17.5441 121.581 17.5203C121.371 17.4965 121.006 17.6193 120.848 17.4688C120.69 17.3183 120.8 16.9936 120.8 16.7441C120.8 14.368 120.8 11.9919 120.8 9.64754C120.8 9.39805 120.86 9.31092 121.109 9.3426C121.359 9.37429 121.664 9.24359 121.802 9.40199C121.941 9.5604 121.842 9.84554 121.842 10.0792C121.846 11.1999 121.842 12.3246 121.842 13.4453Z" fill="black"/>
<path d="M102.722 12.9859C102.843 12.6954 103.024 12.4336 103.253 12.2176C103.444 12.0516 103.67 11.9311 103.914 11.8652C104.485 11.7187 104.576 11.786 104.576 12.3562C104.576 12.4948 104.619 12.6651 104.556 12.7523C104.493 12.8394 104.303 12.776 104.16 12.7879C103.84 12.8156 103.539 12.9515 103.306 13.1732C103.074 13.3949 102.924 13.6892 102.881 14.0076C102.841 14.219 102.822 14.434 102.825 14.6492C102.825 15.5204 102.825 16.3916 102.825 17.2589C102.825 17.4252 102.825 17.5282 102.608 17.5005C102.338 17.4688 101.982 17.6193 101.816 17.445C101.649 17.2708 101.776 16.946 101.776 16.6847C101.776 15.1679 101.8 13.6512 101.732 12.1384C101.732 11.9602 101.772 11.9206 101.946 11.9167C102.635 11.9167 102.635 11.9167 102.675 12.578C102.707 12.681 102.714 12.7998 102.722 12.9859Z" fill="black"/>
<path d="M88.165 12.974C88.2599 12.716 88.4128 12.4833 88.6119 12.2938C88.811 12.1043 89.051 11.9631 89.3134 11.881L89.3688 11.8612C89.9233 11.7266 90.0144 11.79 90.0144 12.3444C90.0104 12.3826 90.0104 12.4211 90.0144 12.4592C90.0619 12.7325 89.9906 12.8236 89.6738 12.8157C88.9768 12.7959 88.462 13.3067 88.3234 14.071C88.2719 14.4887 88.256 14.91 88.2758 15.3303C88.2758 15.964 88.2758 16.6015 88.2758 17.2391C88.2758 17.4807 88.2046 17.544 87.9788 17.5203C87.8011 17.5025 87.622 17.5025 87.4442 17.5203C87.266 17.5203 87.2264 17.4688 87.2264 17.2985C87.2264 16.55 87.2264 15.8016 87.2264 15.0531C87.2264 14.0987 87.2264 13.1443 87.1829 12.1939C87.1829 11.9721 87.2383 11.9325 87.4442 11.9325C88.0858 11.9325 88.0858 11.9325 88.1254 12.586C88.1452 12.681 88.1531 12.7998 88.165 12.974Z" fill="black"/>
<path d="M87.5946 49.0827H8.98964C7.81948 49.1204 6.64842 49.0448 5.49282 48.8569C4.33859 48.6047 3.28727 48.0102 2.47621 47.1511C1.66514 46.292 1.13205 45.2082 0.946581 44.0414C0.836531 43.2157 0.783593 42.3835 0.788166 41.5505C0.788166 30.2878 0.788166 19.0252 0.788166 7.76251C0.755023 6.74157 0.845452 5.72036 1.05746 4.72112C1.35968 3.54417 2.01859 2.48953 2.94384 1.70183C3.86909 0.914126 5.01535 0.431926 6.22545 0.321383C7.27489 0.23426 8.32037 0.214475 9.36981 0.214475H165.823C167.003 0.189321 168.183 0.243554 169.356 0.376831C170.584 0.57044 171.719 1.14858 172.598 2.02811C173.477 2.90764 174.054 4.04324 174.247 5.27157C174.359 6.12492 174.412 6.985 174.405 7.84566C174.405 19.0529 174.405 30.2601 174.405 41.4673C174.441 42.516 174.349 43.5652 174.132 44.5919C173.825 45.7674 173.163 46.8195 172.236 47.6043C171.309 48.389 170.162 48.8681 168.952 48.9758C167.887 49.0629 166.821 49.0827 165.752 49.0827H87.5946ZM15.0645 24.8624C15.0916 25.713 15.1736 26.5609 15.31 27.4009C15.9233 30.9511 17.4829 34.2702 19.8246 37.0082C20.3798 37.7062 21.0397 38.314 21.7809 38.81C22.1641 39.0719 22.5967 39.253 23.0522 39.3421C23.5077 39.4313 23.9766 39.4268 24.4302 39.3288C25.1057 39.1727 25.7678 38.9635 26.4103 38.7031C27.6835 38.1554 29.09 37.9956 30.4536 38.2438C31.1884 38.4271 31.9096 38.6613 32.6119 38.9447C33.3939 39.271 34.2422 39.4067 35.087 39.3407C36.1728 39.1777 37.1638 38.6295 37.8789 37.7963C39.6778 35.9047 41.0629 33.6591 41.946 31.2026C42.0252 30.9769 42.0291 30.8858 41.7757 30.767C37.57 28.7236 36.9443 24.5615 38.1165 21.6587C38.7018 20.2967 39.7117 19.1604 40.9955 18.4193C41.146 18.3242 41.1777 18.2648 41.0589 18.1104C40.6407 17.5435 40.1354 17.0463 39.562 16.6372C38.5371 15.9037 37.3576 15.4152 36.1142 15.2092C34.8708 15.0032 33.5968 15.0853 32.3901 15.4491C31.3645 15.7462 30.3823 16.1659 29.3567 16.4669C28.9792 16.5778 28.5778 16.5778 28.2003 16.4669C27.4083 16.2531 26.6756 15.9521 25.9153 15.6749C25.0433 15.3267 24.1138 15.1454 23.1749 15.1403C21.9904 15.1721 20.8284 15.4707 19.7752 16.0137C18.7221 16.5567 17.805 17.3303 17.0921 18.2767C15.611 20.2053 15.1041 22.3834 15.0645 24.8624ZM87.6896 28.0305C87.6579 27.484 87.6144 26.9336 87.5985 26.3831C87.5985 26.1574 87.5193 26.102 87.3055 26.1099C86.9095 26.1099 86.5135 26.1099 86.0976 26.1099C85.6818 26.1099 85.6739 26.1099 85.7016 26.5059C85.7689 27.9157 85.7888 29.3295 85.7888 30.7432C85.7888 34.5239 85.7888 38.3045 85.7888 42.0851C85.7888 42.3385 85.8482 42.398 86.0937 42.39C86.6085 42.3663 87.1233 42.39 87.6381 42.39C87.852 42.39 87.8995 42.3425 87.8995 42.1326C87.8995 40.2397 87.8995 38.3494 87.8995 36.4617C87.8809 36.3604 87.8919 36.2559 87.9312 36.1607C88.0302 36.2875 88.1094 36.4063 88.1965 36.5132C88.5721 36.9517 89.0379 37.3039 89.5621 37.5458C90.0863 37.7878 90.6566 37.9137 91.234 37.9151C92.0759 37.979 92.92 37.8233 93.6836 37.463C94.4472 37.1027 95.1042 36.5503 95.5901 35.8598C96.2219 34.9729 96.6073 33.9344 96.7069 32.8501C96.897 31.2026 96.7346 29.6146 95.8634 28.1652C94.2001 25.3931 90.9567 25.4644 89.1707 26.5811C88.5893 26.9656 88.0866 27.4576 87.6896 28.0305ZM74.8706 28.0305C74.839 27.4722 74.7994 26.9098 74.7756 26.3514C74.7756 26.1732 74.7241 26.1099 74.534 26.1138C74.0667 26.1138 73.5994 26.1138 73.1321 26.1138C72.9024 26.1138 72.851 26.1732 72.8628 26.391C72.95 27.9989 72.9658 29.6107 72.9618 31.2185C72.9618 34.8592 72.9618 38.4999 72.9618 42.1405C72.9618 42.3425 72.9975 42.4177 73.2193 42.4098C73.7222 42.4098 74.2291 42.386 74.736 42.4098C74.9934 42.4098 75.0766 42.3663 75.0726 42.0851C75.0726 40.2119 75.0726 38.3427 75.0726 36.4696V36.1607C75.2706 36.3944 75.425 36.6042 75.6072 36.7825C76.361 37.514 77.3686 37.9255 78.4189 37.9309C79.2544 37.9914 80.0914 37.8359 80.8494 37.4794C81.6075 37.123 82.2611 36.5775 82.7474 35.8954C83.3817 35.0092 83.7697 33.9707 83.872 32.8857C84.101 31.4022 83.8775 29.884 83.2305 28.5295C81.6464 25.405 78.1932 25.3931 76.2844 26.6286C75.734 27.0071 75.2552 27.4804 74.8706 28.0266V28.0305ZM57.9727 37.6854C58.6538 37.6854 59.2914 37.6854 59.929 37.6854C60.1072 37.6854 60.1785 37.6339 60.2379 37.4596C60.7289 35.9429 61.2398 34.4301 61.7269 32.9094C61.7434 32.82 61.7938 32.7404 61.8676 32.6872C61.9414 32.6341 62.0329 32.6116 62.1229 32.6243C63.8205 32.6243 65.5168 32.6243 67.2117 32.6243C67.291 32.6105 67.3725 32.6285 67.4385 32.6745C67.5045 32.7205 67.5497 32.7907 67.5642 32.8698C68.0275 34.2598 68.5027 35.6419 68.974 37.0359C69.1918 37.6814 69.1918 37.6814 69.8769 37.6814H71.4213C71.4213 37.6339 71.4213 37.622 71.4213 37.6141C69.6208 32.3339 67.8189 27.0537 66.0157 21.7735C65.9682 21.6309 65.889 21.5993 65.7504 21.5993C65.0772 21.5993 64.4 21.5993 63.7268 21.5993C63.6825 21.5907 63.637 21.5912 63.5929 21.6006C63.5488 21.61 63.507 21.6282 63.4701 21.654C63.4332 21.6799 63.4018 21.7129 63.3779 21.7511C63.3539 21.7893 63.3379 21.8319 63.3308 21.8765C61.847 26.2537 60.3567 30.6271 58.8598 34.9964L57.9727 37.6854ZM102.798 35.1152C102.631 35.638 102.493 36.1409 102.314 36.628C102.295 36.664 102.284 36.7039 102.282 36.7448C102.28 36.7857 102.287 36.8265 102.302 36.8643C102.318 36.9022 102.341 36.9361 102.372 36.9637C102.402 36.9913 102.438 37.0119 102.477 37.024C103.262 37.4233 104.108 37.6909 104.98 37.816C106.413 38.089 107.895 37.9433 109.249 37.3963C109.976 37.1211 110.612 36.6491 111.086 36.0329C111.561 35.4168 111.854 34.6808 111.934 33.9074C112.155 32.1728 111.617 30.7393 110.156 29.6977C109.349 29.1696 108.484 28.7376 107.577 28.4107C106.836 28.1496 106.143 27.7683 105.526 27.2821C105.198 27.003 104.954 26.6379 104.821 26.2279C104.688 25.8178 104.673 25.3789 104.775 24.9604C104.878 24.5419 105.095 24.1603 105.403 23.8583C105.71 23.5563 106.096 23.3459 106.516 23.2506C107.89 22.9057 109.344 23.0909 110.587 23.7694C110.75 23.8486 110.797 23.8367 110.853 23.6665C110.987 23.2269 111.13 22.7952 111.292 22.3675C111.371 22.1695 111.292 22.0943 111.138 22.0111C110.337 21.6438 109.475 21.4289 108.595 21.3775C107.323 21.234 106.037 21.4537 104.885 22.0111C104.276 22.3101 103.751 22.7561 103.357 23.3089C102.964 23.8616 102.715 24.5036 102.632 25.1769C102.549 25.8502 102.635 26.5336 102.882 27.1653C103.13 27.7969 103.531 28.357 104.049 28.7948C104.906 29.4593 105.867 29.9784 106.892 30.3314C107.6 30.5859 108.267 30.9421 108.872 31.3887C109.236 31.6812 109.516 32.0653 109.682 32.5016C109.848 32.9379 109.894 33.4106 109.817 33.8709C109.739 34.3312 109.54 34.7625 109.241 35.1205C108.941 35.4784 108.552 35.75 108.112 35.9073C106.99 36.2663 105.785 36.2731 104.659 35.9271C104.001 35.7494 103.374 35.4745 102.798 35.1113V35.1152ZM125.695 37.9507C126.153 37.9434 126.61 37.8904 127.057 37.7923C127.96 37.61 128.799 37.1962 129.494 36.5915C130.188 35.9867 130.713 35.2119 131.018 34.343C131.473 33.0977 131.58 31.7517 131.326 30.4502C131.218 29.6734 130.938 28.9306 130.506 28.2757C130.075 27.6208 129.503 27.0704 128.832 26.6643C127.675 25.9808 126.315 25.7283 124.99 25.9515C124.163 26.0402 123.369 26.325 122.674 26.7824C121.979 27.2397 121.403 27.8564 120.994 28.581C120.197 30.0173 119.934 31.6899 120.254 33.3015C120.429 34.6101 121.081 35.808 122.086 36.6653C123.09 37.5226 124.375 37.9789 125.695 37.9468V37.9507ZM145.436 32.2956C146.7 32.2956 147.963 32.2956 149.23 32.2956C149.46 32.2956 149.531 32.2243 149.543 32.0026C149.608 31.2063 149.55 30.4047 149.369 29.6265C148.878 27.6979 147.785 26.3237 145.733 25.9831C143.575 25.6228 141.5 26.3791 140.336 28.3592C139.844 29.1911 139.524 30.1134 139.396 31.0712C139.267 32.0291 139.332 33.003 139.587 33.9351C139.77 34.8336 140.201 35.663 140.831 36.3293C141.461 36.9956 142.265 37.4722 143.151 37.7052C144.169 37.9718 145.229 38.0364 146.272 37.8953C147.12 37.8151 147.952 37.6137 148.743 37.2973C148.87 37.2458 148.933 37.2022 148.882 37.0359C148.763 36.6399 148.672 36.2439 148.585 35.8479C148.549 35.6815 148.49 35.6657 148.343 35.729C147.367 36.1176 146.32 36.2983 145.27 36.2597C144.384 36.2858 143.514 36.0154 142.799 35.4914C141.821 34.7469 141.484 33.6935 141.389 32.5253C141.389 32.3115 141.449 32.2837 141.635 32.2877C142.922 32.2996 144.185 32.2956 145.436 32.2956ZM116.488 23.3457C115.858 23.5398 115.256 23.7417 114.646 23.9041C114.468 23.9516 114.393 24.015 114.397 24.2209C114.417 24.7911 114.397 25.3614 114.397 25.9316C114.397 26.0821 114.357 26.1218 114.211 26.1178C113.739 26.1178 113.272 26.1178 112.805 26.1178C112.643 26.1178 112.595 26.1653 112.599 26.3237C112.599 26.7197 112.599 27.1157 112.599 27.5117C112.599 27.682 112.639 27.7375 112.817 27.7335C113.244 27.7335 113.676 27.7335 114.108 27.7335C114.341 27.7335 114.401 27.789 114.401 28.0226C114.401 30.0027 114.401 31.955 114.401 33.9193C114.392 34.5178 114.449 35.1154 114.571 35.7013C114.643 36.1814 114.851 36.6308 115.17 36.9964C115.49 37.362 115.907 37.6286 116.373 37.7646C117.318 38.0192 118.317 37.9931 119.248 37.6893C119.387 37.6537 119.367 37.5745 119.359 37.4794C119.335 37.0597 119.303 36.6399 119.296 36.2201C119.296 36.0379 119.228 36.0221 119.078 36.0617C118.677 36.1617 118.261 36.1912 117.85 36.1488C117.607 36.1386 117.373 36.0584 117.175 35.9179C116.977 35.7773 116.823 35.5825 116.733 35.3568C116.543 34.8776 116.46 34.3628 116.488 33.848C116.488 31.8917 116.488 29.9354 116.488 27.9791C116.488 27.7692 116.535 27.7137 116.749 27.7177C117.581 27.7177 118.416 27.7177 119.248 27.7177C119.466 27.7177 119.517 27.6583 119.509 27.4524C119.509 27.0801 119.509 26.7039 119.509 26.3316C119.509 26.1336 119.462 26.0782 119.26 26.0782C118.42 26.0782 117.577 26.0782 116.733 26.0782C116.531 26.0782 116.484 26.0227 116.488 25.8287C116.527 25.0406 116.504 24.209 116.504 23.3457H116.488ZM135.203 28.3592C135.172 27.682 135.136 27.0009 135.112 26.3197C135.112 26.1732 135.081 26.1059 134.91 26.1099C134.415 26.1099 133.916 26.1099 133.421 26.1099C133.271 26.1099 133.227 26.1495 133.239 26.296C133.263 26.6524 133.283 27.0088 133.291 27.3613C133.374 30.6838 133.318 34.0064 133.334 37.325C133.334 37.3923 133.334 37.4596 133.334 37.523C133.334 37.5864 133.374 37.6814 133.493 37.6814C134.091 37.6814 134.681 37.6814 135.291 37.6814C135.425 37.6814 135.473 37.6418 135.469 37.5071C135.469 37.2458 135.469 36.9804 135.469 36.7151C135.469 34.8063 135.469 32.8975 135.5 30.9888C135.505 30.544 135.598 30.1045 135.775 29.6964C135.951 29.2883 136.208 28.9198 136.53 28.6127C136.835 28.3263 137.202 28.1144 137.603 27.9935C138.003 27.8726 138.426 27.846 138.839 27.9157C139.037 27.9394 139.076 27.8879 139.073 27.7058C139.073 27.191 139.073 26.6762 139.073 26.1614C139.073 25.9554 138.989 25.9079 138.815 25.896C138.38 25.8562 137.941 25.9059 137.525 26.0422C137.11 26.1784 136.727 26.3982 136.399 26.688C135.886 27.1502 135.483 27.7212 135.219 28.3592H135.203ZM35.285 8.21001C35.285 8.03973 35.285 7.87339 35.285 7.7031C35.285 7.53282 35.2573 7.50906 35.087 7.53678C33.8914 7.67746 32.7477 8.10581 31.7539 8.78516C30.76 9.4645 29.9456 10.3746 29.3804 11.4375C28.7967 12.4588 28.5139 13.6244 28.5646 14.7997C28.5646 15.0135 28.6518 15.0927 28.8656 15.0888C29.2652 15.0852 29.6634 15.0401 30.0537 14.9541C31.301 14.6169 32.4193 13.915 33.2653 12.9384C34.5304 11.6867 35.2554 9.98948 35.285 8.21001ZM60.3329 13.6671V17.2589C60.3329 17.3777 60.2973 17.5005 60.4953 17.5124C61.5283 17.6319 62.5728 17.6106 63.6001 17.449C64.442 17.3245 65.2147 16.9116 65.7861 16.2808C66.1514 15.8277 66.4211 15.3054 66.579 14.7452C66.7369 14.1851 66.7797 13.5987 66.7048 13.0216C66.5939 11.5722 65.9128 10.5069 64.495 10.0079C63.1763 9.54061 61.818 9.67129 60.4676 9.85346C60.2854 9.87722 60.3329 9.99999 60.3329 10.103V13.6671ZM94.2793 16.653C94.2793 16.9699 94.2793 17.2431 94.2793 17.5124C94.2793 17.9325 94.1124 18.3354 93.8154 18.6325C93.5183 18.9296 93.1154 19.0964 92.6953 19.0964C92.2359 19.1161 91.7775 19.0406 91.3488 18.8747C91.1983 18.8192 91.028 18.6173 90.9132 18.7044C90.7983 18.7915 90.7984 19.0291 90.7231 19.1836C90.6003 19.4212 90.6914 19.5321 90.9132 19.6192C91.6796 19.9323 92.5217 20.0108 93.3328 19.8449C93.8274 19.7749 94.2846 19.5424 94.6323 19.1839C94.9801 18.8254 95.1986 18.3613 95.2535 17.8648C95.322 17.4499 95.3552 17.03 95.3525 16.6095C95.3525 15.2789 95.3525 13.9522 95.3525 12.6216C95.3525 12.4038 95.4753 12.1028 95.3287 11.984C95.1822 11.8652 94.8971 11.9563 94.6753 11.9405C94.4536 11.9246 94.4377 11.9721 94.4496 12.1503C94.4615 12.3285 94.4258 12.4909 94.4139 12.7008C93.4873 11.394 91.5587 11.691 90.7944 12.7563C90.4722 13.1941 90.2622 13.7043 90.1828 14.2421C90.1034 14.7799 90.157 15.3289 90.339 15.8412C90.4523 16.2428 90.6738 16.6055 90.9792 16.8897C91.2847 17.174 91.6623 17.3688 92.071 17.453C92.4797 17.5372 92.9036 17.5075 93.2966 17.3671C93.6895 17.2267 94.0363 16.9811 94.2991 16.657L94.2793 16.653ZM70.1937 14.9264H71.9362C72.051 14.9264 72.1619 14.9462 72.1738 14.772C72.2586 14.0204 72.0718 13.2633 71.6471 12.6375C70.7956 11.4771 68.7601 11.5563 67.8849 12.7681C67.6185 13.1423 67.4291 13.5657 67.3279 14.0137C67.2265 14.4618 67.2153 14.9255 67.2949 15.3779C67.3428 15.9349 67.5813 16.4584 67.9701 16.8601C68.3589 17.2619 68.8742 17.5174 69.4294 17.5837C70.0512 17.6863 70.6879 17.6511 71.2946 17.4807C71.9124 17.3223 71.9045 17.3183 71.7421 16.7124C71.6946 16.5501 71.6471 16.5223 71.4926 16.5857C71.0977 16.7343 70.679 16.8095 70.2571 16.8075C69.0967 16.8352 68.372 16.2135 68.277 15.1284C68.277 14.9621 68.277 14.9185 68.4552 14.9224C69.0492 14.9343 69.6314 14.9264 70.1937 14.9264ZM109.839 14.9264H111.581C111.692 14.9264 111.803 14.9264 111.815 14.768C111.895 14.0174 111.707 13.2625 111.284 12.6375C110.437 11.4732 108.397 11.5563 107.522 12.7681C107.252 13.1463 107.061 13.5755 106.962 14.0295C106.863 14.4836 106.856 14.9531 106.944 15.4096C106.995 15.9714 107.241 16.4976 107.64 16.8968C108.038 17.2961 108.564 17.5433 109.126 17.5955C109.73 17.6862 110.347 17.6471 110.936 17.4807C111.553 17.3183 111.546 17.3183 111.379 16.7124C111.336 16.5461 111.28 16.5263 111.134 16.5857C110.737 16.7344 110.317 16.8095 109.894 16.8075C108.738 16.8352 108.013 16.2135 107.914 15.1244C107.914 14.9581 107.934 14.9185 108.096 14.9224C108.69 14.9343 109.272 14.9264 109.855 14.9264H109.839ZM85.0363 16.8352C85.1195 17.5163 85.1195 17.5164 85.7492 17.5164H85.864C86.0224 17.5164 86.0778 17.4847 86.0501 17.3144C86.0212 17.1016 86.004 16.8875 85.9986 16.6728C85.9551 15.6788 86.0264 14.6928 85.9551 13.6988C85.9602 13.2288 85.7855 12.7747 85.4667 12.4294C85.1479 12.0841 84.7092 11.8738 84.2403 11.8415C83.6613 11.7854 83.077 11.8585 82.5296 12.0553C81.9672 12.2612 81.9712 12.2533 82.1573 12.8077C82.2167 12.9899 82.2721 13.0137 82.4385 12.9186C82.8842 12.6737 83.3935 12.5688 83.8998 12.6177C84.1751 12.6248 84.4371 12.7378 84.6311 12.9333C84.8252 13.1288 84.9363 13.3917 84.9413 13.6671C84.9413 13.869 84.9413 13.9879 84.6878 13.9641C84.5378 13.9483 84.3865 13.9483 84.2364 13.9641C83.5408 13.9842 82.8652 14.2012 82.288 14.5898C81.9947 14.8165 81.78 15.1296 81.6741 15.4848C81.5682 15.8401 81.5766 16.2196 81.6979 16.5699C81.8109 16.8948 82.0266 17.1741 82.3124 17.3656C82.5982 17.557 82.9385 17.6503 83.282 17.6312C83.6189 17.6479 83.9551 17.5844 84.2628 17.446C84.5705 17.3077 84.841 17.0983 85.0522 16.8352H85.0363ZM99.5859 16.8352C99.6611 17.0688 99.5859 17.3698 99.7245 17.4609C99.8631 17.552 100.16 17.4926 100.382 17.5005H100.437C100.584 17.5005 100.647 17.4688 100.612 17.3144C100.57 17.0525 100.553 16.7874 100.56 16.5224C100.521 15.568 100.588 14.6135 100.517 13.6592C100.518 13.1949 100.343 12.7474 100.028 12.4065C99.7131 12.0656 99.2806 11.8567 98.8176 11.8217C98.2392 11.761 97.6544 11.8313 97.1069 12.0276C96.5247 12.2414 96.5366 12.2295 96.7108 12.7958C96.7821 13.0057 96.8574 12.9701 96.9999 12.8869C97.4398 12.6496 97.9396 12.5464 98.4375 12.5899C98.5835 12.5934 98.7273 12.6262 98.8602 12.6866C98.9932 12.7469 99.1127 12.8335 99.2114 12.9411C99.3101 13.0487 99.3861 13.1751 99.4348 13.3128C99.4835 13.4505 99.5039 13.5966 99.4948 13.7423C99.4948 13.8889 99.4552 13.9364 99.3087 13.9364C98.9906 13.933 98.6727 13.9555 98.3583 14.0037C97.7598 14.0694 97.1925 14.3043 96.7227 14.6809C96.4675 14.9182 96.2879 15.2254 96.2062 15.5641C96.1245 15.9029 96.1444 16.2582 96.2634 16.5857C96.3795 16.8946 96.5893 17.1595 96.8634 17.3434C97.1374 17.5273 97.4621 17.621 97.792 17.6114C98.1324 17.6381 98.4742 17.5829 98.7891 17.4507C99.1039 17.3184 99.3825 17.1128 99.6018 16.8511L99.5859 16.8352ZM126.119 16.8352C126.202 17.5163 126.202 17.5164 126.832 17.5164H126.943C127.101 17.5164 127.16 17.4886 127.133 17.3144C127.104 17.0924 127.087 16.869 127.081 16.6451C127.038 15.663 127.109 14.665 127.038 13.6988C127.042 13.2291 126.867 12.7755 126.548 12.4304C126.23 12.0853 125.791 11.8747 125.323 11.8415C124.744 11.7862 124.16 11.8592 123.612 12.0553C123.05 12.2612 123.054 12.2533 123.24 12.8038C123.299 12.9859 123.347 13.0176 123.521 12.9186C123.966 12.6718 124.476 12.5668 124.982 12.6177C125.252 12.6244 125.509 12.7332 125.702 12.9221C125.894 13.111 126.008 13.3659 126.02 13.6354C126.044 13.8572 126.02 13.9997 125.743 13.9641C125.603 13.9483 125.462 13.9483 125.323 13.9641C124.627 13.9835 123.951 14.2006 123.374 14.5898C123.081 14.816 122.865 15.1288 122.758 15.4841C122.652 15.8394 122.66 16.2192 122.78 16.5699C122.893 16.8955 123.108 17.1757 123.394 17.3679C123.68 17.5602 124.021 17.654 124.365 17.6352C124.705 17.6542 125.045 17.5916 125.357 17.4524C125.668 17.3132 125.942 17.1016 126.155 16.8352H126.119ZM113.593 12.8236V12.5028C113.569 11.9405 113.569 11.9405 113.015 11.9405C112.959 11.9445 112.904 11.9445 112.848 11.9405C112.674 11.9167 112.623 11.9761 112.635 12.1583C112.706 13.679 112.662 15.2076 112.674 16.7322C112.674 16.9817 112.587 17.3183 112.714 17.4649C112.841 17.6114 113.209 17.4926 113.466 17.5203C113.724 17.548 113.72 17.4807 113.716 17.2787C113.716 16.2689 113.716 15.2591 113.716 14.2492C113.708 14.0193 113.752 13.7906 113.844 13.5797C113.936 13.3687 114.073 13.1808 114.246 13.0295C114.402 12.8759 114.597 12.7667 114.809 12.7134C115.021 12.6602 115.244 12.6647 115.454 12.7265C115.664 12.7883 115.854 12.9051 116.004 13.065C116.153 13.2248 116.258 13.4217 116.306 13.6354C116.368 13.9082 116.398 14.1873 116.397 14.467C116.397 15.4135 116.397 16.36 116.397 17.3025C116.397 17.4728 116.432 17.5361 116.611 17.5243C116.826 17.5124 117.041 17.5124 117.256 17.5243C117.387 17.5243 117.438 17.4965 117.438 17.3579C117.438 16.1699 117.438 14.9819 117.407 13.7938C117.418 13.4056 117.311 13.0232 117.098 12.6981C116.886 12.3731 116.579 12.121 116.219 11.9761C115.755 11.8017 115.245 11.7907 114.775 11.9448C114.304 12.0988 113.9 12.4088 113.629 12.8236H113.593ZM79.805 17.6352C80.0895 17.6281 80.3724 17.5896 80.6485 17.5203C81.2742 17.3659 81.2663 17.3738 81.1237 16.76C81.0801 16.5619 81.0247 16.5342 80.8307 16.6055C80.5385 16.7338 80.223 16.8 79.904 16.8C79.585 16.8 79.2694 16.7338 78.9773 16.6055C77.916 16.0946 77.5596 14.5304 78.2526 13.4968C78.7318 12.784 79.5476 12.5147 80.5178 12.7404C80.692 12.784 80.9138 12.9701 81.0208 12.8671C81.1277 12.7642 81.1435 12.5068 81.2148 12.3246C81.2861 12.1424 81.2425 12.0949 81.0801 12.0355C79.1317 11.3623 76.9299 12.2889 76.8467 14.7046C76.819 16.4471 77.9714 17.6589 79.8406 17.6352H79.805ZM72.8985 16.4471C72.8351 16.6491 72.7836 16.8431 72.7044 17.0372C72.6252 17.2312 72.6767 17.2669 72.8272 17.3342C73.5481 17.6695 74.3672 17.7273 75.1281 17.4965C75.4488 17.424 75.7377 17.25 75.9517 17.0003C76.1657 16.7506 76.2935 16.4386 76.3161 16.1105C76.3643 15.7899 76.3074 15.4624 76.1539 15.1768C76.0004 14.8913 75.7586 14.6631 75.4647 14.5264C75.2944 14.4314 75.1122 14.3562 74.93 14.277C74.6779 14.1796 74.4342 14.0617 74.2014 13.9245C74.066 13.8556 73.958 13.743 73.8947 13.605C73.8314 13.467 73.8167 13.3116 73.8529 13.1641C73.8885 13.0173 73.9684 12.885 74.0817 12.7851C74.1951 12.6853 74.3364 12.6226 74.4865 12.6058C74.7928 12.5673 75.1039 12.5971 75.3973 12.6929C75.5637 12.7444 75.7379 12.9463 75.8646 12.8513C75.9914 12.7562 75.9874 12.5107 76.0666 12.3444C76.1458 12.1781 76.0666 12.0949 75.9161 12.0315C75.2917 11.7522 74.5852 11.7169 73.936 11.9325C73.64 12.0133 73.3757 12.1825 73.1783 12.4174C72.9809 12.6523 72.8598 12.9418 72.8312 13.2473C72.7914 13.5509 72.8503 13.8593 72.9994 14.1267C73.1485 14.3942 73.3797 14.6065 73.6588 14.7324C73.9048 14.867 74.1602 14.9835 74.4231 15.0809C74.6353 15.1581 74.8344 15.2677 75.0132 15.4056C75.1229 15.4906 75.2075 15.6038 75.2578 15.7332C75.308 15.8626 75.3221 16.0032 75.2985 16.14C75.2749 16.2768 75.2145 16.4045 75.1237 16.5095C75.033 16.6146 74.9154 16.6929 74.7835 16.7362C74.6163 16.7974 74.4388 16.8257 74.2608 16.8194C73.7968 16.7989 73.3434 16.6744 72.9341 16.455L72.8985 16.4471ZM121.806 13.4374C121.806 12.3167 121.806 11.192 121.806 10.0713C121.806 9.83761 121.885 9.5327 121.767 9.39409C121.648 9.25549 121.311 9.36636 121.074 9.33468C120.836 9.303 120.765 9.39013 120.765 9.63962C120.765 12.0157 120.765 14.372 120.765 16.7362C120.765 16.9857 120.658 17.3144 120.812 17.4609C120.967 17.6074 121.295 17.4847 121.545 17.5124C121.794 17.5401 121.806 17.4609 121.806 17.251C121.838 15.9877 121.842 14.7165 121.842 13.4453L121.806 13.4374ZM102.687 12.978C102.687 12.7919 102.687 12.6889 102.687 12.582C102.647 11.9127 102.647 11.9167 101.958 11.9207C101.784 11.9207 101.736 11.9642 101.744 12.1424C101.812 13.6552 101.776 15.1719 101.788 16.6887C101.788 16.95 101.697 17.2985 101.827 17.449C101.958 17.5995 102.338 17.4728 102.619 17.5045C102.825 17.5322 102.837 17.4292 102.837 17.2629C102.837 16.3956 102.837 15.5244 102.837 14.6532C102.834 14.438 102.853 14.223 102.893 14.0116C102.936 13.6932 103.086 13.3989 103.318 13.1772C103.551 12.9555 103.852 12.8196 104.172 12.7919C104.302 12.7919 104.485 12.879 104.568 12.7563C104.651 12.6335 104.588 12.483 104.588 12.3602C104.588 11.79 104.496 11.7227 103.926 11.8692C103.682 11.9351 103.456 12.0556 103.265 12.2216C103.032 12.4353 102.847 12.6957 102.722 12.9859L102.687 12.978ZM88.1292 12.978C88.1292 12.8038 88.1292 12.6968 88.1015 12.582C88.0619 11.9325 88.0619 11.9405 87.4203 11.9286C87.2144 11.9286 87.155 11.9682 87.159 12.19C87.1867 13.1404 87.1946 14.0948 87.2025 15.0492C87.2025 15.7976 87.2025 16.5461 87.2025 17.2946C87.2025 17.4649 87.2421 17.5322 87.4203 17.5164C87.5981 17.4985 87.7772 17.4985 87.9549 17.5164C88.1807 17.5401 88.2599 17.4767 88.252 17.2352C88.252 16.5976 88.252 15.96 88.252 15.3264C88.2321 14.906 88.248 14.4847 88.2995 14.0671C88.4381 13.3028 88.9529 12.7919 89.6499 12.8117C89.9667 12.8117 90.0459 12.7285 89.9905 12.4553C89.9865 12.4171 89.9865 12.3786 89.9905 12.3404C89.9905 11.786 89.8994 11.7226 89.345 11.8573L89.2895 11.8771C89.0311 11.9626 88.7956 12.1059 88.6007 12.2959C88.4059 12.486 88.2568 12.7179 88.1648 12.9741L88.1292 12.978Z" fill="white"/>
<path d="M94.5962 31.8482C94.6409 32.9412 94.3402 34.0206 93.7368 34.9331C93.4049 35.4277 92.9343 35.8133 92.3841 36.0415C91.8339 36.2698 91.2285 36.3306 90.644 36.2162C90.069 36.1433 89.5259 35.911 89.076 35.5457C88.626 35.1805 88.2871 34.6967 88.0976 34.149C87.9608 33.8104 87.8895 33.4489 87.8877 33.0837C87.8421 32.2521 87.858 31.4182 87.9352 30.5888C87.9978 30.0083 88.2104 29.4541 88.552 28.9806C88.8936 28.5071 89.3525 28.1306 89.8836 27.888C90.6055 27.5419 91.4336 27.4893 92.1935 27.7411C92.9535 27.993 93.5862 28.5297 93.9586 29.2385C94.3935 30.0385 94.6132 30.9377 94.5962 31.8482Z" fill="white"/>
<path d="M75.0647 32.2282C75.0096 31.506 75.0644 30.7797 75.2271 30.0739C75.3839 29.4631 75.7116 28.9096 76.1717 28.4782C76.6318 28.0469 77.2052 27.7556 77.8249 27.6384C78.4506 27.5054 79.1026 27.5776 79.684 27.8444C80.2654 28.1112 80.7453 28.5584 81.0524 29.1195C81.5733 29.9938 81.8393 30.9963 81.8204 32.0138C81.8015 33.0313 81.4985 34.0233 80.9455 34.8776C80.6472 35.3735 80.2069 35.7684 79.6816 36.0113C79.1563 36.2542 78.5702 36.3338 77.9992 36.2399C77.3875 36.1942 76.8028 35.9698 76.3177 35.5945C75.8326 35.2193 75.4685 34.7097 75.2706 34.1291C75.0839 33.5139 75.014 32.8692 75.0647 32.2282Z" fill="white"/>
<path d="M67.0693 30.9848C65.5209 30.9848 64.0002 30.9848 62.4835 30.9848C62.2657 30.9848 62.2894 30.9095 62.3449 30.7551C62.824 29.3413 63.2993 27.9276 63.7824 26.5138C64.1111 25.5436 64.3645 24.5337 64.6536 23.5476C65.2754 26.0781 66.2575 28.4859 67.0693 30.9848Z" fill="white"/>
<path d="M122.329 31.8758C122.315 30.8592 122.589 29.8595 123.121 28.9928C123.404 28.5234 123.804 28.1363 124.283 27.8702C124.762 27.6041 125.303 27.4683 125.85 27.4763C126.398 27.4843 126.935 27.6359 127.405 27.9159C127.876 28.1959 128.266 28.5946 128.534 29.072C129.036 29.902 129.305 30.8512 129.315 31.8208C129.325 32.7903 129.074 33.7447 128.59 34.5846C128.329 35.1418 127.905 35.6062 127.374 35.9161C126.842 36.226 126.229 36.3666 125.616 36.3191C124.301 36.2478 123.434 35.4835 122.864 34.339C122.489 33.5733 122.305 32.728 122.329 31.8758Z" fill="white"/>
<path d="M144.474 30.767H141.666C141.563 30.767 141.425 30.8145 141.461 30.6125C141.674 29.4641 142.102 28.4384 143.155 27.8087C143.553 27.5667 144.003 27.4265 144.468 27.4003C144.932 27.3742 145.395 27.463 145.817 27.6588C146.239 27.8546 146.606 28.1514 146.886 28.5229C147.165 28.8945 147.349 29.3293 147.421 29.7888C147.464 30.0383 147.476 30.2917 147.52 30.5412C147.563 30.7907 147.472 30.7867 147.278 30.7828C146.343 30.763 145.409 30.767 144.474 30.767Z" fill="white"/>
<path d="M61.3745 13.6553C61.3745 12.7444 61.3745 11.8376 61.3745 10.9307C61.3745 10.6772 61.4498 10.5901 61.6913 10.5743C62.3902 10.4828 63.1002 10.5271 63.7823 10.7049C64.2398 10.8258 64.6521 11.0775 64.9686 11.4292C65.2852 11.7809 65.4922 12.2174 65.5644 12.685C65.7133 13.4051 65.6655 14.1521 65.4258 14.8472C64.9941 16.0749 64.0397 16.6016 62.8041 16.7046C62.4081 16.7402 62.0121 16.7046 61.6161 16.7046C61.4181 16.7046 61.3666 16.6293 61.3706 16.4392C61.3785 15.5244 61.3745 14.5899 61.3745 13.6553Z" fill="white"/>
<path d="M94.2674 14.6611C94.2897 14.9247 94.2897 15.1896 94.2674 15.4531C94.2269 15.7596 94.09 16.0453 93.8764 16.2688C93.6628 16.4923 93.3837 16.6422 93.0794 16.6966C92.7656 16.7484 92.4434 16.6997 92.159 16.5575C91.8745 16.4152 91.6422 16.1867 91.4953 15.9046C91.0241 15.073 91.1706 13.7226 91.8122 13.1008C92.009 12.8877 92.2677 12.7418 92.5519 12.6835C92.8361 12.6253 93.1314 12.6576 93.3962 12.7761C93.66 12.8789 93.887 13.0583 94.0479 13.2912C94.2088 13.5241 94.2963 13.7998 94.2991 14.0829C94.2991 14.277 94.2991 14.479 94.2991 14.669L94.2674 14.6611Z" fill="white"/>
<path d="M69.7265 14.1661H68.4909C68.38 14.1661 68.2929 14.1661 68.3088 14.0077C68.313 13.6264 68.4684 13.2625 68.741 12.9959C69.0136 12.7292 69.3809 12.5818 69.7621 12.586C70.1434 12.5902 70.5074 12.7457 70.774 13.0183C71.0406 13.2908 71.188 13.6581 71.1838 14.0394C71.1838 14.1938 71.0769 14.1622 70.9898 14.1661H69.7265Z" fill="white"/>
<path d="M109.399 14.166H108.132C107.997 14.166 107.942 14.1303 107.974 13.9917C108.016 13.6454 108.169 13.3221 108.41 13.0702C108.652 12.8182 108.968 12.6511 109.312 12.5938C110.148 12.4948 110.793 13.0769 110.841 14.0274C110.841 14.1739 110.758 14.166 110.662 14.166H109.399Z" fill="white"/>
<path d="M84.993 15.2589C84.993 16.142 84.6723 16.6212 83.9673 16.8073C83.7432 16.8965 83.4936 16.8974 83.2688 16.81C83.0439 16.7226 82.8606 16.5532 82.7555 16.3361C82.6483 16.0937 82.6386 15.8193 82.7286 15.5699C82.8186 15.3206 83.0013 15.1156 83.2387 14.9975C83.7329 14.7649 84.2773 14.6587 84.8227 14.6887C84.9297 14.6887 84.9772 14.7283 84.9732 14.8392C84.9693 14.95 84.993 15.1164 84.993 15.2589Z" fill="white"/>
<path d="M99.5544 15.2471C99.5544 16.1421 99.2257 16.6332 98.5128 16.8312C98.2888 16.9127 98.0423 16.9071 97.8223 16.8154C97.6022 16.7237 97.4246 16.5527 97.3248 16.3362C97.2224 16.0972 97.2149 15.8282 97.304 15.5839C97.393 15.3396 97.5718 15.1385 97.8039 15.0214C98.3121 14.7791 98.8736 14.6701 99.4356 14.7046C99.5346 14.7046 99.5662 14.7521 99.5662 14.8432C99.5662 14.9343 99.5544 15.1085 99.5544 15.2471Z" fill="white"/>
<path d="M126.095 15.267C126.095 16.1462 125.747 16.6531 125.034 16.8194C124.81 16.9021 124.564 16.8976 124.344 16.8065C124.123 16.7155 123.946 16.5447 123.846 16.3283C123.743 16.0887 123.734 15.8188 123.823 15.5733C123.911 15.3278 124.089 15.1249 124.321 15.0056C124.828 14.7627 125.388 14.6536 125.949 14.6888C126.067 14.6888 126.087 14.7522 126.087 14.8472C126.087 14.9423 126.095 15.1284 126.095 15.267Z" fill="white"/>
</svg>
