<svg width="296" height="46" viewBox="0 0 296 46" fill="none" xmlns="http://www.w3.org/2000/svg">
<path d="M11.7852 45.114H6.38753C4.68735 45.1025 3.0609 44.4182 1.86387 43.2108C0.666842 42.0034 -0.0033658 40.3711 -0.000186017 38.6708V5.35413C-0.00966002 5.19788 0.0144124 5.04141 0.070423 4.89523C0.126434 4.74906 0.213082 4.61656 0.324543 4.50665C0.514916 4.31886 0.770015 4.21116 1.03737 4.20569C1.76208 4.20569 2.12641 4.6017 2.12641 5.35413V38.6708C2.11633 39.2394 2.22287 39.8041 2.43946 40.3299C2.65605 40.8557 2.9781 41.3315 3.38573 41.7281C3.77389 42.1311 4.24047 42.4505 4.75673 42.6664C5.27298 42.8823 5.82798 42.9902 6.38753 42.9834H11.7852C11.9334 42.963 12.0843 42.9771 12.226 43.0249C12.3678 43.0726 12.4965 43.1526 12.6021 43.2586C12.7076 43.3645 12.7872 43.4936 12.8344 43.6355C12.8816 43.7774 12.8953 43.9283 12.8742 44.0764C12.866 44.3579 12.7469 44.6248 12.543 44.8191C12.3391 45.0134 12.0668 45.1193 11.7852 45.114Z" fill="#DBB777"/>
<path d="M30.7942 34.3543H28.1171V44.021C28.1222 44.173 28.0955 44.3243 28.0389 44.4654C27.9824 44.6066 27.8971 44.7344 27.7884 44.8408C27.6903 44.945 27.5719 45.0279 27.4404 45.0844C27.3089 45.141 27.1672 45.1699 27.0241 45.1695C26.3351 45.1695 25.9866 44.7735 25.9866 44.021V34.3543H17.3653V44.021C17.372 44.1691 17.346 44.3168 17.2892 44.4537C17.2324 44.5905 17.1462 44.7132 17.0366 44.8131C16.8312 45.0097 16.5567 45.1177 16.2723 45.114C15.5833 45.114 15.2348 44.7497 15.2348 44.021V34.3543H12.5062C11.7776 34.3543 11.4132 34.0098 11.4132 33.3167C11.3921 33.1683 11.4058 33.0169 11.4532 32.8747C11.5006 32.7324 11.5805 32.6031 11.6866 32.4971C11.7926 32.391 11.9219 32.3111 12.0642 32.2637C12.2064 32.2162 12.3578 32.2026 12.5062 32.2237H15.2348V10.7598C15.2348 8.7612 15.8816 7.19562 17.1753 6.06302C18.4302 4.94691 20.0581 4.34209 21.7373 4.36808C23.3997 4.33702 25.0108 4.94351 26.24 6.06302C27.4994 7.19034 28.1277 8.75592 28.1251 10.7598V32.2237H30.7942C31.4872 32.2237 31.8318 32.5524 31.8318 33.2059C31.8341 33.4934 31.7376 33.773 31.5585 33.9979C31.4695 34.1148 31.3534 34.2083 31.2203 34.2704C31.0872 34.3324 30.9409 34.3612 30.7942 34.3543ZM25.9866 32.2237V10.7598C26.0205 10.1763 25.9256 9.59245 25.7087 9.04973C25.4917 8.507 25.158 8.01867 24.7312 7.61936C23.9093 6.87799 22.8361 6.47728 21.7294 6.49863C20.6061 6.48393 19.5165 6.88282 18.6682 7.61936C18.2276 8.0105 17.8809 8.49602 17.6539 9.03975C17.427 9.58349 17.3256 10.1714 17.3574 10.7598V32.2237H25.9866Z" fill="#DBB777"/>
<path d="M68.2691 34.3543H54.7769V44.021C54.7769 44.7853 54.4126 45.1695 53.6839 45.1695C53.4175 45.165 53.1633 45.0571 52.975 44.8685C52.8629 44.7589 52.7755 44.6266 52.7188 44.4804C52.6621 44.3342 52.6374 44.1776 52.6463 44.021V34.3543H50.199C50.0424 34.3635 49.8857 34.339 49.7395 34.2822C49.5932 34.2255 49.4609 34.138 49.3515 34.0256C49.1629 33.8374 49.055 33.5832 49.0505 33.3167C49.0505 32.5881 49.4465 32.2237 50.199 32.2237H52.6543V10.7597C52.6543 8.76119 53.3011 7.19562 54.5947 6.06302C55.8487 4.94783 57.475 4.34308 59.1529 4.36808C60.8178 4.33539 62.432 4.94195 63.6635 6.06302C64.9228 7.19034 65.5512 8.75591 65.5485 10.7597C65.5697 10.9082 65.556 11.0596 65.5086 11.2018C65.4611 11.3441 65.3812 11.4734 65.2752 11.5794C65.1691 11.6854 65.0399 11.7654 64.8976 11.8128C64.7553 11.8602 64.604 11.8739 64.4555 11.8528C63.7664 11.8528 63.4179 11.4884 63.4179 10.7597C63.4511 10.1763 63.3558 9.59278 63.1389 9.05018C62.922 8.50759 62.5887 8.01917 62.1626 7.61935C61.3397 6.87704 60.2648 6.47626 59.1568 6.49863C58.0248 6.47501 56.9248 6.87466 56.0719 7.61935C55.6387 8.01508 55.2989 8.50209 55.077 9.0452C54.8551 9.58831 54.7567 10.1739 54.7888 10.7597V32.2237H68.281C69.0453 32.2237 69.4255 32.5881 69.4255 33.3167C69.421 33.5832 69.3131 33.8374 69.1245 34.0256C69.0147 34.1397 68.8812 34.2283 68.7334 34.2851C68.5856 34.3419 68.4271 34.3655 68.2691 34.3543Z" fill="#DBB777"/>
<path d="M74.3833 44.021C74.4045 44.1695 74.3908 44.3208 74.3434 44.4631C74.2959 44.6054 74.216 44.7346 74.11 44.8407C74.0039 44.9467 73.8747 45.0266 73.7324 45.0741C73.5901 45.1215 73.4388 45.1352 73.2903 45.114C72.6013 45.114 72.2528 44.7497 72.2528 44.021V5.35413C72.2438 5.19758 72.2685 5.04094 72.3252 4.89475C72.3819 4.74856 72.4693 4.61621 72.5815 4.50665C72.7706 4.31945 73.0243 4.21176 73.2903 4.20569C74.019 4.20569 74.3833 4.6017 74.3833 5.35413V44.021Z" fill="#DBB777"/>
<path d="M100.097 41.1182C98.8606 42.395 97.3761 43.4051 95.7347 44.0862C94.0932 44.7673 92.3297 45.1049 90.5528 45.0784C88.8008 45.0927 87.0647 44.7461 85.4527 44.06C83.8407 43.3739 82.3872 42.363 81.183 41.0905C78.5429 38.4319 77.2229 35.3562 77.2229 31.8634C77.2295 29.1119 78.0462 26.4233 79.5713 24.1331C81.0445 21.787 83.2827 20.0216 85.9075 19.1354C83.3968 17.5699 82.1414 15.2941 82.1414 12.3081C82.1353 11.2606 82.3452 10.223 82.7581 9.26017C83.171 8.29738 83.778 7.43008 84.5413 6.71246C85.2694 5.95583 86.1436 5.35506 87.111 4.94661C88.0783 4.53816 89.1186 4.33054 90.1686 4.33637C91.6464 4.28447 93.1074 4.6628 94.3743 5.42541C95.5029 6.15804 96.0692 6.8471 96.0692 7.50449C96.0692 8.16187 95.796 8.43116 95.2495 8.43116C95.0929 8.42521 94.9393 8.38696 94.7982 8.31881C94.6572 8.25067 94.5317 8.15409 94.4297 8.03515C93.8978 7.48891 93.2598 7.05716 92.555 6.76637C91.8502 6.47559 91.0933 6.33191 90.331 6.34417C89.5298 6.34829 88.7382 6.51786 88.0056 6.84223C87.273 7.1666 86.6154 7.63879 86.0738 8.2292C85.4908 8.78089 85.0256 9.445 84.7064 10.1815C84.3872 10.9179 84.2206 11.7114 84.2165 12.5141C84.2165 13.9001 84.7894 15.2109 85.9352 16.4465C86.4743 17.0465 87.1366 17.5231 87.8768 17.8436C88.617 18.1642 89.4176 18.3212 90.2241 18.3038C91.2775 18.3038 91.8081 18.6523 91.8081 19.3414C91.7996 19.4861 91.7598 19.6273 91.6915 19.7551C91.6231 19.883 91.5278 19.9945 91.4121 20.0819C91.1119 20.3254 90.733 20.4508 90.3468 20.4344C88.8504 20.3963 87.364 20.6902 85.9946 21.2948C84.6252 21.8994 83.4067 22.7997 82.4265 23.9312C80.4289 26.0631 79.3162 28.8745 79.3139 31.796C79.3139 34.745 80.424 37.3389 82.6443 39.5777C83.6689 40.651 84.9031 41.5022 86.2703 42.0785C87.6376 42.6548 89.1087 42.944 90.5924 42.928C92.0818 42.9455 93.5597 42.6648 94.939 42.1023C96.3183 41.5398 97.5711 40.707 98.6235 39.653C98.7217 39.5488 98.8401 39.4659 98.9716 39.4093C99.1031 39.3528 99.2447 39.3238 99.3878 39.3243C99.5247 39.3215 99.6606 39.3467 99.7873 39.3985C99.914 39.4502 100.029 39.5274 100.124 39.6252C100.218 39.7127 100.293 39.8181 100.344 39.9351C100.396 40.0521 100.424 40.1784 100.425 40.3064C100.418 40.608 100.301 40.8966 100.097 41.1182Z" fill="#DBB777"/>
<path d="M116.001 8.30035C116.155 8.50519 116.233 8.75708 116.223 9.01318C116.224 9.15234 116.195 9.29016 116.138 9.41725C116.082 9.54434 115.998 9.65775 115.894 9.74977C115.688 9.94601 115.414 10.054 115.13 10.0507C114.948 10.0489 114.77 9.99692 114.615 9.90051C114.461 9.8041 114.336 9.66699 114.254 9.50424C113.633 8.52464 112.768 7.72292 111.744 7.17737C110.721 6.63181 109.573 6.36106 108.413 6.39156C106.372 6.39156 104.771 7.05158 103.609 8.37163C102.496 9.56573 101.871 11.1346 101.859 12.7674C101.859 15.1699 102.77 17.7743 104.592 20.5808L113.767 34.9997C114.466 36.0317 114.846 37.2463 114.86 38.4925C114.863 39.3568 114.678 40.2113 114.317 40.9966C113.956 41.7818 113.428 42.4787 112.769 43.0387C111.482 44.2679 109.769 44.953 107.989 44.9515C105.698 44.9515 103.914 43.877 102.639 41.7279C102.497 41.5594 102.419 41.3464 102.417 41.126C102.425 40.8387 102.543 40.5652 102.746 40.362C102.95 40.1587 103.223 40.041 103.51 40.033C103.703 40.0501 103.888 40.1139 104.05 40.2188C104.212 40.3237 104.347 40.4665 104.441 40.635C105.312 42.1266 106.532 42.8738 108.1 42.8764C109.295 42.8776 110.443 42.4065 111.292 41.5656C111.729 41.1839 112.079 40.7134 112.32 40.1855C112.56 39.6576 112.685 39.0845 112.686 38.5044C112.666 37.6721 112.421 36.8607 111.977 36.156L102.786 21.7926C100.745 18.5532 99.7259 15.5316 99.7285 12.7278C99.7285 10.65 100.511 8.72937 102.077 6.96579C103.642 5.2022 105.772 4.31909 108.465 4.31645C109.958 4.27273 111.437 4.61675 112.758 5.31496C114.079 6.01316 115.196 7.04173 116.001 8.30035Z" fill="#DBB777"/>
<path d="M129.109 6.39167H125.014V44.0131C125.035 44.1615 125.021 44.3129 124.974 44.4551C124.926 44.5974 124.846 44.7267 124.74 44.8327C124.634 44.9388 124.505 45.0187 124.363 45.0661C124.221 45.1136 124.069 45.1272 123.921 45.1061C123.228 45.1061 122.883 44.7417 122.883 44.0131V6.39167H118.733C118.576 6.40063 118.42 6.37593 118.274 6.31923C118.127 6.26253 117.995 6.17516 117.885 6.06298C117.698 5.87382 117.591 5.62018 117.584 5.35411C117.584 4.62545 117.98 4.26111 118.733 4.26111H129.109C129.873 4.26111 130.257 4.62545 130.257 5.35411C130.253 5.62052 130.145 5.87476 129.956 6.06298C129.846 6.17516 129.714 6.26253 129.568 6.31923C129.422 6.37593 129.265 6.40063 129.109 6.39167Z" fill="#DBB777"/>
<path d="M148.498 34.3543H145.825V44.021C145.829 44.1729 145.802 44.3239 145.745 44.4649C145.689 44.6059 145.604 44.7338 145.496 44.8408C145.398 44.9446 145.279 45.0273 145.148 45.0838C145.016 45.1403 144.875 45.1694 144.732 45.1695C144.039 45.1695 143.694 44.7735 143.694 44.021V34.3543H135.065V44.021C135.071 44.169 135.044 44.3164 134.988 44.4532C134.931 44.59 134.845 44.7128 134.736 44.8131C134.531 45.0093 134.256 45.1173 133.972 45.114C133.279 45.114 132.934 44.7497 132.934 44.021V34.3543H130.194C129.465 34.3543 129.101 34.0098 129.101 33.3168C129.08 33.1683 129.093 33.0169 129.141 32.8747C129.188 32.7324 129.268 32.6031 129.374 32.4971C129.48 32.3911 129.61 32.3111 129.752 32.2637C129.894 32.2163 130.046 32.2026 130.194 32.2238H132.926V10.7598C132.926 8.76121 133.572 7.19564 134.863 6.06304C136.119 4.94893 137.746 4.34442 139.425 4.36809C141.089 4.33683 142.701 4.94327 143.932 6.06304C145.186 7.19036 145.814 8.75593 145.817 10.7598V32.2238H148.49C149.183 32.2238 149.527 32.5525 149.527 33.2059C149.53 33.4934 149.433 33.773 149.254 33.9979C149.166 34.1137 149.051 34.2064 148.92 34.2685C148.788 34.3305 148.643 34.36 148.498 34.3543ZM143.694 32.2238V10.7598C143.727 10.176 143.632 9.59209 143.414 9.04939C143.196 8.50669 142.862 8.01849 142.435 7.61937C141.613 6.87801 140.54 6.47729 139.433 6.49864C138.311 6.48418 137.223 6.8831 136.376 7.61937C135.934 8.00997 135.587 8.49539 135.36 9.03926C135.133 9.58313 135.032 10.1713 135.065 10.7598V32.2238H143.694Z" fill="#DBB777"/>
<path d="M168.762 44.8408C168.447 45.0833 168.065 45.2217 167.669 45.2368C167.047 45.2368 166.738 44.7973 166.738 43.926V5.47695C166.738 4.60571 167.047 4.16614 167.669 4.16614C168.06 4.20462 168.436 4.34078 168.762 4.56215C172.2 6.78933 175.018 9.8523 176.951 13.4646C179.791 18.7686 180.525 24.9488 179.007 30.7705C177.489 36.5922 173.83 41.6268 168.762 44.8685V44.8408ZM168.869 42.1637C171.64 40.1361 173.879 37.4675 175.395 34.386C177.655 29.8086 178.24 24.5838 177.048 19.6199C175.856 14.6559 172.961 10.2668 168.869 7.21546V42.1637Z" fill="#DBB777"/>
<path d="M204.862 41.1182C203.624 42.3968 202.137 43.4079 200.493 44.089C198.848 44.7702 197.082 45.1069 195.302 45.0784C193.551 45.0924 191.816 44.7456 190.204 44.0595C188.593 43.3734 187.14 42.3627 185.937 41.0905C183.297 38.4319 181.977 35.3562 181.977 31.8634C181.983 29.1119 182.8 26.4233 184.325 24.1331C185.797 21.7863 188.036 20.0207 190.661 19.1354C189.635 18.5033 188.767 17.6452 188.122 16.6267C187.478 15.6081 187.074 14.4559 186.942 13.2578C186.811 12.0597 186.954 10.8474 187.362 9.71308C187.769 8.57881 188.431 7.55254 189.295 6.71246C190.023 5.95583 190.897 5.35506 191.865 4.94661C192.832 4.53816 193.872 4.33054 194.922 4.33637C196.4 4.28447 197.861 4.6628 199.128 5.42541C200.257 6.15804 200.819 6.8471 200.819 7.50449C200.819 8.16187 200.546 8.43116 199.999 8.43116C199.843 8.42468 199.69 8.38617 199.55 8.31804C199.41 8.24991 199.285 8.15361 199.183 8.03515C198.651 7.48929 198.013 7.05778 197.308 6.76702C196.604 6.47627 195.847 6.33238 195.085 6.34417C194.283 6.3487 193.491 6.51842 192.758 6.84275C192.025 7.16708 191.366 7.63906 190.824 8.2292C190.24 8.78089 189.775 9.445 189.456 10.1815C189.137 10.9179 188.97 11.7114 188.966 12.5141C188.966 13.9001 189.54 15.2109 190.689 16.4465C191.228 17.0467 191.89 17.5234 192.63 17.844C193.37 18.1646 194.171 18.3214 194.978 18.3038C196.031 18.3038 196.562 18.6523 196.562 19.3414C196.553 19.4861 196.513 19.6273 196.445 19.7551C196.377 19.883 196.281 19.9945 196.166 20.0819C195.866 20.3254 195.487 20.4508 195.1 20.4344C193.604 20.3974 192.118 20.6918 190.749 21.2963C189.38 21.9008 188.161 22.8006 187.18 23.9312C185.179 26.0586 184.06 28.8671 184.052 31.7881C184.052 34.7371 185.163 37.331 187.386 39.5698C188.412 40.6478 189.65 41.5024 191.022 42.0803C192.393 42.6581 193.87 42.9467 195.358 42.928C196.847 42.945 198.324 42.664 199.702 42.1015C201.081 41.5391 202.333 40.7066 203.385 39.653C203.484 39.549 203.603 39.4663 203.736 39.4098C203.868 39.3533 204.01 39.3242 204.153 39.3243C204.29 39.3215 204.426 39.3467 204.553 39.3985C204.68 39.4502 204.794 39.5274 204.89 39.6252C204.983 39.7127 205.058 39.8181 205.11 39.9351C205.162 40.0521 205.189 40.1784 205.191 40.3064C205.184 40.608 205.067 40.8966 204.862 41.1182Z" fill="#DBB777"/>
<path d="M219.17 45.114H213.753C212.913 45.1243 212.079 44.9623 211.304 44.6381C210.529 44.3139 209.829 43.8343 209.246 43.229C208.637 42.6381 208.156 41.9289 207.832 41.145C207.508 40.361 207.348 39.519 207.361 38.6708V5.35413C207.352 5.19758 207.377 5.04094 207.434 4.89475C207.49 4.74856 207.578 4.61621 207.69 4.50665C207.879 4.31945 208.133 4.21176 208.399 4.20569C209.127 4.20569 209.492 4.6017 209.492 5.35413V38.6708C209.482 39.2391 209.588 39.8033 209.804 40.329C210.02 40.8547 210.341 41.3308 210.747 41.7281C211.136 42.1313 211.603 42.4506 212.12 42.6665C212.637 42.8824 213.193 42.9903 213.753 42.9834H219.158C219.307 42.9623 219.458 42.9759 219.601 43.0234C219.743 43.0708 219.872 43.1507 219.978 43.2568C220.084 43.3628 220.164 43.4921 220.212 43.6343C220.259 43.7766 220.273 43.928 220.251 44.0764C220.241 44.358 220.121 44.6242 219.917 44.8182C219.712 45.0121 219.44 45.1183 219.158 45.114H219.17Z" fill="#DBB777"/>
<path d="M256.855 34.3543H254.178V44.021C254.183 44.1726 254.156 44.3236 254.101 44.4646C254.045 44.6056 253.961 44.7336 253.853 44.8408C253.754 44.9447 253.635 45.0274 253.503 45.0839C253.371 45.1404 253.229 45.1695 253.085 45.1695C252.396 45.1695 252.047 44.7735 252.047 44.021V34.3543H243.418V44.021C243.425 44.1687 243.399 44.3161 243.343 44.4528C243.287 44.5896 243.202 44.7125 243.094 44.8131C242.887 45.0086 242.613 45.1165 242.329 45.114C241.636 45.114 241.288 44.7497 241.288 44.021V34.3543H238.559C237.831 34.3543 237.466 34.0098 237.466 33.3167C237.445 33.1683 237.459 33.0169 237.506 32.8747C237.554 32.7324 237.634 32.6031 237.74 32.4971C237.846 32.391 237.975 32.3111 238.117 32.2637C238.259 32.2162 238.411 32.2026 238.559 32.2237H241.288V10.7598C241.288 8.7612 241.935 7.19562 243.228 6.06302C244.488 4.94224 246.124 4.3371 247.81 4.36808C249.472 4.33702 251.084 4.94351 252.313 6.06302C253.572 7.19034 254.2 8.75592 254.198 10.7598V32.2237H256.875C257.568 32.2237 257.912 32.5524 257.912 33.2059C257.915 33.4934 257.818 33.773 257.639 33.9979C257.548 34.1176 257.429 34.2129 257.292 34.2751C257.155 34.3374 257.005 34.3645 256.855 34.3543ZM252.047 32.2237V10.7598C252.081 10.1763 251.987 9.59245 251.77 9.04973C251.553 8.507 251.219 8.01867 250.792 7.61936C249.97 6.87799 248.897 6.47728 247.79 6.49863C246.667 6.48393 245.577 6.88282 244.729 7.61936C244.288 8.0105 243.942 8.49602 243.715 9.03975C243.488 9.58349 243.387 10.1714 243.418 10.7598V32.2237H252.047Z" fill="#DBB777"/>
<path d="M273.551 44.021C273.556 44.2036 273.547 44.3863 273.523 44.5675C273.523 44.6784 273.404 44.7972 273.222 44.9239C272.993 45.0634 272.726 45.1297 272.458 45.114C271.987 45.114 271.694 45.0229 271.587 44.8407C271.46 44.587 271.403 44.3041 271.42 44.021V10.7557C271.401 9.61383 270.942 8.52334 270.139 7.71172C269.335 6.90011 268.25 6.43005 267.108 6.39959C266.015 6.39959 264.631 7.07281 262.958 8.41926V44.0289C262.967 44.1854 262.942 44.3421 262.885 44.4883C262.828 44.6345 262.741 44.7668 262.629 44.8764C262.441 45.065 262.186 45.1729 261.92 45.1773C261.227 45.1773 260.879 44.7813 260.879 44.0289V10.3677C260.772 10.4746 260.589 10.6647 260.336 10.9379C260.083 11.2112 259.889 11.4052 259.762 11.5121L259.271 11.9082C259.11 12.0429 258.936 12.161 258.752 12.2606C258.631 12.3292 258.495 12.3673 258.356 12.3715C258.21 12.3709 258.067 12.3388 257.935 12.2773C257.803 12.2157 257.686 12.1263 257.592 12.0151C257.384 11.8036 257.266 11.5197 257.263 11.2231C257.334 10.8673 257.516 10.5431 257.782 10.2964C258.313 9.71631 258.879 9.16881 259.477 8.65688C260.269 7.96385 260.724 7.54803 260.867 7.4015V5.37787C260.867 4.61357 261.215 4.23339 261.908 4.23339C262.175 4.23783 262.429 4.34577 262.617 4.53436C262.729 4.64316 262.816 4.7748 262.873 4.92034C262.93 5.06589 262.955 5.22193 262.946 5.37787V5.70656C264.511 4.72444 265.895 4.23339 267.096 4.23339C267.947 4.22028 268.791 4.38347 269.575 4.71267C270.36 5.04186 271.068 5.52993 271.654 6.14614C272.268 6.74525 272.753 7.46355 273.079 8.25693C273.405 9.05031 273.566 9.90202 273.551 10.7597V44.021ZM270.601 1.74641C270.299 2.23752 269.872 2.63878 269.363 2.90835C268.854 3.17792 268.281 3.30593 267.706 3.279C267.055 3.25693 266.423 3.05845 265.876 2.70478C265.479 2.4168 265.024 2.22065 264.542 2.13055C264.086 2.16006 263.66 2.36605 263.354 2.70478C262.958 3.10079 262.645 3.279 262.427 3.279C262.293 3.28316 262.161 3.25841 262.038 3.20646C261.915 3.15452 261.804 3.0766 261.714 2.97803C261.532 2.77649 261.434 2.51288 261.441 2.24143C261.443 1.89846 261.542 1.56301 261.725 1.2732C261.908 0.983382 262.169 0.750825 262.478 0.601938C263.088 0.225438 263.786 0.0176984 264.502 0C265.135 0.0262961 265.748 0.224837 266.276 0.574214C266.69 0.870531 267.168 1.06706 267.67 1.14844C267.889 1.14695 268.106 1.0972 268.303 1.00275C268.501 0.9083 268.676 0.771459 268.815 0.601938C268.917 0.457008 269.047 0.333976 269.197 0.240113C269.347 0.14625 269.515 0.0834561 269.69 0.0554358C269.977 0.0634225 270.251 0.181141 270.454 0.384413C270.657 0.587685 270.775 0.861081 270.783 1.14844C270.785 1.35948 270.727 1.56681 270.617 1.74641H270.601Z" fill="#DBB777"/>
<path d="M295.197 24.6876C295.197 26.034 295.13 27.4597 295.003 29.0002C294.832 30.7832 294.545 32.5532 294.144 34.2989C293.764 36.1123 293.215 37.8863 292.504 39.5975C291.868 41.0986 290.897 42.4342 289.665 43.5023C288.51 44.54 287.012 45.1141 285.459 45.1141C283.906 45.1141 282.409 44.54 281.254 43.5023C280.02 42.4361 279.048 41.0999 278.414 39.5975C277.7 37.8876 277.151 36.1133 276.775 34.2989C276.376 32.5532 276.093 30.7832 275.927 29.0002C275.8 27.4716 275.737 26.034 275.737 24.6876C275.729 22.312 275.894 19.939 276.228 17.587C276.544 15.3798 277.055 13.205 277.757 11.0885C278.33 9.20766 279.363 7.49947 280.762 6.11846C281.379 5.51572 282.11 5.04123 282.911 4.72244C283.712 4.40364 284.569 4.24686 285.432 4.26115C286.268 4.25788 287.097 4.42033 287.871 4.7391C288.644 5.05788 289.347 5.52669 289.938 6.11846C291.315 7.49837 292.357 9.17557 292.984 11.0211C293.749 13.1375 294.308 15.3232 294.651 17.5474C295.017 19.9098 295.2 22.297 295.197 24.6876ZM293.011 24.6876C293.011 19.0087 292.256 14.5853 290.746 11.4171C289.236 8.24902 287.464 6.66496 285.432 6.66496C283.393 6.66496 281.627 8.24902 280.133 11.4171C278.639 14.5853 277.893 19.0087 277.895 24.6876C277.895 30.3664 278.65 34.8176 280.161 38.0412C281.671 41.2648 283.446 42.8765 285.487 42.8765C287.522 42.8765 289.289 41.274 290.786 38.0689C292.283 34.8638 293.024 30.4034 293.011 24.6876Z" fill="#DBB777"/>
</svg>
