<svg width="175" height="50" viewBox="0 0 175 50" fill="none" xmlns="http://www.w3.org/2000/svg">
<path d="M174.247 5.72561C174.055 4.49728 173.478 3.36159 172.599 2.48251C171.72 1.60344 170.584 1.02648 169.356 0.834839C168.184 0.698271 167.003 0.64268 165.823 0.668495H9.36981C8.32037 0.668495 7.27489 0.668507 6.22545 0.779391C5.01531 0.887982 3.86857 1.36895 2.94307 2.15616C2.01757 2.94337 1.35881 3.9981 1.05746 5.17514C0.845452 6.17438 0.755023 7.19556 0.788166 8.21651C0.788166 19.4792 0.788166 30.7419 0.788166 42.0045C0.783593 42.8375 0.836531 43.6698 0.946581 44.4955C1.13205 45.6623 1.66514 46.746 2.47621 47.6051C3.28727 48.4642 4.33859 49.0587 5.49282 49.311C6.64842 49.4988 7.81948 49.5744 8.98964 49.5367H165.752C166.821 49.5367 167.887 49.5367 168.952 49.4258C170.162 49.3192 171.31 48.8406 172.237 48.0557C173.165 47.2707 173.826 46.218 174.132 45.0419C174.349 44.0153 174.441 42.9661 174.405 41.9174C174.405 30.7102 174.405 19.503 174.405 8.29574C174.411 7.43641 174.358 6.57766 174.247 5.72561V5.72561Z" stroke="white" stroke-width="0.922714" stroke-miterlimit="10"/>
<path d="M67.5879 31.712H65.794V26.5955H59.8538V31.712H58.0598V20.1562H59.8538V25.0391H65.794V20.1562H67.5879V31.712Z" fill="white"/>
<path d="M71.5047 20.1562V27.4984C71.4878 27.8723 71.5468 28.2458 71.6782 28.5963C71.8095 28.9468 72.0105 29.2671 72.269 29.5379C72.8631 30.0365 73.614 30.3098 74.3896 30.3098C75.1653 30.3098 75.9162 30.0365 76.5103 29.5379C76.7695 29.2675 76.9712 28.9473 77.1033 28.5968C77.2353 28.2463 77.295 27.8726 77.2786 27.4984V20.1562H79.0686V27.6528C79.0897 28.2259 78.9876 28.7969 78.7689 29.3271C78.5503 29.8573 78.2203 30.3343 77.8013 30.7259C76.8285 31.4906 75.627 31.9063 74.3896 31.9063C73.1523 31.9063 71.9508 31.4906 70.978 30.7259C70.559 30.3343 70.229 29.8573 70.0104 29.3271C69.7917 28.7969 69.6896 28.2259 69.7107 27.6528V20.1562H71.5047Z" fill="white"/>
<path d="M88.6403 31.712L87.5829 28.5874H83.1753L82.1179 31.712H80.2527L84.4267 20.1562H86.3632L90.5372 31.712H88.6403ZM85.3534 22.0769L83.6307 27.1459H87.1235L85.4009 22.0769H85.3534Z" fill="white"/>
<path d="M97.3447 22.9997L94.8538 31.712H93.1628L90.0461 20.1562H91.9153L94.0538 29.2052H94.1172L96.5606 20.1562H98.2239L100.675 29.2052H100.743L102.881 20.1562H104.746L101.622 31.712H99.9307L97.4318 22.9997H97.3447Z" fill="white"/>
<path d="M113.49 30.1596V31.712H106.156V20.1562H113.49V21.7007H107.946V25.0668H113.193V26.5598H107.95V30.1477L113.49 30.1596Z" fill="white"/>
<path d="M117.129 31.712H115.339V20.1562H117.133L117.129 31.712Z" fill="white"/>
</svg>
