<svg width="296" height="15" viewBox="0 0 296 15" fill="none" xmlns="http://www.w3.org/2000/svg">
<path d="M295.197 7.01099H0V7.92974H295.197V7.01099Z" fill="#DBB777"/>
<path d="M98.4058 7.45854V7.96545H119.763L120.345 8.54758H106.694V9.05449H120.852L121.327 9.52968H109.09V10.0366H144.549L145.69 11.1771L146.399 10.4683L148.799 12.8443L149.452 12.1909L150.87 13.6087L151.721 12.7572L153.483 14.5234L155.25 12.7572L156.101 13.6087L157.519 12.1909L158.172 12.8443L160.572 10.4683L161.281 11.1771L162.422 10.0366H197.881V9.52968H185.636L186.111 9.05449H200.288V8.55154H186.626L187.208 7.96941H208.565V7.4625H187.22L186.638 6.87641H200.288V6.37346H186.119L185.644 5.89824H197.881V5.38342H162.422L161.281 4.2429L160.572 4.95176L158.172 2.55191L157.519 3.21327L156.101 1.79553L155.25 2.64301L153.483 0.880737L151.721 2.64301L150.87 1.79553L149.452 3.21327L148.807 2.55587L146.407 4.95572L145.698 4.24686L144.549 5.38342H109.09V5.89033H121.327L120.852 6.36553H106.694V6.86848H120.345L119.763 7.45457L98.4058 7.45854ZM121.878 6.06456L123.525 7.71199L121.878 9.34357L120.23 7.69616L121.878 6.06456ZM144.054 5.89427L143.575 6.37346H122.895L122.42 5.9022L144.054 5.89427ZM122.42 9.52968L122.899 9.05052H143.579L144.054 9.52178L122.42 9.52968ZM142.486 7.94563L143.076 8.53174H123.398L123.98 7.94959L142.486 7.94563ZM143.068 6.85659L142.47 7.45854H123.98L123.39 6.87244L143.068 6.85659ZM143.65 7.69219L146.05 10.092L145.698 10.4405L142.949 7.69219L145.698 4.94385L146.05 5.29235L143.65 7.69219ZM150.878 2.48856L151.369 2.98357L150.311 4.04093L149.816 3.54987L150.878 2.48856ZM153.491 1.57376L154.901 2.98357L153.491 4.38942L152.078 3.00733L153.491 1.57376ZM156.109 2.48856L157.17 3.54987L156.675 4.04093L155.61 3.00733L156.109 2.48856ZM160.572 9.73958L160.275 9.44257L162.018 7.7001L160.275 5.95368L160.572 5.66064L162.612 7.7001L160.572 9.73958ZM158.172 12.1394L157.875 11.8424L159.919 9.80293L160.216 10.0999L158.172 12.1394ZM148.799 12.1394L146.755 10.0999L147.052 9.80293L149.096 11.8424L148.799 12.1394ZM161.305 7.7001L159.919 9.08615L159.424 8.5951L160.319 7.7001L159.424 6.80513L159.919 6.31405L161.305 7.7001ZM159.067 7.16152L159.602 7.7001L159.067 8.23473L158.529 7.7001L159.067 7.16152ZM157.816 7.7001L158.711 8.5951L156.667 10.6346L155.262 9.22477L156.786 7.7001L155.262 6.17545L156.667 4.76564L158.711 6.80513L157.816 7.7001ZM153.856 7.58923L154.913 6.53187L156.101 7.71992L154.913 8.90796L153.856 7.84662L153.963 7.73971L153.856 7.58923ZM153.139 7.80703L152.082 8.86835L150.894 7.6803L152.082 6.49226L153.139 7.54961L153.032 7.66051L153.139 7.80703ZM152.438 9.22477L153.495 8.16742L154.557 9.22477L153.495 10.2861L152.438 9.22477ZM152.438 6.17545L153.495 5.11413L154.557 6.17545L153.495 7.2328L152.438 6.17545ZM150.197 7.7001L151.721 9.22477L150.315 10.6346L148.272 8.5951L149.167 7.7001L148.272 6.80513L150.315 4.76564L151.721 6.17545L150.197 7.7001ZM147.916 7.16152L148.454 7.7001L147.916 8.23473L147.381 7.7001L147.916 7.16152ZM146.664 7.7001L147.559 8.5951L147.064 9.08615L145.678 7.7001L147.064 6.31405L147.559 6.80513L146.664 7.7001ZM147.916 8.95152L149.955 10.991L149.464 11.486L147.424 9.44257L147.916 8.95152ZM150.315 11.3474L151.373 12.4087L150.87 12.9077L149.808 11.8464L150.315 11.3474ZM152.082 9.58513L153.139 10.6425L151.733 12.0523L150.672 10.991L152.082 9.58513ZM153.495 10.9989L154.905 12.4087L153.495 13.8185L152.089 12.4087L153.495 10.9989ZM154.913 9.58513L156.323 10.991L155.262 12.0523L153.856 10.6425L154.913 9.58513ZM156.679 11.3474L157.174 11.8424L156.101 12.9077L155.61 12.4127L156.679 11.3474ZM159.079 8.95152L159.57 9.44257L157.519 11.4979L157.028 11.0029L159.079 8.95152ZM159.931 5.59726L157.887 3.5578L158.184 3.26079L160.228 5.30025L159.931 5.59726ZM159.079 6.4487L157.04 4.40922L157.531 3.9142L159.57 5.95368L159.079 6.4487ZM154.913 5.81509L153.856 4.75771L155.262 3.3479L156.323 4.40922L154.913 5.81509ZM152.082 5.81509L150.672 4.40922L151.733 3.3479L153.139 4.75771L152.082 5.81509ZM147.916 6.4487L147.424 5.95368L149.464 3.9142L149.955 4.40922L147.916 6.4487ZM147.064 5.59726L146.767 5.30025L148.811 3.26079L149.108 3.5578L147.064 5.59726ZM144.965 7.7001L146.708 9.44257L146.411 9.73958L144.371 7.7001L146.411 5.66064L146.708 5.95368L144.965 7.7001ZM160.94 5.30025L161.293 4.95176L164.041 7.7001L161.293 10.4484L160.94 10.0999L163.34 7.7001L160.94 5.30025ZM185.097 9.34753L183.45 7.7001L185.097 6.05269L186.745 7.7001L185.097 9.34753ZM162.921 9.51782L163.396 9.04656H184.076L184.555 9.52574L162.921 9.51782ZM182.987 7.93376L183.569 8.51589H163.903L164.493 7.92979L182.987 7.93376ZM183.577 6.84075L182.987 7.42685H164.493L163.911 6.84472L183.577 6.84075ZM184.555 5.86261L184.08 6.33387H163.4L162.921 5.85468L184.555 5.86261Z" fill="#DBB777"/>
</svg>
