<svg width="133" height="36" viewBox="0 0 133 36" fill="none" xmlns="http://www.w3.org/2000/svg">
<path d="M24.113 22.9389C24.2265 23.1794 24.0495 23.3383 23.9542 23.5062C22.1926 26.7025 19.2422 29.0757 15.7427 30.1113C12.2431 31.147 8.47641 30.7617 5.25903 29.0389C4.77525 28.7597 4.35114 28.3881 4.01087 27.9451C-3.06959 19.6437 -0.459806 6.73096 9.35299 1.93803C15.4848 -1.05755 21.4579 -0.562826 27.1222 3.29966C27.2962 3.38212 27.4336 3.52599 27.508 3.70361C26.5594 3.43583 25.6607 3.16802 24.7394 3.00463C16.9645 1.61577 9.24406 7.23021 8.18199 15.0323C7.77804 18.0279 8.28185 20.7466 10.3697 23.0569C11.1983 23.9648 12.2016 24.6963 13.3195 25.2075C14.4373 25.7188 15.6468 25.9993 16.8756 26.0323C18.1044 26.0654 19.3272 25.8503 20.4709 25.3998C21.6147 24.9494 22.6558 24.2729 23.5321 23.4109C23.7182 23.2293 23.8679 22.9843 24.113 22.9389Z" fill="white"/>
<path d="M7.2561 30.9175C7.5602 30.7632 7.80075 30.9175 8.03677 31.0037C9.91367 31.5975 11.8926 31.7991 13.8507 31.5961C15.8087 31.3931 17.7042 30.7898 19.4194 29.8237C21.1346 28.8575 22.6329 27.5492 23.8213 25.9799C25.0098 24.4105 25.863 22.6136 26.328 20.7007C27.0905 17.5508 26.8908 14.5417 24.7893 11.8729C23.9648 10.8429 22.9276 10.003 21.7487 9.41063C20.5699 8.81823 19.277 8.48724 17.9585 8.44027C16.64 8.3933 15.3268 8.63146 14.1088 9.13848C12.8908 9.6455 11.7965 10.4095 10.9007 11.3782C10.7827 11.5098 10.701 11.6868 10.4468 11.7503C10.9527 10.5885 11.6423 9.5157 12.4893 8.57319C14.5171 6.23564 17.2674 4.64205 20.3038 4.04512C23.3403 3.4482 26.4891 3.8821 29.2509 5.27805C30.0479 5.71905 30.7304 6.34087 31.2434 7.09355C39.0274 17.1333 33.2813 31.9296 20.7362 34.1082C18.3912 34.5517 15.9791 34.4968 13.6567 33.9471C11.3342 33.3974 9.15348 32.3652 7.2561 30.9175V30.9175Z" fill="white"/>
<path d="M51.8539 24.1641C52.975 24.1641 54.0961 24.1641 55.2126 24.1641C55.6029 24.1641 55.6937 24.2776 55.7073 24.6498C55.9434 29.8285 52.0037 32.2341 48.0142 31.7802C44.7326 31.408 42.5449 29.4246 41.905 26.4018C41.7155 25.4602 41.729 24.4891 41.9444 23.5531C42.1598 22.6172 42.5722 21.7379 43.1541 20.9738C43.736 20.2098 44.4742 19.5785 45.3192 19.1222C46.1643 18.6658 47.097 18.3949 48.055 18.3273C50.7783 18.1458 53.0476 18.9673 54.6634 21.2367C54.9539 21.6315 54.9267 21.8312 54.4592 21.9719C54.3201 22.0146 54.1873 22.0757 54.0643 22.1535C53.1157 22.7526 52.3986 22.916 51.4364 21.8721C50.1655 20.5105 47.8054 20.5786 46.2849 21.7042C45.5468 22.2664 45.0138 23.0554 44.7678 23.9501C44.5218 24.8447 44.5764 25.7953 44.9233 26.6559C45.2845 27.5264 45.9296 28.249 46.7536 28.7064C47.5777 29.1637 48.5322 29.3289 49.462 29.1749C50.8736 28.9662 51.9538 28.3443 52.4712 26.9328C52.6165 26.5379 52.5257 26.4244 52.1081 26.429C50.9053 26.429 49.7026 26.429 48.4771 26.429C48.0732 26.429 47.9097 26.3291 47.9461 25.9115C47.9869 25.3578 47.7781 24.6407 48.055 24.2867C48.3319 23.9327 49.0989 24.1823 49.6526 24.1641C50.4015 24.146 51.1277 24.1641 51.8539 24.1641Z" fill="white"/>
<path d="M51.3412 9.82142C53.5788 11.0605 54.2052 13.3299 52.8345 15.1817C52.0266 16.271 50.8238 16.6386 49.5529 16.684C47.5014 16.7521 45.468 16.7067 43.3938 16.7249C43.0489 16.7249 42.9854 16.5841 42.9854 16.271C42.9854 12.2164 42.9854 8.16176 42.9854 4.10714C42.9854 3.73042 43.0988 3.60784 43.4801 3.61692C45.4907 3.63961 47.5014 3.61696 49.5121 3.66235C51.205 3.71682 52.4169 4.57007 52.8481 5.89993C53.3972 7.58381 52.9162 8.91367 51.3412 9.82142ZM47.4696 14.3602C48.1459 14.3602 48.627 14.3874 49.0991 14.3602C49.2965 14.3714 49.4942 14.3419 49.6797 14.2735C49.8653 14.2052 50.0349 14.0994 50.1779 13.9628C50.3209 13.8261 50.4343 13.6616 50.511 13.4794C50.5878 13.2971 50.6263 13.101 50.6241 12.9033C50.6639 12.5076 50.5477 12.1121 50.3001 11.8009C50.0525 11.4898 49.6932 11.2876 49.2988 11.2375C48.6217 11.149 47.9377 11.1262 47.2563 11.1694C45.8448 11.1694 45.8357 11.1694 45.8493 12.581C45.8493 13.1528 45.6042 13.8972 45.9446 14.2513C46.285 14.6053 47.0839 14.2966 47.4696 14.3602ZM47.4969 6.03157C47.0838 6.03157 46.6663 6.03157 46.2533 6.03157C45.9855 6.03157 45.8312 6.07239 45.8402 6.39918C45.8402 7.16169 45.8402 7.9242 45.8402 8.66856C45.8402 8.83195 45.8402 9.03168 46.0672 9.02714C47.0748 9.02714 48.1005 9.16784 49.0945 8.91367C49.4379 8.82192 49.7365 8.6089 49.9349 8.31402C50.1334 8.01915 50.2183 7.66237 50.174 7.3097C50.1297 6.95703 49.9592 6.63233 49.694 6.39569C49.4288 6.15904 49.0868 6.02647 48.7314 6.02248C48.3229 5.99979 47.9235 6.01794 47.4969 6.01794V6.03157Z" fill="white"/>
<path d="M108.548 22.5526C108.693 21.4406 108.693 21.4406 109.809 21.4406C111.339 21.4406 111.339 21.4406 111.339 22.9883C111.339 26.9007 111.339 30.8086 111.339 34.721C111.339 35.1749 111.262 35.3973 110.74 35.3428C110.05 35.2657 109.138 35.6288 108.711 35.1976C108.284 34.7664 108.616 33.8995 108.602 33.2233C108.602 32.3155 108.602 31.4486 108.602 30.4365C107.872 31.1868 106.899 31.652 105.856 31.7482C103.242 31.9615 101.408 30.6543 100.809 28.1172C100.438 26.6812 100.581 25.1606 101.213 23.8189C101.514 23.1788 101.961 22.6185 102.518 22.1834C103.076 21.7482 103.728 21.4506 104.422 21.3144C105.116 21.1783 105.832 21.2075 106.512 21.3998C107.193 21.592 107.819 21.9419 108.339 22.421C108.393 22.4437 108.448 22.4755 108.548 22.5526ZM108.643 26.4832C108.643 24.772 107.631 23.71 106.051 23.7327C104.472 23.7554 103.41 24.8855 103.432 26.5603C103.455 28.2351 104.554 29.3607 106.128 29.329C107.703 29.2972 108.652 28.2079 108.643 26.4832V26.4832Z" fill="white"/>
<path d="M78.274 21.4408H81.0563C81.3785 21.4408 81.3876 21.6995 81.4648 21.8947C82.2091 23.7102 82.9505 25.5257 83.6888 27.3412C83.7795 27.5636 83.8749 27.7951 84.0156 28.1173C84.3514 27.314 84.6419 26.6104 84.9233 25.9115C85.468 24.5498 86.0172 23.2336 86.5437 21.8856C86.5794 21.7383 86.6693 21.6098 86.7954 21.5257C86.9216 21.4416 87.0747 21.4081 87.2245 21.4317C87.8669 21.468 88.511 21.468 89.1534 21.4317C89.6936 21.3954 89.6618 21.5951 89.4938 21.9855C88.4136 24.509 87.3515 27.0416 86.2759 29.5697C85.7584 30.7861 85.2864 32.0252 84.6873 33.2007C84.3827 33.7499 83.9702 34.2317 83.4747 34.6174C82.9791 35.003 82.4106 35.2844 81.8034 35.4447C81.1963 35.6049 80.563 35.6408 79.9416 35.55C79.3203 35.4592 78.7237 35.2437 78.1878 34.9164C78.0062 34.8029 77.9745 34.6985 78.0652 34.517C78.156 34.3354 78.2059 34.172 78.274 34.0041C78.451 33.582 78.5237 33.0282 78.8368 32.7877C79.15 32.5471 79.613 32.9783 80.0305 33.0555C80.5475 33.2071 81.1034 33.1493 81.5781 32.8946C82.0528 32.6398 82.4083 32.2085 82.5677 31.6938C82.6087 31.5906 82.6244 31.479 82.6133 31.3684C82.6022 31.2578 82.5648 31.1516 82.5042 31.0584C81.1516 28.0326 79.79 25.0173 78.4193 22.0127C78.3169 21.84 78.2664 21.6414 78.274 21.4408Z" fill="white"/>
<path d="M75.2011 30.5637C73.6761 31.9571 71.9922 32.0115 70.2448 31.4714C69.7194 31.329 69.2487 31.0323 68.8935 30.6197C68.5383 30.2071 68.315 29.6975 68.2523 29.1567C68.138 28.5823 68.2019 27.9868 68.4355 27.4498C68.6692 26.9128 69.0613 26.4599 69.5595 26.152C70.8439 25.2851 72.2827 25.2851 73.7487 25.4395C73.9757 25.4667 74.2026 25.5121 74.425 25.5575C75.1875 25.7118 75.2828 25.6119 75.0604 24.8494C74.838 24.0869 74.1118 23.5786 73.077 23.5513C71.9771 23.5224 70.8827 23.7154 69.859 24.1187C69.5095 24.2503 69.3189 24.2321 69.2599 23.8373C69.2435 23.7569 69.2208 23.678 69.1918 23.6012C68.7379 22.2033 68.7379 22.2033 70.1677 21.7449C71.647 21.2454 73.2287 21.1283 74.7654 21.4045C75.5663 21.5101 76.3063 21.8888 76.8603 22.4767C77.4144 23.0647 77.7485 23.8258 77.8064 24.6315C78.0606 26.8328 77.8699 29.0523 77.9199 31.2627C77.9199 31.5441 77.7973 31.6122 77.5431 31.6076C76.9853 31.5781 76.4262 31.5781 75.8683 31.6076C75.3373 31.653 75.1512 31.4623 75.2284 30.9585C75.2322 30.8263 75.223 30.6941 75.2011 30.5637V30.5637ZM75.1784 27.8768C75.1784 27.6408 75.2556 27.3638 74.9061 27.2685C73.9749 26.9585 72.9737 26.9254 72.024 27.1732C71.7256 27.2304 71.4566 27.3901 71.2635 27.6246C71.0703 27.8592 70.9653 28.1539 70.9665 28.4577C70.9843 28.7717 71.1102 29.0698 71.3228 29.3014C71.5354 29.5331 71.8217 29.684 72.1329 29.7286C72.3339 29.7787 72.539 29.8106 72.7457 29.8239C74.1754 29.9237 75.1557 29.1431 75.1784 27.8768V27.8768Z" fill="white"/>
<path d="M61.2402 15.722C59.8785 16.9928 58.3036 17.1245 56.656 16.7069C55.2172 16.3438 54.3594 15.3453 54.2913 14.0245C54.2334 13.347 54.4045 12.6697 54.7773 12.101C55.1501 11.5324 55.703 11.1053 56.3474 10.8882C57.709 10.3436 59.0706 10.4344 60.4322 10.684C60.6728 10.7294 60.9134 10.7884 61.1539 10.8383C61.2674 9.65368 60.7 8.9184 59.5608 8.74139C58.327 8.60072 57.0776 8.77562 55.9298 9.24973C55.5485 9.39043 55.4124 9.30418 55.3216 8.95015C55.2626 8.7096 55.1718 8.49631 55.0901 8.24668C54.8042 7.39339 54.7997 7.38433 55.6802 7.06661C57.2661 6.44361 58.9885 6.25096 60.6728 6.5083C62.5564 6.83055 63.6729 7.97432 63.8772 9.8579C64.1086 12.0274 63.9316 14.2015 63.9861 16.3711C63.9861 16.6479 63.8772 16.7341 63.6185 16.725C63.2009 16.725 62.7879 16.725 62.3703 16.725C61.3672 16.7114 61.3672 16.7114 61.2402 15.722ZM59.3656 12.1273C58.729 12.0967 58.0975 12.2546 57.5501 12.5812C57.4043 12.6769 57.2813 12.8037 57.1902 12.9525C57.099 13.1013 57.0419 13.2685 57.0228 13.4419C57.0037 13.6154 57.0232 13.7909 57.0798 13.9559C57.1365 14.121 57.2289 14.2715 57.3504 14.3967C58.2173 15.3044 60.4277 15.0502 61.0314 13.9428C61.5488 12.9851 61.2537 12.377 60.1962 12.2317C59.9012 12.1773 59.5926 12.1455 59.3656 12.1183V12.1273Z" fill="white"/>
<path d="M96.8466 30.5319C95.2353 32.007 93.4697 32.0478 91.627 31.367C91.1125 31.1873 90.6653 30.8544 90.3456 30.413C90.0259 29.9716 89.849 29.4429 89.8387 28.898C89.7782 28.3808 89.8619 27.8569 90.0806 27.3843C90.2993 26.9117 90.6444 26.5088 91.0778 26.2201C92.3895 25.2806 93.8691 25.276 95.376 25.4394C95.6234 25.4712 95.8689 25.5166 96.1113 25.5756C96.8057 25.7254 96.8783 25.6528 96.7059 24.981C96.4698 24.0733 95.7981 23.5876 94.7088 23.5468C93.6237 23.5094 92.5424 23.6947 91.5317 24.0914C91.0778 24.2593 90.9371 24.1641 90.8463 23.7465C90.7943 23.5472 90.7291 23.3516 90.6512 23.161C90.3471 22.2532 90.3516 22.2532 91.2957 21.8992C92.6831 21.3931 94.1614 21.1843 95.6347 21.2865C97.9359 21.4362 99.3883 22.8205 99.4745 25.1126C99.5471 27.1369 99.4745 29.1657 99.5154 31.1946C99.5154 31.535 99.3883 31.6167 99.0615 31.6031C98.5433 31.5645 98.0229 31.5645 97.5047 31.6031C96.9373 31.6666 96.7558 31.4487 96.8375 30.9222C96.8517 30.7926 96.8548 30.662 96.8466 30.5319V30.5319ZM95.0311 27.0053C94.2595 27.0053 93.6377 27.0598 93.1112 27.4592C92.9479 27.5707 92.8147 27.7209 92.7236 27.8964C92.6324 28.0719 92.5861 28.2672 92.5888 28.465C92.5915 28.6627 92.6431 28.8568 92.739 29.0297C92.8349 29.2027 92.9721 29.3492 93.1384 29.4562C93.6348 29.731 94.2014 29.8526 94.7668 29.8057C95.3322 29.7589 95.8711 29.5457 96.3155 29.193C96.5277 28.9771 96.6784 28.7084 96.7518 28.4147C96.8252 28.1211 96.8187 27.8131 96.7331 27.5227C96.6287 27.0688 96.0931 27.1777 95.73 27.1051C95.4441 27.0688 95.1536 27.0234 95.0084 27.0053H95.0311Z" fill="white"/>
<path d="M92.4669 6.38574C95.5805 6.38574 97.9134 8.65508 97.9134 11.6234C97.9134 14.5918 95.5533 16.9247 92.4397 16.9202C89.3261 16.9156 86.9932 14.619 86.9932 11.6598C86.9932 8.70051 89.3442 6.38574 92.4669 6.38574ZM89.7799 11.6371C89.7799 13.3391 90.842 14.4647 92.4624 14.4647C94.0827 14.4647 95.1538 13.3209 95.1584 11.628C95.1629 9.93502 94.1009 8.81851 92.4351 8.81851C90.7694 8.81851 89.7845 9.92141 89.7799 11.6371Z" fill="white"/>
<path d="M120.203 30.128C119.295 30.9495 118.424 31.5577 117.344 31.7256C114.87 32.1159 113.005 30.5954 112.869 27.9584C112.76 25.916 112.841 23.8736 112.828 21.8175C112.828 21.5089 112.955 21.4317 113.236 21.4362C113.858 21.4362 114.48 21.468 115.102 21.4362C115.501 21.4362 115.583 21.5678 115.583 21.9355C115.583 23.6511 115.556 25.3714 115.583 27.087C115.583 28.4078 116.286 29.1703 117.516 29.3564C118.065 29.4315 118.622 29.3149 119.094 29.0262C119.567 28.7376 119.925 28.2947 120.108 27.7724C120.19 27.4771 120.223 27.1706 120.208 26.8646C120.208 25.2534 120.208 23.6421 120.208 22.0263C120.208 21.5724 120.335 21.4499 120.771 21.4726C121.37 21.5089 121.973 21.4998 122.586 21.4726C122.917 21.4726 123.017 21.5769 123.017 21.8992C123.017 25.0037 123.017 28.1052 123.017 31.2036C123.017 31.5804 122.867 31.6575 122.536 31.6575C121.937 31.6575 121.333 31.6257 120.721 31.6575C120.267 31.6847 120.176 31.5123 120.212 31.122C120.226 30.8133 120.203 30.5501 120.203 30.128Z" fill="white"/>
<path d="M64.3673 30.0919C63.4595 30.9225 62.6153 31.5307 61.5351 31.7168C59.184 32.1298 57.2596 30.6956 57.0417 28.3173C56.842 26.1523 56.9964 23.9782 56.9555 21.8042C56.9555 21.5455 57.0463 21.432 57.3186 21.4365C58.0039 21.4365 58.6802 21.4592 59.3701 21.4365C59.7604 21.4365 59.7378 21.6589 59.7378 21.9176C59.7378 23.597 59.7378 25.2718 59.7378 26.9466C59.7378 28.4534 60.4957 29.3113 61.8301 29.3476C62.1575 29.3723 62.4864 29.3283 62.7958 29.2185C63.1052 29.1086 63.3882 28.9354 63.6266 28.7097C63.8651 28.4841 64.0538 28.211 64.1806 27.9082C64.3073 27.6053 64.3694 27.2793 64.3627 26.9511C64.3839 25.299 64.3839 23.6439 64.3627 21.9857C64.3627 21.5319 64.4762 21.4047 64.9165 21.432C65.5156 21.4683 66.1192 21.4547 66.732 21.432C67.0225 21.432 67.1314 21.5182 67.1268 21.8178C67.1268 24.945 67.1268 28.0676 67.1268 31.1948C67.1268 31.5398 66.9861 31.6079 66.673 31.5988C66.0739 31.5988 65.4702 31.567 64.8575 31.5988C64.4036 31.626 64.3128 31.4626 64.3491 31.0723C64.39 30.7999 64.3673 30.514 64.3673 30.0919Z" fill="white"/>
<path d="M68.1255 8.06527C68.7626 7.43337 69.5227 6.93905 70.3586 6.61289C72.805 5.76414 75.1924 7.21654 75.4466 9.79002C75.6599 11.9777 75.4965 14.1744 75.5373 16.3667C75.5373 16.6299 75.442 16.7297 75.1742 16.7252C74.4889 16.7252 73.8126 16.7252 73.1227 16.7252C72.7324 16.7252 72.7551 16.5074 72.7551 16.2441C72.7551 14.592 72.7551 12.9353 72.7551 11.2832C72.7551 9.63112 72.0016 8.85501 70.5901 8.85501C69.0741 8.85501 68.1301 9.80815 68.1255 11.3559C68.121 12.9036 68.1255 14.533 68.1255 16.1352C68.1255 16.6481 67.9621 16.7615 67.4946 16.7297C66.9182 16.6934 66.3327 16.7297 65.7563 16.7297C65.4567 16.7297 65.366 16.6344 65.366 16.3394C65.366 13.2167 65.366 10.0941 65.366 6.97141C65.366 6.62193 65.5067 6.55383 65.8198 6.56291C66.4235 6.56291 67.0226 6.59468 67.6353 6.56291C68.0892 6.53568 68.1755 6.70818 68.1391 7.09851C68.1028 7.36176 68.1255 7.6477 68.1255 8.06527Z" fill="white"/>
<path d="M82.4179 6.38576C83.2133 6.42364 83.9874 6.65561 84.6725 7.06147C85.3576 7.46733 85.933 8.03475 86.3484 8.71414C86.6026 9.10901 86.5663 9.33591 86.0942 9.46753C85.8766 9.53264 85.6667 9.62093 85.4679 9.73082C84.7735 10.1075 84.2334 10.2391 83.5934 9.46299C82.9534 8.68686 81.8914 8.67325 80.9382 9.00912C79.8444 9.40399 79.3587 10.2936 79.2316 11.3965C79.1565 11.9846 79.2752 12.5811 79.5699 13.0955C79.8646 13.61 80.3191 14.0142 80.8644 14.2468C81.4098 14.4794 82.0161 14.5277 82.5914 14.3844C83.1666 14.241 83.6794 13.9139 84.0518 13.4526C84.0814 13.3939 84.1234 13.3423 84.1748 13.3014C84.2263 13.2605 84.286 13.2312 84.3499 13.2157C84.4138 13.2001 84.4803 13.1987 84.5448 13.2113C84.6093 13.224 84.6703 13.2506 84.7236 13.2892C85.2106 13.5187 85.709 13.7232 86.2168 13.9019C86.5844 14.0335 86.6344 14.1833 86.4392 14.5237C86.1179 15.0817 85.684 15.5668 85.1652 15.9481C84.6464 16.3294 84.0539 16.5986 83.4255 16.7386C80.9019 17.3831 78.2377 16.3211 77.0985 14.2015C75.1559 10.6068 77.7883 6.37668 82.4179 6.38576Z" fill="white"/>
<path d="M132.095 24.677C132.095 26.7875 132.095 28.898 132.095 31.0312C132.095 31.4851 132.022 31.6712 131.523 31.6349C130.943 31.5941 130.36 31.5941 129.78 31.6349C129.385 31.6349 129.299 31.5032 129.299 31.1356C129.299 26.9539 129.299 22.7752 129.299 18.5996C129.299 18.2228 129.421 18.1049 129.789 18.0731C130.387 18.0208 130.982 17.9298 131.568 17.8007C132.022 17.7054 132.095 17.837 132.09 18.2546C132.086 20.3742 132.095 22.5301 132.095 24.677Z" fill="white"/>
<path d="M124.778 26.5377C124.778 25.0082 124.778 23.4786 124.778 21.9491C124.778 21.5315 124.901 21.4135 125.305 21.4362C125.864 21.468 126.425 21.468 126.984 21.4362C127.438 21.409 127.542 21.5452 127.538 21.9854C127.538 24.5498 127.538 27.1096 127.538 29.674C127.538 30.2913 127.747 31.1174 127.433 31.4895C127.12 31.8617 126.222 31.5531 125.618 31.6303C125.014 31.7074 124.778 31.4987 124.806 30.8405C124.819 29.3927 124.778 27.9765 124.778 26.5377Z" fill="white"/>
<path d="M126.208 17.4333C126.603 17.4354 126.983 17.5907 127.266 17.8666C127.55 18.1425 127.715 18.5176 127.728 18.9129C127.707 19.3195 127.53 19.702 127.233 19.9804C126.936 20.2588 126.542 20.4114 126.135 20.4062C125.727 20.4006 125.337 20.2381 125.045 19.9525C124.754 19.6669 124.583 19.28 124.569 18.872C124.601 18.4659 124.79 18.0881 125.096 17.8192C125.402 17.5504 125.801 17.412 126.208 17.4333V17.4333Z" fill="white"/>
<path d="M10.3881 11.9421L10.3743 11.8914L10.4112 11.9006L10.3881 11.9421Z" fill="white"/>
</svg>
