<svg width="175" height="51" viewBox="0 0 175 51" fill="none" xmlns="http://www.w3.org/2000/svg">
<path d="M12.946 39.746C12.8945 39.2114 12.8074 38.6728 12.8074 38.1382C12.8074 29.9539 12.8074 21.7577 12.8074 13.5496C12.8074 13.0586 12.8905 12.5675 12.9341 12.0725C17.6625 16.595 22.2985 21.2072 26.8421 25.9092L12.946 39.746Z" fill="#547DBE"/>
<path d="M12.946 39.7461L26.8343 25.9093C26.8937 25.9093 26.957 25.9093 27.0164 25.9093L34.113 32.9663C28.8856 35.9998 23.678 39.0728 18.415 42.0509C16.1577 43.3419 13.8252 42.2806 12.946 39.7461Z" fill="#E84436"/>
<path d="M27.0281 25.921C26.9687 25.921 26.9053 25.921 26.8459 25.921C22.2917 21.2296 17.6531 16.6134 12.9299 12.0724C13.6507 9.51415 16.1179 8.34587 18.4266 9.65272C23.6817 12.6307 28.8774 15.7157 34.0969 18.7611L27.0281 25.921Z" fill="#30A752"/>
<path d="M27.0281 25.921L34.1088 18.7571C36.374 20.0481 38.6749 21.2876 40.9005 22.6459C43.4389 24.1943 43.4548 27.5684 40.9282 29.1049C38.6986 30.4593 36.3978 31.6909 34.1247 32.9779L27.0281 25.921Z" fill="#F8BA13"/>
<path d="M67.9325 24.4677C67.6484 24.6511 67.3831 24.8619 67.1404 25.0973C66.5504 25.7943 66.095 26.0082 65.1604 25.3627C62.6932 23.64 59.1291 24.2736 57.2163 26.5903C56.2571 27.7787 55.7567 29.2721 55.8061 30.7985C55.8555 32.3249 56.4515 33.7828 57.4856 34.9066C58.5329 35.9847 59.9323 36.6512 61.4293 36.7849C62.9264 36.9186 64.4217 36.5107 65.6435 35.6353C66.511 34.9733 67.1281 34.0364 67.3939 32.978C67.5523 32.4038 67.4414 32.186 66.788 32.186C65.4296 32.2256 64.0713 32.1504 62.7169 32.2137C61.6121 32.2652 61.9249 31.5167 61.8814 30.9465C61.8338 30.3168 61.8259 29.8099 62.7447 29.8377C64.8237 29.8971 66.9068 29.8852 68.9859 29.8377C69.7779 29.8377 69.9521 30.1505 69.9799 30.8752C70.1066 34.7601 67.9998 37.9044 64.5901 38.8588C60.523 39.9954 56.1906 38.2411 54.2383 34.6651C53.2805 32.9102 52.9765 30.8724 53.3804 28.9144C53.7844 26.9564 54.87 25.2052 56.4441 23.9727C59.7944 21.2362 64.4 21.3748 67.9325 24.4677Z" fill="black"/>
<path d="M103.253 38.0866C101.095 39.6231 99.0751 39.4806 97.1346 38.0351C96.245 37.3609 95.5848 36.4288 95.2439 35.3659C94.9031 34.3029 94.8981 33.1607 95.2298 32.0949C95.8951 29.8732 97.392 28.507 99.7246 28.1347C100.077 28.0516 100.445 28.0516 100.798 28.1347C102.105 28.5901 103.396 28.8871 104.782 28.4713C105.427 28.2773 105.609 28.6496 105.605 29.2871C105.574 32.582 105.629 35.8768 105.578 39.1875C105.6 40.2641 105.262 41.3172 104.616 42.1786C103.97 43.04 103.053 43.6601 102.014 43.9397C99.681 44.5733 97.2614 43.7773 96.006 41.8883C95.8001 41.5755 95.0278 41.0607 95.7961 40.7597C96.406 40.526 97.1069 39.3499 97.9108 40.5577C98.1707 40.9855 98.5391 41.3369 98.9787 41.5761C99.4182 41.8154 99.9133 41.934 100.414 41.92C102.354 41.8844 103.32 40.6369 103.253 38.0866ZM103.459 33.6789C103.459 31.8137 102.144 30.2772 100.521 30.2811C98.8969 30.2851 97.4633 31.8652 97.4396 33.6037C97.4158 35.3422 98.7781 36.9104 100.445 36.9579C102.113 37.0055 103.459 35.5838 103.459 33.6789Z" fill="black"/>
<path d="M126.448 30.6059C126.448 28.2615 126.475 25.9171 126.448 23.5727C126.448 22.8361 126.598 22.5549 127.398 22.5827C129.069 22.646 130.744 22.5827 132.416 22.6064C135.358 22.6658 137.694 24.9825 137.639 27.7229C137.584 30.4633 135.302 32.6098 132.4 32.6652C131.279 32.6652 129.786 32.3048 129.133 32.8711C128.364 33.5364 128.95 35.069 128.875 36.2214C128.826 36.6702 128.826 37.123 128.875 37.5718C129.045 38.6648 128.582 38.9223 127.541 38.8985C126.657 38.8985 126.412 38.6569 126.432 37.7738C126.487 35.3858 126.448 32.9979 126.448 30.6059ZM128.851 27.4656C128.851 30.4475 128.851 30.4475 131.758 30.4317C131.983 30.4556 132.21 30.4556 132.435 30.4317C132.875 30.3578 133.303 30.2246 133.707 30.0357C134.146 29.7979 134.51 29.4425 134.759 29.0095C135.008 28.5764 135.132 28.0827 135.116 27.5835C135.1 27.0842 134.946 26.5992 134.671 26.1825C134.395 25.7659 134.009 25.434 133.556 25.2241C132.162 24.6572 130.616 24.5873 129.176 25.0261C128.368 25.2201 129.045 26.7092 128.851 27.4656Z" fill="black"/>
<path d="M149.872 32.4514C149.274 30.3881 147.1 29.5763 145.69 30.8673C144.621 31.8653 143.956 30.9149 143.195 30.6376C142.724 30.4674 143.243 30.0198 143.417 29.7703C144.447 28.3011 146.91 27.6834 149.112 28.3051C149.988 28.5389 150.765 29.0518 151.325 29.7663C151.884 30.4808 152.196 31.358 152.212 32.2653C152.268 34.1146 152.212 35.968 152.212 37.8095C152.212 38.3639 152.3 38.9737 151.42 38.8232C150.767 38.7084 149.65 39.3698 149.805 37.7144C149.233 38.3539 148.48 38.8048 147.647 39.0077C146.813 39.2106 145.937 39.156 145.136 38.851C143.639 38.3599 142.76 37.2431 142.668 35.8016C142.596 35.0746 142.766 34.344 143.152 33.7236C143.538 33.1033 144.119 32.6282 144.803 32.3722C145.607 32.0312 146.473 31.8621 147.346 31.8758C148.219 31.8894 149.079 32.0855 149.872 32.4514ZM147.749 33.8968C147.496 33.9206 147.27 33.9324 147.048 33.9602C145.757 34.1344 144.985 34.8868 145.163 35.7937C145.342 36.7006 146.474 37.1719 147.611 36.8946C147.875 36.8338 148.128 36.7309 148.359 36.5897C149.112 36.1264 149.943 35.4452 149.725 34.6096C149.508 33.774 148.454 34.0117 147.749 33.8968Z" fill="black"/>
<path d="M93.9547 33.6869C93.9547 36.8828 91.5786 39.1955 88.355 39.1678C86.8846 39.1541 85.4799 38.5569 84.4498 37.5075C83.4197 36.4581 82.8486 35.0425 82.8623 33.5721C82.876 32.1016 83.4732 30.6969 84.5226 29.6668C85.572 28.6367 86.9876 28.0657 88.458 28.0793C91.6776 28.115 93.9547 30.4436 93.9547 33.6869ZM85.3651 33.5879C85.3414 35.4888 86.6997 36.9699 88.462 36.962C90.1252 36.962 91.5469 35.4571 91.5746 33.683C91.6023 31.9088 90.1054 30.2535 88.4303 30.2812C86.7551 30.3089 85.4008 31.7702 85.373 33.5879H85.3651Z" fill="black"/>
<path d="M76.3082 39.1678C75.2146 39.1545 74.1494 38.8181 73.2466 38.2009C72.3437 37.5837 71.6436 36.7132 71.2343 35.6991C70.8249 34.6849 70.7247 33.5723 70.9462 32.5013C71.1676 31.4303 71.7009 30.4487 72.4789 29.6801C73.2569 28.9114 74.2448 28.3901 75.3184 28.1816C76.392 27.973 77.5033 28.0867 78.5124 28.5082C79.5216 28.9297 80.3835 29.6403 80.9898 30.5505C81.5961 31.4608 81.9196 32.53 81.9197 33.6236C81.9346 34.3615 81.7991 35.0947 81.5215 35.7785C81.2439 36.4624 80.83 37.0825 80.305 37.6013C79.78 38.12 79.1549 38.5264 78.4677 38.7957C77.7806 39.065 77.0458 39.1916 76.3082 39.1678ZM79.4406 33.6236C79.4406 31.8415 78.0427 30.3367 76.3755 30.301C74.7083 30.2654 73.2074 31.8495 73.2351 33.683C73.2628 35.5166 74.6172 36.962 76.3003 36.9818C78.0546 36.9778 79.4525 35.4849 79.4406 33.6038V33.6236Z" fill="black"/>
<path d="M110.904 33.5365C110.952 30.6852 112.623 28.6497 115.292 28.1942C117.692 27.7982 119.846 29.113 120.836 31.5287C121.09 32.1465 120.983 32.3762 120.397 32.6098C118.416 33.4018 116.492 34.2533 114.512 34.9859C113.688 35.2948 113.823 35.6037 114.282 36.0947C115.339 37.2194 117.145 37.2432 118.44 36.1422C119.066 35.6076 120.571 35.9165 120.816 36.6452C120.971 37.0808 120.555 37.2669 120.337 37.5006C119.553 38.2906 118.553 38.8321 117.463 39.0575C116.373 39.2828 115.24 39.1821 114.207 38.7678C113.187 38.3391 112.323 37.6074 111.732 36.6718C111.142 35.7362 110.853 34.6418 110.904 33.5365ZM113.395 33.4098C114.9 32.7959 116.226 32.2455 117.561 31.7148C118.317 31.4138 118.159 31.0772 117.628 30.7169C117.265 30.4425 116.828 30.2808 116.374 30.2519C115.919 30.2231 115.466 30.3283 115.07 30.5545C114.041 31.1129 113.32 31.9247 113.395 33.4058V33.4098Z" fill="black"/>
<path d="M163.412 28.618C161.281 33.485 159.198 38.3481 157.024 43.1676C156.474 44.3873 155.305 43.4804 154.224 43.7854C154.937 42.1815 155.499 40.7717 156.185 39.4292C156.384 39.087 156.492 38.6992 156.498 38.3032C156.504 37.9072 156.409 37.5163 156.22 37.168C155.032 34.6454 153.971 32.0673 152.815 29.5288C152.466 28.7606 152.418 28.4754 153.456 28.4477C154.593 28.416 155.242 28.6457 155.634 29.8417C156.228 31.6753 157.076 33.4058 157.931 35.4849C158.648 33.691 159.285 32.1029 159.911 30.5109C160.81 28.2497 160.81 28.2497 163.412 28.618Z" fill="black"/>
<path d="M141.358 30.7644C141.358 33.1404 141.302 35.5482 141.381 37.9362C141.421 39.0965 140.7 38.8431 140.071 38.851C139.441 38.8589 138.851 39.0529 138.863 37.9837C138.918 33.155 138.918 28.3289 138.863 23.5054C138.863 22.3451 139.528 22.6183 140.158 22.5827C140.882 22.547 141.429 22.5193 141.385 23.5925C141.29 26.0122 141.358 28.3883 141.358 30.7644Z" fill="black"/>
<path d="M107.257 30.7326C107.257 28.3566 107.328 25.9488 107.225 23.5608C107.178 22.4124 107.831 22.6025 108.5 22.5985C109.17 22.5945 109.775 22.4282 109.756 23.5608C109.684 28.342 109.684 33.1233 109.756 37.9045C109.775 39.0371 109.173 38.8747 108.5 38.8668C107.827 38.8588 107.178 39.0529 107.225 37.9045C107.328 35.5165 107.257 33.1404 107.257 30.7326Z" fill="black"/>
<path d="M137.698 14.5831C137.698 12.8288 137.698 11.2804 137.698 9.73196C137.698 9.23298 137.599 8.75377 138.407 8.76169C139.215 8.76961 138.974 9.29238 138.978 9.68444C138.978 11.7556 139.001 13.8267 138.978 15.9018C138.978 16.2345 139.267 16.777 138.665 16.8959C138.41 16.9845 138.132 16.9771 137.883 16.875C137.633 16.7729 137.43 16.5831 137.31 16.3414C136.376 14.698 135.33 13.1139 134.352 11.5061C134.241 11.3319 134.122 11.1616 133.829 10.7141V16.0444C133.829 16.4919 133.932 16.9513 133.192 16.9157C132.515 16.884 132.665 16.4365 132.665 16.0682C132.665 13.9495 132.645 11.8308 132.665 9.73196C132.665 9.39535 132.392 8.84093 133.061 8.79341C133.536 8.75776 134 8.69042 134.328 9.2686C135.12 10.6745 136 12.0407 136.855 13.4149C137.089 13.7752 137.358 14.1079 137.698 14.5831Z" fill="black"/>
<path d="M105.74 13.6645C105.007 13.6645 104.294 13.6645 103.582 13.6645C103.186 13.6645 103.043 13.5022 103.039 13.1022C103.035 12.7023 103.225 12.5597 103.609 12.5676C104.195 12.5676 104.797 12.5676 105.372 12.5676C107.118 12.5676 107.352 12.92 106.805 14.6071C106.551 15.3351 106.085 15.97 105.465 16.4291C104.846 16.8881 104.103 17.1502 103.332 17.1812C102.659 17.2309 101.984 17.1237 101.36 16.8679C100.735 16.6122 100.179 16.2149 99.7343 15.7074C99.2897 15.1999 98.9691 14.596 98.7977 13.9435C98.6263 13.2909 98.6088 12.6074 98.7467 11.9469C98.8845 11.2864 99.1739 10.667 99.592 10.1375C100.01 9.60794 100.545 9.18271 101.156 8.8954C101.766 8.60808 102.435 8.46652 103.11 8.48184C103.784 8.49715 104.446 8.66894 105.043 8.98367C105.391 9.15792 106.069 9.22918 105.787 9.85092C105.506 10.4727 105.067 10.3222 104.516 9.97767C103.928 9.63127 103.239 9.49768 102.564 9.59935C101.889 9.70102 101.27 10.0318 100.81 10.5361C100.345 11.092 100.058 11.7753 99.9875 12.4966C99.9168 13.2179 100.065 13.9437 100.414 14.5794C100.754 15.1734 101.284 15.6361 101.919 15.8938C102.553 16.1514 103.256 16.1892 103.914 16.001C104.928 15.7159 105.49 15.015 105.74 13.6645Z" fill="black"/>
<path d="M98.1681 16.8048C97.2097 17.0781 96.6514 16.8642 96.2435 16.0801C95.8712 15.3673 95.3406 14.7377 94.901 14.0565C94.7962 13.8818 94.6329 13.7497 94.4401 13.6838C94.2473 13.6178 94.0374 13.6222 93.8476 13.6961C93.4159 13.8189 93.6258 14.2189 93.6139 14.4882C93.5822 15.0743 93.6139 15.6762 93.6139 16.2425C93.6139 16.6385 93.6417 16.9633 93.0714 16.9237C92.6754 16.8959 92.3823 16.8682 92.3863 16.3494C92.3863 14.009 92.3863 11.6685 92.3863 9.32807C92.3863 9.03106 92.4496 8.76573 92.814 8.78949C93.9307 8.85286 95.0673 8.58355 96.1682 8.97165C96.5804 9.09174 96.9491 9.32828 97.2301 9.65283C97.5111 9.97738 97.6924 10.3761 97.7523 10.8012C97.9107 11.7794 97.6691 12.6467 96.782 13.1258C95.99 13.5496 96.0692 13.9179 96.5524 14.5119C97.1226 15.2089 97.5899 15.9732 98.1681 16.8048ZM94.5525 9.8825C93.3169 9.46272 93.6139 10.4646 93.602 11.1972C93.5902 11.9299 93.3446 12.7496 94.6594 12.6071C95.6297 12.5041 96.5444 12.4843 96.5682 11.2408C96.5919 9.99732 95.7168 9.81122 94.5525 9.8825Z" fill="black"/>
<path d="M122.349 16.789C121.458 17.0702 120.888 16.9276 120.464 16.1475C120.04 15.3673 119.513 14.7297 119.05 14.009C118.947 13.8614 118.8 13.7499 118.631 13.6902C118.461 13.6305 118.276 13.6257 118.104 13.6764C117.597 13.7397 117.811 14.1516 117.799 14.4169C117.767 15.0466 117.767 15.6802 117.799 16.3099C117.799 16.7613 117.676 16.9395 117.193 16.9316C116.71 16.9237 116.567 16.7455 116.567 16.294C116.567 13.9971 116.567 11.7002 116.567 9.40731C116.567 9.06673 116.607 8.76182 117.058 8.78558C118.088 8.84499 119.133 8.63112 120.151 8.91229C120.596 9.00151 121.004 9.22325 121.32 9.54837C121.637 9.87349 121.848 10.2868 121.925 10.734C122.123 11.7597 121.874 12.6745 120.919 13.1616C120.127 13.5576 120.27 13.9021 120.698 14.4565C121.28 15.1931 121.783 15.9812 122.349 16.789ZM118.785 9.87859C117.514 9.52614 117.791 10.4885 117.775 11.2211C117.759 11.9537 117.569 12.7497 118.856 12.6111C119.834 12.5042 120.737 12.4606 120.745 11.2211C120.753 9.98156 119.87 9.81127 118.793 9.87859H118.785Z" fill="black"/>
<path d="M54.3928 12.8566V11.0943C54.3928 8.71818 54.3928 8.71819 56.8402 8.78156C59.446 8.85284 61.0577 10.4409 61.0261 12.912C61.0023 15.3119 59.4064 16.8444 56.856 16.9157C54.3928 16.987 54.3928 16.987 54.3928 14.4802V12.8566ZM55.5571 12.7655C55.5571 13.5298 55.5571 14.2941 55.5571 15.0544C55.5571 15.3989 55.47 15.791 56.0482 15.8029C57.2362 15.8266 58.448 15.8385 59.2163 14.7534C59.5791 14.2615 59.7932 13.6758 59.8332 13.0658C59.8732 12.4559 59.7374 11.8472 59.442 11.3121C59.1134 10.7405 58.6036 10.2947 57.9933 10.0451C57.383 9.79554 56.7069 9.75643 56.0719 9.93397C54.9433 10.2468 55.7868 11.2883 55.5571 11.9655C55.51 12.2297 55.5046 12.4997 55.5413 12.7655H55.5571Z" fill="black"/>
<path d="M71.3223 17.1097C70.8 17.1127 70.2861 16.9776 69.8327 16.7182C69.3794 16.4588 69.0025 16.0844 68.7403 15.6326C68.5621 15.3316 68.2888 14.9792 68.8274 14.7534C69.1719 14.6029 69.5482 14.302 69.7858 14.9514C69.8718 15.1623 70.0024 15.3521 70.1684 15.5079C70.3345 15.6637 70.5322 15.7819 70.7481 15.8544C71.5837 16.1672 72.2965 15.993 72.7044 15.193C73.1123 14.3931 72.5816 13.9179 71.9361 13.609C71.2906 13.3001 70.6847 13.0981 70.0709 12.817C69.5985 12.641 69.2081 12.2964 68.9748 11.8496C68.7415 11.4028 68.682 10.8854 68.8076 10.3973C69.0294 9.23694 69.8967 8.77759 70.9421 8.64691C71.4372 8.55996 71.947 8.62148 72.4072 8.82374C72.8674 9.026 73.2574 9.35993 73.5281 9.78347C73.6865 10.0211 73.7895 10.2983 73.4093 10.429C73.1123 10.528 72.8232 10.8686 72.4866 10.3894C72.3247 10.1128 72.0695 9.90303 71.7668 9.79778C71.4641 9.69252 71.1338 9.69866 70.8352 9.81513C70.3877 9.96958 70.0075 10.1636 69.9679 10.7181C69.9419 10.9222 69.9851 11.1292 70.0906 11.3058C70.1962 11.4824 70.358 11.6185 70.5501 11.6922C71.1639 11.9694 71.8134 12.1754 72.4232 12.4605C73.6826 13.0466 74.2805 14.1317 74.0073 15.2762C73.734 16.4207 72.645 17.1097 71.3223 17.1097Z" fill="black"/>
<path d="M90.9728 16.789C89.8837 17.185 89.4481 16.7019 89.3174 15.8702C89.0521 14.1555 87.7334 14.9158 86.7869 14.7534C85.8404 14.5911 85.3256 14.8485 85.1791 15.8386C85.0484 16.7256 84.5771 17.2206 83.5198 16.7969C84.4504 14.3258 85.385 11.8507 86.2919 9.37161C86.3366 9.17526 86.4545 9.00331 86.6214 8.89076C86.7884 8.7782 86.992 8.73348 87.1908 8.7657C87.4101 8.73248 87.6339 8.78227 87.8185 8.90531C88.0031 9.02834 88.1351 9.21581 88.1888 9.43102C89.0957 11.8824 90.0342 14.3139 90.9728 16.789ZM85.9632 13.6684C86.6998 13.6684 87.3215 13.6684 87.9433 13.6684C88.3789 13.6684 88.5333 13.4902 88.3393 13.1021C87.9037 12.1596 87.8244 11.0745 87.1512 10.1042L85.9632 13.6684Z" fill="black"/>
<path d="M107.704 16.797C108.635 14.3219 109.573 11.8468 110.476 9.36375C110.523 9.16807 110.642 8.99738 110.809 8.88633C110.977 8.77528 111.181 8.73217 111.379 8.76577C111.599 8.73393 111.823 8.78534 112.007 8.90987C112.19 9.03441 112.321 9.22312 112.373 9.43902C113.264 11.8864 114.207 14.3179 115.145 16.7613C114.127 17.2128 113.64 16.7613 113.502 15.8624C113.232 14.1318 111.894 14.9238 110.963 14.7535C110.033 14.5832 109.51 14.8644 109.379 15.8465C109.225 16.7336 108.75 17.2207 107.704 16.797ZM110.148 13.6684C110.884 13.6684 111.502 13.6684 112.128 13.6684C112.559 13.6684 112.73 13.5021 112.551 13.1101C112.12 12.1636 112.037 11.0745 111.363 10.1043C110.944 11.3201 110.587 12.421 110.148 13.6684Z" fill="black"/>
<path d="M75.3699 12.7258C75.4451 11.1418 76.1223 9.82699 77.6311 9.07061C78.2669 8.7186 78.9864 8.54629 79.7127 8.57211C80.4389 8.59792 81.1445 8.82087 81.7536 9.21713C82.0704 9.41514 82.7159 9.5617 82.2724 10.1914C81.9279 10.6903 81.619 10.5121 81.1675 10.223C80.5729 9.79951 79.8374 9.62273 79.1153 9.72979C78.3932 9.83685 77.7406 10.2194 77.2945 10.7972C76.8298 11.4105 76.5873 12.1635 76.6067 12.9327C76.6261 13.7019 76.9064 14.4416 77.4014 15.0306C77.8842 15.5799 78.5585 15.9239 79.2866 15.9924C80.0146 16.0609 80.7413 15.8486 81.318 15.3989C81.7893 15.0623 82.1101 14.8089 82.5061 15.3989C82.9852 16.1117 82.2407 16.2147 81.9081 16.4246C81.269 16.8546 80.5224 17.0972 79.7526 17.1252C78.9828 17.1532 78.2206 16.9654 77.5519 16.583C76.051 15.783 75.3976 14.4524 75.3699 12.7258Z" fill="black"/>
<path d="M126.087 12.7576C126.087 11.72 126.111 10.6864 126.087 9.64888C126.087 9.06674 126.155 8.73405 126.879 8.76969C128.004 8.82909 129.137 8.76969 130.265 8.76969C130.634 8.76969 130.974 8.73408 130.974 9.30038C130.974 9.86669 130.685 9.86269 130.289 9.85477C129.794 9.85477 129.295 9.85477 128.8 9.85477C127.339 9.85477 126.947 10.429 127.295 11.8903C127.41 12.3655 127.691 12.2863 127.988 12.2863C128.622 12.2863 129.251 12.2863 129.885 12.2863C130.234 12.2863 130.594 12.2071 130.618 12.7853C130.645 13.4387 130.245 13.3714 129.826 13.3674C129.421 13.3952 129.015 13.3952 128.61 13.3674C127.58 13.2209 127.22 13.5575 127.263 14.6505C127.295 15.5574 127.45 15.9614 128.452 15.8386C129.117 15.7554 129.802 15.8386 130.479 15.8386C130.931 15.8386 130.97 16.092 130.97 16.4445C130.97 16.7969 130.816 16.9197 130.491 16.9197H126.559C125.969 16.9197 126.115 16.4682 126.111 16.1277C126.079 15.007 126.087 13.8823 126.087 12.7576Z" fill="black"/>
<path d="M64.808 16.9038C62.5032 16.9038 62.5032 16.9038 62.5032 14.599C62.5032 12.9318 62.5309 11.2646 62.5032 9.59733C62.5032 8.95183 62.6695 8.73002 63.3348 8.76566C64.4159 8.81714 65.501 8.76566 66.5861 8.76566C66.9821 8.76566 67.4058 8.67856 67.3781 9.33595C67.3504 9.99333 66.8752 9.82306 66.5188 9.84286C66.0234 9.88642 65.5251 9.88642 65.0297 9.84286C64.016 9.70821 63.6279 10.0092 63.6754 11.118C63.715 12.013 63.8496 12.4447 64.8634 12.3061C65.4502 12.2664 66.0389 12.2664 66.6257 12.3061C67.0217 12.3061 67.0217 12.5476 67.0217 12.8446C67.0217 13.1416 66.99 13.3792 66.6257 13.3792C66.0849 13.409 65.5428 13.409 65.002 13.3792C64.0635 13.2684 63.6873 13.4822 63.6912 14.5673C63.6952 15.6524 64.0437 15.9692 65.0535 15.8385C65.5489 15.795 66.0471 15.795 66.5425 15.8385C66.9029 15.8385 67.3821 15.6524 67.4019 16.3454C67.4217 17.0384 67.0059 16.9117 66.6099 16.9117L64.808 16.9038Z" fill="black"/>
<path d="M87.6182 50.7433C60.808 50.7433 33.9978 50.7077 7.18762 50.783C3.73833 50.783 0.85139 48.4742 0.883071 44.4824C1.02564 31.9762 0.934543 19.4661 0.934543 6.95997C0.934543 3.21367 3.17203 0.968262 6.91437 0.968262H168.326C172.068 0.968262 174.306 3.21366 174.306 6.956V44.6249C174.306 48.5573 172.12 50.7512 168.191 50.7512L87.6182 50.7433ZM34.0929 18.7573C28.8734 15.7159 23.6777 12.6309 18.4226 9.64892C16.1138 8.34207 13.6466 9.51031 12.9259 12.0686C12.8823 12.5636 12.8031 13.0546 12.7992 13.5457C12.7992 21.73 12.7992 29.9262 12.7992 38.1342C12.7992 38.6688 12.8863 39.2075 12.9378 39.7421C13.8169 42.2766 16.1494 43.3379 18.4067 42.0587C23.6698 39.0807 28.8773 36.0076 34.1047 32.9741C36.3779 31.6871 38.6787 30.4555 40.9083 29.1012C43.4348 27.5646 43.419 24.1906 40.8806 22.6421C38.6629 21.2878 36.362 20.0483 34.0968 18.7573H34.0929ZM67.9284 24.4678C64.3959 21.3749 59.7902 21.2363 56.4439 23.9371C54.8698 25.1697 53.7842 26.9208 53.3803 28.8788C52.9764 30.8368 53.2803 32.8746 54.2381 34.6295C56.1905 38.1936 60.5229 39.9599 64.59 38.8233C68.0076 37.8689 70.1064 34.7245 69.9797 30.8396C69.952 30.1149 69.7896 29.7823 68.9857 29.8021C66.9066 29.8456 64.8236 29.8575 62.7445 29.8021C61.8258 29.7743 61.8337 30.2813 61.8812 30.9109C61.9208 31.4812 61.6119 32.2296 62.7168 32.1782C64.0712 32.1148 65.4295 32.1782 66.7878 32.1505C67.4412 32.1505 67.5521 32.3722 67.3937 32.9425C67.1279 34.0009 66.5108 34.9377 65.6433 35.5997C64.4216 36.4751 62.9262 36.8831 61.4292 36.7493C59.9321 36.6156 58.5327 35.9491 57.4854 34.8711C56.4514 33.7472 55.8554 32.2893 55.806 30.763C55.7565 29.2366 56.257 27.7432 57.2162 26.5548C59.1289 24.2381 62.693 23.6045 65.1602 25.3271C66.0869 25.9726 66.5423 25.7588 67.1403 25.0618C67.3846 24.8388 67.6498 24.6399 67.9323 24.4678H67.9284ZM103.249 38.0867C103.316 40.637 102.35 41.8845 100.429 41.9083C99.929 41.9223 99.4339 41.8036 98.9943 41.5644C98.5547 41.3251 98.1863 40.9737 97.9265 40.5459C97.1344 39.3579 96.4216 40.5143 95.8117 40.7479C95.0435 41.0489 95.8117 41.5637 96.0216 41.8766C97.2849 43.7656 99.6967 44.5615 102.029 43.9279C103.069 43.6483 103.985 43.0283 104.631 42.1669C105.277 41.3055 105.616 40.2523 105.593 39.1757C105.645 35.8809 105.593 32.5861 105.621 29.2754C105.621 28.6378 105.443 28.2656 104.797 28.4596C103.411 28.8556 102.12 28.5784 100.813 28.123C100.461 28.0398 100.093 28.0398 99.7402 28.123C97.4077 28.4873 95.9108 29.8535 95.2454 32.0831C94.9138 33.149 94.9187 34.2911 95.2596 35.3541C95.6004 36.417 96.2606 37.3491 97.1503 38.0233C99.0749 39.4767 101.083 39.6232 103.253 38.0867H103.249ZM126.443 30.606C126.443 32.9821 126.483 35.3859 126.42 37.7738C126.42 38.657 126.645 38.8827 127.529 38.8986C128.57 38.9223 129.033 38.6649 128.863 37.5719C128.814 37.1231 128.814 36.6703 128.863 36.2215C128.938 35.0691 128.352 33.5365 129.121 32.8712C129.774 32.3049 131.267 32.6851 132.388 32.6653C135.29 32.6098 137.568 30.4634 137.627 27.723C137.686 24.9826 135.346 22.6659 132.404 22.6065C130.732 22.5748 129.057 22.6461 127.386 22.5827C126.594 22.555 126.42 22.8362 126.436 23.5728C126.475 25.9172 126.447 28.2616 126.447 30.606H126.443ZM149.868 32.4514C149.076 32.0952 148.22 31.9073 147.352 31.8998C146.484 31.8923 145.624 32.0653 144.826 32.4079C144.142 32.6638 143.562 33.139 143.176 33.7594C142.789 34.3797 142.619 35.1103 142.692 35.8374C142.767 37.2789 143.662 38.3956 145.159 38.8867C145.961 39.1917 146.837 39.2463 147.67 39.0434C148.504 38.8405 149.256 38.3895 149.828 37.7501C149.674 39.4054 150.79 38.7441 151.444 38.8589C152.311 39.0094 152.236 38.3996 152.236 37.8451C152.236 35.9958 152.275 34.1424 152.236 32.3009C152.219 31.3937 151.908 30.5164 151.348 29.802C150.789 29.0875 150.012 28.5746 149.135 28.3408C146.933 27.719 144.47 28.3408 143.44 29.806C143.266 30.0555 142.747 30.503 143.219 30.6733C143.979 30.9505 144.644 31.901 145.714 30.903C147.088 29.5763 149.274 30.3882 149.872 32.4514H149.868ZM93.9544 33.687C93.9544 30.4436 91.6694 28.1151 88.4577 28.0953C86.9873 28.0816 85.5717 28.6526 84.5223 29.6827C83.4729 30.7128 82.8757 32.1176 82.8621 33.588C82.8484 35.0584 83.4194 36.474 84.4495 37.5234C85.4796 38.5728 86.8844 39.17 88.3548 39.1837C91.5783 39.1956 93.9544 36.8828 93.9544 33.687ZM76.3001 39.1678C77.3943 39.1678 78.464 38.844 79.3745 38.2372C80.285 37.6304 80.9956 36.7677 81.4168 35.7579C81.838 34.7481 81.9509 33.6362 81.7415 32.5622C81.532 31.4883 81.0095 30.5004 80.2396 29.7228C79.4698 28.9453 78.4871 28.413 77.4153 28.1928C76.3435 27.9727 75.2306 28.0746 74.2166 28.4857C73.2026 28.8969 72.3329 29.5988 71.7171 30.5033C71.1013 31.4077 70.7668 32.4741 70.7559 33.5682C70.7382 34.3043 70.8694 35.0365 71.1415 35.7208C71.4137 36.405 71.8212 37.0272 72.3397 37.5502C72.8582 38.0731 73.4769 38.4859 74.1588 38.7639C74.8407 39.0419 75.5717 39.1792 76.308 39.1678H76.3001ZM110.904 33.5365C110.851 34.6476 111.143 35.7479 111.739 36.6871C112.335 37.6262 113.206 38.3584 114.234 38.7837C115.268 39.198 116.4 39.2987 117.49 39.0734C118.581 38.848 119.58 38.3065 120.365 37.5165C120.582 37.2828 120.998 37.0967 120.844 36.6611C120.579 35.9324 119.074 35.6235 118.468 36.1581C117.173 37.259 115.367 37.2353 114.31 36.1106C113.85 35.6195 113.716 35.3186 114.539 35.0017C116.519 34.2533 118.456 33.39 120.424 32.6257C121.01 32.392 121.117 32.1623 120.864 31.5445C119.866 29.1288 117.696 27.7983 115.319 28.2101C112.623 28.6457 110.951 30.6812 110.904 33.5365ZM163.411 28.6219C160.81 28.2537 160.81 28.2537 159.915 30.507C159.285 32.091 158.647 33.6751 157.935 35.4809C157.079 33.4217 156.232 31.6713 155.638 29.8377C155.242 28.6497 154.596 28.4121 153.46 28.4438C152.442 28.4715 152.47 28.7566 152.818 29.5249C153.974 32.0633 155.04 34.6414 156.224 37.164C156.412 37.5123 156.508 37.9033 156.502 38.2993C156.496 38.6953 156.388 39.083 156.188 39.4252C155.503 40.7757 154.941 42.1973 154.228 43.7814C155.309 43.4765 156.477 44.3834 157.028 43.1636C159.198 38.3481 161.277 33.485 163.411 28.618V28.6219ZM141.357 30.7644C141.357 28.3883 141.29 25.9805 141.385 23.5926C141.429 22.5194 140.882 22.5471 140.157 22.5827C139.528 22.6184 138.847 22.3451 138.863 23.5055C138.926 28.3289 138.926 33.155 138.863 37.9837C138.863 39.053 139.468 38.855 140.07 38.851C140.672 38.8471 141.421 39.0965 141.381 37.9362C141.302 35.5601 141.357 33.1682 141.357 30.7644ZM107.257 30.7208C107.257 33.0969 107.328 35.5047 107.225 37.8927C107.177 39.0411 107.835 38.851 108.5 38.855C109.165 38.859 109.775 39.0253 109.755 37.8927C109.684 33.1141 109.684 28.3329 109.755 23.549C109.775 22.4164 109.169 22.5827 108.5 22.5867C107.831 22.5906 107.177 22.4006 107.225 23.549C107.328 25.9489 107.257 28.3408 107.257 30.7327V30.7208ZM137.698 14.5714C137.358 14.0961 137.088 13.7793 136.867 13.3833C136.011 12.0091 135.136 10.6429 134.34 9.23705C134.011 8.65887 133.548 8.72616 133.073 8.7618C132.392 8.80932 132.677 9.36379 132.677 9.7004C132.649 11.8151 132.677 13.9338 132.677 16.0366C132.677 16.4049 132.526 16.8524 133.203 16.8841C133.944 16.9197 133.841 16.4604 133.841 16.0129V10.6825C134.134 11.1142 134.237 11.2845 134.364 11.4745C135.358 13.0824 136.387 14.6664 137.322 16.3099C137.441 16.5516 137.645 16.7413 137.894 16.8435C138.144 16.9456 138.422 16.953 138.676 16.8643C139.278 16.7455 138.981 16.2029 138.989 15.8703C139.021 13.7952 139.013 11.724 138.989 9.65284C138.989 9.25682 139.215 8.73806 138.419 8.73014C137.623 8.72222 137.706 9.20143 137.71 9.7004C137.702 11.2805 137.698 12.8289 137.698 14.5832V14.5714ZM105.74 13.6526C105.49 15.003 104.948 15.704 103.926 16.001C103.268 16.1891 102.565 16.1514 101.931 15.8937C101.296 15.636 100.766 15.1733 100.425 14.5793C100.077 13.9437 99.9286 13.2178 99.9992 12.4965C100.07 11.7752 100.356 11.092 100.821 10.536C101.281 10.0317 101.901 9.70094 102.576 9.59927C103.251 9.4976 103.94 9.6312 104.528 9.9776C105.078 10.3221 105.514 10.4845 105.799 9.85084C106.084 9.21722 105.403 9.15784 105.055 8.98359C104.188 8.53081 103.193 8.38648 102.234 8.57433C101.275 8.76219 100.408 9.27105 99.7759 10.0172C99.2273 10.667 98.8809 11.4631 98.7794 12.3074C98.6779 13.1517 98.8257 14.0073 99.2047 14.7686C99.5836 15.5299 100.177 16.1636 100.912 16.5916C101.647 17.0196 102.491 17.2231 103.34 17.1771C104.11 17.1461 104.854 16.8841 105.473 16.425C106.092 15.9659 106.559 15.3311 106.813 14.603C107.375 12.916 107.126 12.5636 105.379 12.5636C104.793 12.5636 104.191 12.5636 103.617 12.5636C103.221 12.5636 103.047 12.6705 103.047 13.0982C103.047 13.5259 103.174 13.6724 103.589 13.6606C104.294 13.6526 105.007 13.6645 105.74 13.6645V13.6526ZM98.168 16.793C97.5899 15.9614 97.1186 15.2089 96.5563 14.504C96.0731 13.906 95.9939 13.5417 96.7859 13.118C97.673 12.6388 97.9146 11.7715 97.7562 10.7934C97.6963 10.3683 97.515 9.96951 97.234 9.64496C96.953 9.32041 96.5843 9.08387 96.1721 8.96377C95.0712 8.56776 93.9346 8.84499 92.8179 8.78162C92.4535 8.75786 92.3902 9.02319 92.3902 9.3202C92.3902 11.6606 92.3902 14.0011 92.3902 16.3415C92.3902 16.8603 92.6714 16.8881 93.0753 16.9158C93.6456 16.9554 93.6218 16.6148 93.6178 16.2346C93.6178 15.6525 93.5941 15.0664 93.6178 14.4803C93.6178 14.207 93.4198 13.8071 93.8515 13.6883C94.0413 13.6144 94.2512 13.61 94.444 13.6759C94.6368 13.7419 94.8001 13.8739 94.9049 14.0486C95.3445 14.7298 95.8751 15.3594 96.2474 16.0723C96.6513 16.8643 97.2097 17.0781 98.168 16.8049V16.793ZM122.349 16.793C121.782 16.001 121.275 15.2089 120.697 14.4605C120.27 13.906 120.131 13.5655 120.919 13.1655C121.873 12.6784 122.107 11.7636 121.925 10.738C121.848 10.2908 121.637 9.87745 121.32 9.55233C121.003 9.22721 120.596 9.00548 120.151 8.91625C119.133 8.63508 118.088 8.84895 117.058 8.78955C116.606 8.76579 116.567 9.0707 116.567 9.41127C116.567 11.7042 116.567 14.0011 116.567 16.298C116.567 16.7494 116.717 16.9237 117.193 16.9356C117.668 16.9474 117.818 16.7653 117.798 16.3138C117.771 15.6842 117.771 15.0505 117.798 14.4209C117.798 14.1555 117.596 13.7437 118.103 13.6803C118.276 13.6297 118.46 13.6345 118.63 13.6942C118.8 13.7539 118.947 13.8654 119.05 14.013C119.513 14.7337 120.06 15.403 120.464 16.1515C120.868 16.8999 121.458 17.0702 122.349 16.789V16.793ZM54.3926 12.8606V14.4842C54.3926 16.991 54.3926 16.991 56.8558 16.9197C59.4061 16.8485 61.0021 15.3357 61.0258 12.916C61.0575 10.4449 59.4418 8.85687 56.8399 8.78559C54.3926 8.72222 54.3926 8.72221 54.3926 11.0983V12.8606ZM71.3222 17.1138C72.6449 17.1138 73.7498 16.3455 74.0072 15.2525C74.2646 14.1595 73.6824 13.0229 72.4231 12.4368C71.8133 12.1517 71.1638 11.9458 70.55 11.6686C70.3578 11.5949 70.1961 11.4587 70.0905 11.2821C69.9849 11.1055 69.9417 10.8985 69.9678 10.6944C70.0074 10.1399 70.3876 9.94593 70.8351 9.79148C71.1337 9.67501 71.464 9.66882 71.7667 9.77408C72.0694 9.87933 72.3246 10.0891 72.4865 10.3657C72.8231 10.8449 73.1122 10.5043 73.4092 10.4053C73.8052 10.2746 73.6864 10.0093 73.528 9.75977C73.2573 9.33623 72.8672 9.0023 72.4071 8.80004C71.9469 8.59779 71.4371 8.53626 70.942 8.62321C69.8965 8.75389 69.0293 9.21329 68.8075 10.3736C68.6818 10.8617 68.7414 11.3791 68.9747 11.8259C69.208 12.2728 69.5984 12.6173 70.0708 12.7933C70.6846 13.0823 71.3341 13.2883 71.936 13.5853C72.538 13.8823 73.1241 14.3773 72.7043 15.1693C72.2845 15.9614 71.5836 16.1436 70.748 15.8307C70.5321 15.7582 70.3344 15.64 70.1683 15.4842C70.0023 15.3284 69.8717 15.1386 69.7857 14.9278C69.548 14.2783 69.1718 14.5793 68.8273 14.7298C68.2887 14.9555 68.562 15.3079 68.7402 15.6089C68.9994 16.0651 69.3749 16.4444 69.8285 16.7081C70.2821 16.9717 70.7975 17.1104 71.3222 17.1098V17.1138ZM90.9724 16.793C90.0339 14.3179 89.0953 11.8864 88.2003 9.43506C88.1466 9.21984 88.0146 9.03238 87.8301 8.90934C87.6455 8.7863 87.4217 8.73652 87.2024 8.76973C87.0036 8.73751 86.8 8.78224 86.633 8.89479C86.466 9.00735 86.3482 9.17929 86.3034 9.37565C85.3847 11.8547 84.4501 14.3298 83.5313 16.8009C84.5887 17.2247 85.0599 16.7296 85.1906 15.8425C85.3372 14.8525 85.9153 14.603 86.7984 14.7575C87.6816 14.9119 89.0637 14.1595 89.329 15.8743C89.4478 16.7019 89.8834 17.1771 90.9724 16.789V16.793ZM107.704 16.793C108.75 17.2167 109.225 16.7296 109.363 15.8425C109.51 14.8604 110.072 14.5872 110.947 14.7496C111.823 14.912 113.217 14.1278 113.486 15.8584C113.624 16.7534 114.112 17.2088 115.129 16.7574C114.207 14.314 113.264 11.8824 112.357 9.43506C112.305 9.21916 112.174 9.03044 111.991 8.90591C111.807 8.78138 111.583 8.72997 111.363 8.7618C111.165 8.72821 110.961 8.77131 110.794 8.88237C110.626 8.99342 110.507 9.1641 110.46 9.35979C109.573 11.8468 108.635 14.3219 107.704 16.797V16.793ZM75.3695 12.7219C75.3972 14.4486 76.0506 15.7792 77.5357 16.5712C78.2043 16.9537 78.9666 17.1414 79.7363 17.1134C80.5061 17.0855 81.2527 16.8428 81.8918 16.4128C82.2245 16.2029 82.969 16.1 82.4898 15.3872C82.0938 14.805 81.773 15.0585 81.3018 15.3872C80.7251 15.8368 79.9984 16.0491 79.2703 15.9807C78.5423 15.9122 77.8679 15.5681 77.3852 15.0189C76.8901 14.4298 76.6099 13.6901 76.5905 12.9209C76.571 12.1517 76.8136 11.3987 77.2783 10.7855C77.7244 10.2077 78.377 9.82506 79.0991 9.718C79.8212 9.61094 80.5567 9.78772 81.1513 10.2112C81.6027 10.5003 81.9116 10.6785 82.2562 10.1796C82.6997 9.5499 82.0542 9.38755 81.7374 9.20539C81.1282 8.80913 80.4227 8.58613 79.6965 8.56032C78.9702 8.5345 78.2506 8.7068 77.6149 9.05881C76.1338 9.82708 75.4447 11.1379 75.3695 12.7259V12.7219ZM126.087 12.7537C126.087 13.8783 126.087 15.003 126.087 16.1317C126.087 16.4525 125.944 16.9237 126.535 16.9237H130.467C130.792 16.9237 130.946 16.793 130.946 16.4485C130.946 16.1039 130.907 15.8346 130.455 15.8425C129.778 15.8425 129.093 15.7752 128.427 15.8425C127.437 15.9693 127.283 15.5653 127.239 14.6545C127.196 13.5615 127.556 13.2249 128.586 13.3714C128.991 13.3992 129.397 13.3992 129.802 13.3714C130.198 13.3714 130.614 13.4427 130.594 12.7893C130.57 12.2111 130.198 12.2943 129.861 12.2903C129.227 12.2903 128.598 12.2903 127.964 12.2903C127.667 12.2903 127.386 12.3616 127.271 11.8943C126.923 10.433 127.315 9.86273 128.776 9.85877C129.271 9.85877 129.77 9.85877 130.265 9.85877C130.661 9.85877 130.954 9.85881 130.95 9.30439C130.946 8.74997 130.61 8.77369 130.241 8.77369C129.113 8.77369 127.98 8.81726 126.855 8.77369C126.139 8.73805 126.063 9.07069 126.063 9.65284C126.111 10.6864 126.087 11.7201 126.087 12.7576V12.7537ZM64.8078 16.9039H66.57C66.966 16.9039 67.3898 16.9949 67.3621 16.3376C67.3343 15.6802 66.8631 15.8465 66.5027 15.8307C66.0073 15.7871 65.5091 15.7871 65.0137 15.8307C64.0038 15.9614 63.6554 15.6604 63.6514 14.5595C63.6474 13.4585 64.0236 13.2566 64.9622 13.3714C65.503 13.4011 66.0451 13.4011 66.5859 13.3714C66.9819 13.3714 66.9819 13.1299 66.9819 12.8368C66.9819 12.5438 66.9542 12.2943 66.5859 12.2982C65.9991 12.2586 65.4103 12.2586 64.8236 12.2982C63.8296 12.4368 63.695 12.0052 63.6356 11.1102C63.588 10.0014 63.9761 9.70039 64.9899 9.83504C65.4853 9.8786 65.9836 9.8786 66.4789 9.83504C66.8354 9.83504 67.3185 10.0212 67.3383 9.32812C67.3581 8.6351 66.9423 8.76185 66.5463 8.75789C65.4612 8.75789 64.3761 8.79749 63.295 8.75789C62.6297 8.72225 62.4475 8.944 62.4634 9.58951C62.5069 11.2567 62.4634 12.924 62.4634 14.5912C62.503 16.9039 62.5029 16.9039 64.8078 16.9039Z" fill="white"/>
<path d="M103.459 33.679C103.459 35.5839 102.136 37.0056 100.445 36.9581C98.7544 36.9105 97.4119 35.374 97.4396 33.6038C97.4674 31.8336 98.9128 30.2852 100.521 30.2813C102.128 30.2773 103.459 31.8138 103.459 33.679Z" fill="white"/>
<path d="M128.851 27.4656C129.046 26.7092 128.368 25.2202 129.176 24.9984C130.616 24.5597 132.162 24.6296 133.556 25.1964C134.009 25.4063 134.395 25.7382 134.671 26.1548C134.946 26.5715 135.1 27.0565 135.116 27.5558C135.132 28.055 135.008 28.5488 134.759 28.9819C134.51 29.4149 134.146 29.7702 133.707 30.008C133.303 30.1969 132.875 30.3302 132.435 30.404C132.21 30.4279 131.983 30.4279 131.758 30.404C128.852 30.4476 128.851 30.4476 128.851 27.4656Z" fill="white"/>
<path d="M147.749 33.8967C148.454 34.0116 149.535 33.8215 149.729 34.6056C149.923 35.3897 149.115 36.1263 148.363 36.5856C148.132 36.7268 147.879 36.8298 147.615 36.8906C146.478 37.1678 145.334 36.645 145.167 35.7896C145.001 34.9343 145.761 34.1304 147.052 33.9561C147.27 33.9324 147.496 33.9324 147.749 33.8967Z" fill="white"/>
<path d="M85.3731 33.5879C85.4008 31.7702 86.7552 30.309 88.4383 30.2812C90.1213 30.2535 91.6064 31.8653 91.5826 33.683C91.5589 35.5007 90.1332 36.9541 88.4699 36.962C86.7077 36.9699 85.3493 35.4888 85.3731 33.5879Z" fill="white"/>
<path d="M79.4406 33.6038C79.4406 35.4849 78.0546 36.9778 76.3002 36.962C74.6171 36.9422 73.2549 35.4769 73.2351 33.6632C73.2153 31.8494 74.6845 30.2456 76.3755 30.2812C78.0664 30.3169 79.4287 31.8217 79.4406 33.6038Z" fill="white"/>
<path d="M113.395 33.4058C113.32 31.9247 114.041 31.1128 115.07 30.5505C115.466 30.3243 115.919 30.2191 116.374 30.248C116.828 30.2768 117.265 30.4385 117.628 30.7129C118.159 31.0732 118.317 31.4099 117.561 31.7108C116.227 32.2415 114.9 32.792 113.395 33.4058Z" fill="white"/>
<path d="M94.5527 9.88258C95.7169 9.8113 96.5921 9.9974 96.5684 11.2409C96.5446 12.4844 95.6298 12.5042 94.6596 12.6072C93.3448 12.7497 93.5903 11.926 93.6022 11.1973C93.6141 10.4687 93.3171 9.46281 94.5527 9.88258Z" fill="white"/>
<path d="M118.792 9.87848C119.87 9.81115 120.773 9.96957 120.753 11.221C120.733 12.4724 119.842 12.5041 118.864 12.611C117.577 12.7496 117.767 11.9694 117.783 11.221C117.799 10.4725 117.521 9.52602 118.792 9.87848Z" fill="white"/>
<path d="M55.5412 12.7654C55.5002 12.503 55.5002 12.2358 55.5412 11.9734C55.7709 11.2962 54.9274 10.2547 56.056 9.94182C56.6911 9.76428 57.3671 9.80339 57.9774 10.053C58.5877 10.3025 59.0975 10.7483 59.4261 11.3199C59.7216 11.8551 59.8573 12.4637 59.8173 13.0737C59.7773 13.6836 59.5632 14.2693 59.2004 14.7613C58.4084 15.8464 57.2203 15.8345 56.0323 15.8107C55.4541 15.8107 55.5452 15.4147 55.5412 15.0623C55.5412 14.294 55.5412 13.5297 55.5412 12.7654Z" fill="white"/>
<path d="M85.9631 13.6684L87.1512 10.1042C87.8284 11.0745 87.9076 12.1596 88.3392 13.1021C88.5135 13.4981 88.3392 13.6803 87.9432 13.6684C87.3215 13.6525 86.6997 13.6684 85.9631 13.6684Z" fill="white"/>
<path d="M110.148 13.6684C110.567 12.4209 110.94 11.32 111.356 10.1042C112.029 11.0745 112.112 12.1636 112.544 13.11C112.722 13.506 112.544 13.6803 112.12 13.6684C111.502 13.6525 110.884 13.6684 110.148 13.6684Z" fill="white"/>
</svg>
