<svg width="284" height="31" viewBox="0 0 284 31" fill="none" xmlns="http://www.w3.org/2000/svg">
<path d="M0.522461 0.360596H3.74998C6.79929 0.360596 8.78728 2.17037 8.78728 4.97812C8.78728 7.78586 6.83889 9.62336 3.74998 9.62336H0.522461V0.360596ZM3.76186 7.88487C5.63501 7.88487 6.76365 6.92254 6.76365 4.99791C6.76365 3.07328 5.63501 2.08721 3.76186 2.08721H2.52234V7.88487H3.76186Z" fill="white"/>
<path d="M14.5691 4.19402H18.4659V5.87708H14.5691V7.88881H18.9847V9.62336H12.5574V0.360596H18.9728V2.09118H14.5691V4.19402Z" fill="white"/>
<path d="M26.232 7.9404C27.2339 7.9404 27.8517 7.67508 27.8517 6.96622C27.8517 5.3584 22.2362 6.5702 22.2362 3.00607C22.2362 1.1448 23.9312 0.182484 25.8677 0.182484C27.1915 0.165197 28.4784 0.618492 29.4991 1.4616L28.4853 2.87934C27.6923 2.32394 26.7448 2.03166 25.7766 2.04376C24.9569 2.04376 24.248 2.28532 24.248 2.97835C24.248 4.53468 29.8635 3.32288 29.8635 6.93849C29.8635 8.77204 28.4101 9.76998 26.232 9.76998C24.7254 9.78465 23.2598 9.27979 22.0818 8.34038L23.1471 6.92264C24.0446 7.57437 25.1229 7.93012 26.232 7.9404Z" fill="white"/>
<path d="M37.9618 9.80555C35.1145 9.80555 33.0156 7.77004 33.0156 5.00982C33.0156 2.24959 35.1145 0.225952 37.9618 0.225952C40.2033 0.225952 41.72 1.37835 42.3418 2.89905L40.4924 3.64356C40.2587 3.17316 39.8976 2.77786 39.4502 2.5027C39.0028 2.22753 38.4871 2.08357 37.9618 2.08723C37.576 2.07969 37.1926 2.15014 36.8346 2.29435C36.4766 2.43855 36.1514 2.65353 35.8785 2.92644C35.6056 3.19934 35.3906 3.52455 35.2464 3.88254C35.1022 4.24053 35.0317 4.62395 35.0393 5.00982C35.0324 5.39681 35.103 5.78126 35.2471 6.1405C35.3912 6.49974 35.6058 6.82651 35.8782 7.10149C36.1506 7.37647 36.4753 7.59411 36.8332 7.74158C37.191 7.88905 37.5748 7.96336 37.9618 7.96013C38.4937 7.97938 39.0191 7.83873 39.4702 7.55636C39.9213 7.27398 40.2773 6.86286 40.4924 6.37607L42.3536 7.13641C41.7319 8.61751 40.2152 9.80555 37.9618 9.80555Z" fill="white"/>
<path d="M51.5886 7.78587H47.5651L46.8443 9.62336H44.6663L48.4997 0.360596H50.6659L54.4874 9.62336H52.3094L51.5886 7.78587ZM50.9431 6.13051L49.5769 2.67727L48.2225 6.14636L50.9431 6.13051Z" fill="white"/>
<path d="M62.9383 9.62336L61.1641 6.67307H59.786V9.62336H57.7861V0.360596H61.3186C63.6194 0.360596 65.0609 1.67536 65.0609 3.54851C65.0862 4.13798 64.9285 4.72082 64.6094 5.21712C64.2904 5.71342 63.8256 6.09888 63.2789 6.32061L65.2589 9.63922L62.9383 9.62336ZM61.2909 2.05553H59.786V4.99001H61.2909C62.4789 4.99001 63.0492 4.40786 63.0492 3.54851C63.0492 2.68916 62.4551 2.05553 61.2909 2.05553Z" fill="white"/>
<path d="M78.3355 5.75046C78.1058 8.02754 76.3158 9.80564 73.5437 9.80564C70.6964 9.80564 68.6094 7.70676 68.6094 5.02178C68.6094 2.3368 70.6964 0.226049 73.5437 0.226049C74.4167 0.198283 75.2806 0.410252 76.0416 0.838925C76.8026 1.2676 77.4316 1.89659 77.8603 2.65759L76.0703 3.46941C75.7398 2.91654 75.2366 2.48777 74.6382 2.24924C74.0399 2.01071 73.3797 1.97566 72.7595 2.14951C72.1393 2.32337 71.5935 2.69648 71.2063 3.21127C70.8192 3.72605 70.6121 4.35392 70.6172 4.99802C70.6118 5.38504 70.6841 5.76921 70.8296 6.12786C70.9752 6.48651 71.191 6.81239 71.4646 7.08626C71.7381 7.36013 72.0636 7.57644 72.4221 7.72246C72.7805 7.86848 73.1646 7.94126 73.5516 7.93647C74.9298 7.93647 75.995 7.188 76.197 5.95639H72.9695V4.35252H78.3711C78.403 4.81858 78.391 5.28662 78.3355 5.75046Z" fill="white"/>
<path d="M87.7331 7.78587H83.7096L82.9888 9.62336H80.8147L84.6323 0.360596H86.7945L90.6161 9.62336H88.4419L87.7331 7.78587ZM87.0915 6.13051L85.7213 2.67727L84.3709 6.14636L87.0915 6.13051Z" fill="white"/>
<path d="M106.282 9.62336H99.8547V0.360596H101.855V7.88487H106.282V9.62336Z" fill="white"/>
<path d="M115.719 7.78587H111.696L110.975 9.62336H108.789L112.622 0.360596H114.785L118.606 9.62336H116.428L115.719 7.78587ZM115.074 6.13051L113.708 2.67727L112.353 6.13051H115.074Z" fill="white"/>
<path d="M133.837 7.78587H129.813L129.093 9.62336H126.918L130.752 0.360596H132.914L136.736 9.62336H134.558L133.837 7.78587ZM133.191 6.13051L131.825 2.67727L130.471 6.14636L133.191 6.13051Z" fill="white"/>
<path d="M147.325 3.59999C147.325 5.52066 145.919 6.79977 143.567 6.79977H142.054V9.62336H140.042V0.360596H143.583C145.868 0.360596 147.325 1.69912 147.325 3.59999ZM145.29 3.59999C145.29 2.73668 144.731 2.09118 143.527 2.09118H142.054V5.05336H143.531C144.731 5.05336 145.29 4.45934 145.29 3.59999Z" fill="white"/>
<path d="M158.255 3.59999C158.255 5.52066 156.853 6.79977 154.497 6.79977H152.98V9.62336H150.969V0.360596H154.533C156.802 0.360596 158.255 1.69912 158.255 3.59999ZM156.22 3.59999C156.22 2.73668 155.661 2.09118 154.461 2.09118H152.98V5.05336H154.461C155.661 5.05336 156.22 4.45934 156.22 3.59999Z" fill="white"/>
<path d="M167.819 0.360596H171.047C174.096 0.360596 176.084 2.17037 176.084 4.97812C176.084 7.78586 174.136 9.62336 171.047 9.62336H167.819V0.360596ZM171.058 7.88487C172.932 7.88487 174.06 6.92254 174.06 4.99791C174.06 3.07328 172.932 2.08721 171.058 2.08721H169.819V7.88487H171.058Z" fill="white"/>
<path d="M181.866 4.19402H185.762V5.87708H181.866V7.88881H186.281V9.62336H179.866V0.360596H186.281V2.09118H181.866V4.19402Z" fill="white"/>
<path d="M204.118 9.964L204.652 11.4332C204.053 11.7083 203.399 11.8437 202.74 11.8292C201.108 11.8292 199.968 11.1204 199.465 9.70262C197.021 9.30661 195.477 7.43741 195.477 4.97024C195.477 2.23774 197.425 0.186401 200.399 0.186401C203.373 0.186401 205.334 2.23774 205.334 4.97024C205.334 7.47701 203.75 9.37392 201.247 9.72242C201.765 10.7243 203.575 10.3442 204.118 9.964ZM200.399 7.98393C200.987 7.99414 201.564 7.82941 202.058 7.51071C202.551 7.19202 202.939 6.73375 203.171 6.19415C203.404 5.65456 203.47 5.05802 203.363 4.48039C203.255 3.90277 202.979 3.37016 202.568 2.95026C202.157 2.53036 201.63 2.24216 201.055 2.12229C200.48 2.00242 199.882 2.0563 199.338 2.27708C198.793 2.49786 198.327 2.87557 197.997 3.36218C197.668 3.84879 197.491 4.42233 197.489 5.00986C197.477 5.39719 197.545 5.78279 197.686 6.14344C197.828 6.50409 198.041 6.83231 198.313 7.10834C198.585 7.38437 198.91 7.6025 199.269 7.74957C199.627 7.89664 200.012 7.96962 200.399 7.96411V7.98393Z" fill="white"/>
<path d="M214.252 9.62336L212.482 6.67307H211.103V9.62336H209.104V0.360596H212.632C214.937 0.360596 216.378 1.67536 216.378 3.54851C216.402 4.13775 216.244 4.7201 215.925 5.21617C215.606 5.71225 215.142 6.09792 214.596 6.32061L216.576 9.63922L214.252 9.62336ZM212.608 2.05553H211.103V4.99001H212.608C213.796 4.99001 214.367 4.40786 214.367 3.54851C214.367 2.68916 213.784 2.05553 212.608 2.05553Z" fill="white"/>
<path d="M230.207 2.09118V9.61546H228.195V2.09118H225.578V0.360596H232.813V2.09118H230.207Z" fill="white"/>
<path d="M236.306 9.62336V0.360596H238.286V9.62336H236.306Z" fill="white"/>
<path d="M246.998 9.80555C244.151 9.80555 242.052 7.77004 242.052 5.00982C242.052 2.24959 244.151 0.225952 246.998 0.225952C249.24 0.225952 250.756 1.37835 251.378 2.89905L249.529 3.64356C249.295 3.17286 248.934 2.77731 248.487 2.50209C248.039 2.22688 247.524 2.08311 246.998 2.08723C246.612 2.07969 246.229 2.15014 245.871 2.29435C245.513 2.43855 245.188 2.65353 244.915 2.92644C244.642 3.19934 244.427 3.52455 244.283 3.88254C244.139 4.24053 244.068 4.62395 244.076 5.00982C244.069 5.39681 244.139 5.78126 244.284 6.1405C244.428 6.49974 244.642 6.82651 244.915 7.10149C245.187 7.37647 245.512 7.59411 245.87 7.74158C246.227 7.88905 246.611 7.96336 246.998 7.96013C247.53 7.97993 248.056 7.8395 248.507 7.55706C248.958 7.27462 249.314 6.86319 249.529 6.37607L251.39 7.13641C250.768 8.61751 249.248 9.80555 246.998 9.80555Z" fill="white"/>
<path d="M260.859 9.62335L258.795 6.30474L256.558 9.62335H254.918V0.360583H256.899L256.871 5.11276V6.24139L257.112 5.73448L260.617 0.344727H262.839L259.987 4.73654L263.235 9.62335H260.859Z" fill="white"/>
<path d="M268.553 4.19402H272.45V5.87708H268.553V7.88881H272.969V9.62336H266.553V0.360596H272.969V2.09118H268.553V4.19402Z" fill="white"/>
<path d="M280.6 2.09118V9.61546H278.588V2.09118H275.967V0.360596H283.206V2.09118H280.6Z" fill="white"/>
<path d="M26.022 27.1668V30.7071H24.0419V27.1668L20.4778 21.4443H22.8341L25.0359 25.1788L27.2615 21.4443H29.5861L26.022 27.1668Z" fill="white"/>
<path d="M38.8093 21.4443H42.0368C45.0862 21.4443 47.0702 23.2541 47.0702 26.0658C47.0702 28.8775 45.1218 30.7071 42.0368 30.7071H38.8093V21.4443ZM42.0487 28.9686C43.9219 28.9686 45.0466 28.0063 45.0466 26.0817C45.0466 24.157 43.9219 23.171 42.0487 23.171H40.8092V28.9686H42.0487Z" fill="white"/>
<path d="M50.8521 30.7071V21.4443H52.8519V30.7071H50.8521Z" fill="white"/>
<path d="M60.6456 29.0242C61.6475 29.0242 62.2653 28.7589 62.2653 28.05C62.2653 26.4462 56.6498 27.654 56.6498 24.0899C56.6498 22.2326 58.3447 21.2703 60.2812 21.2703C61.605 21.253 62.892 21.7063 63.9127 22.5494L62.8989 23.9671C62.1066 23.41 61.1586 23.1175 60.1902 23.1315C59.3704 23.1315 58.6615 23.3691 58.6615 24.0661C58.6615 25.6225 64.277 24.4067 64.277 28.0263C64.277 29.8638 62.8236 30.8617 60.6456 30.8617C59.1486 30.8786 57.691 30.3825 56.5151 29.4559L57.5804 28.0381C58.4762 28.6747 59.5467 29.0191 60.6456 29.0242Z" fill="white"/>
<path d="M69.9083 25.2817H73.8051V26.9648H69.9083V30.7071H67.9084V21.4443H74.312V23.1789H69.9083V25.2817Z" fill="white"/>
<path d="M82.9529 30.7071L81.1788 27.7608H79.8007V30.7071H77.8008V21.4443H81.3332C83.6341 21.4443 85.0795 22.7631 85.0795 24.6362C85.1033 25.2259 84.9446 25.8086 84.6249 26.3047C84.3053 26.8009 83.8403 27.1863 83.2935 27.4083L85.2736 30.723L82.9529 30.7071ZM81.3055 23.1432H79.8007V26.0777H81.3055C82.4936 26.0777 83.0678 25.4956 83.0678 24.6362C83.0678 23.7769 82.4856 23.1432 81.3055 23.1432Z" fill="white"/>
<path d="M89.0359 26.9767V21.4325H91.0358V26.9767C91.0123 27.2502 91.0483 27.5254 91.1411 27.7837C91.234 28.042 91.3816 28.2771 91.5737 28.4731C91.7659 28.669 91.9982 28.8211 92.2546 28.9189C92.511 29.0168 92.7855 29.0581 93.0594 29.0399C94.2474 29.0399 95.0711 28.2915 95.0711 26.9767V21.4325H97.071V26.9767C97.071 29.3171 95.487 30.8735 93.0594 30.8735C90.6318 30.8735 89.0359 29.3171 89.0359 26.9767Z" fill="white"/>
<path d="M105.142 23.1789V30.7032H103.13V23.1789H100.512V21.4443H107.752V23.1789H105.142Z" fill="white"/>
<path d="M116.278 28.8736H112.254L111.534 30.7071H109.355L113.189 21.4443H115.355L119.173 30.7071H116.999L116.278 28.8736ZM115.632 27.2301L114.266 23.765L112.912 27.2301H115.632Z" fill="white"/>
<path d="M132.863 30.8736C130.016 30.8736 127.917 28.8341 127.917 26.0779C127.917 23.3216 130.016 21.29 132.863 21.29C135.104 21.29 136.621 22.4424 137.243 23.9592L135.394 24.7076C135.16 24.2372 134.799 23.8419 134.351 23.5668C133.904 23.2916 133.388 23.1477 132.863 23.1513C132.477 23.1438 132.094 23.2142 131.736 23.3584C131.378 23.5026 131.053 23.7176 130.78 23.9905C130.507 24.2634 130.292 24.5886 130.147 24.9466C130.003 25.3046 129.933 25.688 129.94 26.0739C129.934 26.4606 130.005 26.8446 130.149 27.2034C130.294 27.5622 130.508 27.8884 130.781 28.163C131.053 28.4375 131.378 28.6548 131.735 28.8021C132.093 28.9493 132.476 29.0235 132.863 29.0203C133.395 29.0395 133.92 28.8989 134.371 28.6165C134.822 28.3341 135.178 27.923 135.394 27.4362L137.255 28.1965C136.633 29.7212 135.116 30.8736 132.863 30.8736Z" fill="white"/>
<path d="M140.316 26.0778C140.316 23.3334 142.264 21.2939 145.238 21.2939C148.212 21.2939 150.173 23.3334 150.173 26.0778C150.173 28.8222 148.193 30.8735 145.238 30.8735C142.284 30.8735 140.316 28.8341 140.316 26.0778ZM142.328 26.0778C142.335 26.6517 142.513 27.2105 142.837 27.684C143.162 28.1574 143.619 28.5243 144.152 28.7385C144.684 28.9528 145.268 29.0048 145.83 28.8881C146.392 28.7713 146.907 28.491 147.31 28.0824C147.713 27.6738 147.987 27.1551 148.096 26.5916C148.205 26.0281 148.145 25.4449 147.924 24.9154C147.702 24.3858 147.329 23.9335 146.851 23.6154C146.374 23.2973 145.812 23.1275 145.238 23.1275C144.851 23.1214 144.467 23.1939 144.108 23.3406C143.75 23.4872 143.425 23.7049 143.153 23.9807C142.881 24.2564 142.667 24.5843 142.525 24.9448C142.384 25.3052 142.316 25.6907 142.328 26.0778Z" fill="white"/>
<path d="M162.002 21.4443V30.7071H160.105L155.939 24.953V30.7071H153.958V21.4443H155.855L160.002 27.2301V21.4443H162.002Z" fill="white"/>
<path d="M180.206 21.4443V30.7071H178.309L174.131 24.953V30.7071H172.151V21.4443H174.048L178.206 27.2301V21.4443H180.206Z" fill="white"/>
<path d="M183.977 26.0778C183.977 23.3334 185.925 21.2939 188.899 21.2939C191.873 21.2939 193.833 23.3334 193.833 26.0778C193.833 28.8222 191.853 30.8735 188.899 30.8735C185.945 30.8735 183.977 28.8341 183.977 26.0778ZM185.988 26.0778C185.996 26.6517 186.173 27.2105 186.498 27.684C186.823 28.1574 187.28 28.5243 187.812 28.7385C188.345 28.9528 188.929 29.0048 189.491 28.8881C190.053 28.7713 190.568 28.491 190.971 28.0824C191.374 27.6738 191.647 27.1551 191.756 26.5916C191.866 26.0281 191.806 25.4449 191.584 24.9154C191.363 24.3858 190.99 23.9335 190.512 23.6154C190.034 23.2973 189.473 23.1275 188.899 23.1275C188.512 23.1214 188.127 23.1939 187.769 23.3406C187.41 23.4872 187.085 23.7049 186.813 23.9807C186.541 24.2564 186.328 24.5843 186.186 24.9448C186.044 25.3052 185.977 25.6907 185.988 26.0778Z" fill="white"/>
<path d="M201.171 29.0241C202.169 29.0241 202.791 28.7588 202.791 28.0499C202.791 26.4461 197.172 27.6539 197.172 24.0898C197.172 22.2325 198.866 21.2702 200.803 21.2702C202.127 21.2522 203.414 21.7056 204.434 22.5493L203.437 23.9789C202.644 23.4228 201.696 23.1304 200.728 23.1433C199.904 23.1433 199.195 23.3809 199.195 24.0779C199.195 25.6342 204.815 24.4185 204.815 28.038C204.815 29.8756 203.357 30.8735 201.183 30.8735C199.676 30.8888 198.211 30.3839 197.033 29.4439L198.094 28.0262C198.992 28.6686 200.067 29.0172 201.171 29.0241Z" fill="white"/>
<path d="M207.975 26.0778C207.975 23.3334 209.923 21.2939 212.897 21.2939C215.871 21.2939 217.832 23.3334 217.832 26.0778C217.832 28.8222 215.852 30.8735 212.897 30.8735C209.943 30.8735 207.975 28.8341 207.975 26.0778ZM209.991 26.0778C209.998 26.6519 210.176 27.2109 210.501 27.6844C210.825 28.1579 211.283 28.5248 211.815 28.7389C212.348 28.953 212.932 29.0048 213.494 28.8878C214.057 28.7707 214.571 28.49 214.974 28.081C215.377 27.672 215.65 27.153 215.759 26.5892C215.868 26.0254 215.807 25.4421 215.585 24.9126C215.363 24.3831 214.99 23.9311 214.511 23.6135C214.033 23.2959 213.471 23.1268 212.897 23.1275C212.51 23.122 212.126 23.1948 211.768 23.3417C211.41 23.4886 211.086 23.7064 210.814 23.9821C210.542 24.2578 210.33 24.5856 210.188 24.9457C210.046 25.3059 209.979 25.691 209.991 26.0778Z" fill="white"/>
<path d="M225.348 23.1789V30.7032H223.336V23.1789H220.719V21.4443H227.954V23.1789H225.348Z" fill="white"/>
<path d="M236.595 30.7071L234.825 27.7608H233.447V30.7071H231.467V21.4443H234.995C237.3 21.4443 238.741 22.7631 238.741 24.6362C238.765 25.2259 238.606 25.8086 238.287 26.3047C237.967 26.8009 237.502 27.1863 236.955 27.4083L238.935 30.723L236.595 30.7071ZM234.951 23.1432H233.447V26.0777H234.951C236.14 26.0777 236.71 25.4956 236.71 24.6362C236.71 23.7769 236.128 23.1432 234.951 23.1432Z" fill="white"/>
<path d="M242.198 26.0778C242.198 23.3334 244.147 21.2939 247.121 21.2939C250.095 21.2939 252.055 23.3334 252.055 26.0778C252.055 28.8222 250.095 30.8735 247.121 30.8735C244.147 30.8735 242.198 28.8341 242.198 26.0778ZM244.21 26.0778C244.218 26.6517 244.395 27.2105 244.72 27.684C245.044 28.1574 245.502 28.5243 246.034 28.7385C246.567 28.9528 247.151 29.0048 247.713 28.8881C248.275 28.7713 248.79 28.491 249.193 28.0824C249.596 27.6738 249.869 27.1551 249.978 26.5916C250.087 26.0281 250.028 25.4449 249.806 24.9154C249.585 24.3858 249.212 23.9335 248.734 23.6154C248.256 23.2973 247.695 23.1275 247.121 23.1275C246.735 23.1242 246.353 23.1986 245.996 23.3464C245.64 23.4942 245.317 23.7123 245.047 23.9877C244.777 24.263 244.565 24.5901 244.424 24.9492C244.283 25.3083 244.215 25.6921 244.226 26.0778H244.21Z" fill="white"/>
<path d="M259.393 29.0242C260.395 29.0242 261.013 28.7589 261.013 28.05C261.013 26.4462 255.398 27.654 255.398 24.0899C255.398 22.2326 257.092 21.2703 259.029 21.2703C260.353 21.253 261.64 21.7063 262.66 22.5494L261.651 23.979C260.858 23.4219 259.91 23.1294 258.942 23.1434C258.122 23.1434 257.413 23.381 257.413 24.078C257.413 25.6343 263.029 24.4186 263.029 28.0381C263.029 29.8756 261.575 30.8736 259.397 30.8736C257.891 30.8883 256.425 30.3834 255.247 29.444L256.312 28.0263C257.211 28.6702 258.288 29.0189 259.393 29.0242Z" fill="white"/>
<path d="M266.007 25.9114C266.003 25.691 266.065 25.4744 266.184 25.2893C266.304 25.1042 266.477 24.959 266.679 24.8722C266.882 24.7855 267.106 24.7612 267.322 24.8023C267.539 24.8435 267.738 24.9483 267.895 25.1034C268.052 25.2584 268.159 25.4567 268.202 25.6728C268.246 25.889 268.224 26.1132 268.14 26.3168C268.055 26.5204 267.912 26.6943 267.728 26.816C267.544 26.9378 267.328 27.002 267.108 27.0005C266.817 27.0015 266.539 26.8875 266.332 26.6834C266.126 26.4793 266.009 26.2017 266.007 25.9114ZM266.007 29.7449C266.003 29.5244 266.065 29.3078 266.184 29.1227C266.304 28.9376 266.477 28.7924 266.679 28.7057C266.882 28.6189 267.106 28.5946 267.322 28.6358C267.539 28.6769 267.738 28.7817 267.895 28.9368C268.052 29.0918 268.159 29.2901 268.202 29.5062C268.246 29.7224 268.224 29.9466 268.14 30.1502C268.055 30.3539 267.912 30.5277 267.728 30.6495C267.544 30.7712 267.328 30.8354 267.108 30.8339C266.963 30.8365 266.82 30.8103 266.686 30.7567C266.552 30.703 266.43 30.6231 266.328 30.5216C266.225 30.4201 266.144 30.2991 266.089 30.1657C266.034 30.0323 266.006 29.8892 266.007 29.7449Z" fill="white"/>
</svg>
