<?xml version="1.0" encoding="utf-8"?>
<!-- Generator: Adobe Illustrator 19.0.0, SVG Export Plug-In . SVG Version: 6.00 Build 0)  -->
<svg version="1.1" id="Capa_1" xmlns="http://www.w3.org/2000/svg" xmlns:xlink="http://www.w3.org/1999/xlink" x="0px" y="0px"
	 viewBox="0 0 500 500" style="enable-background:new 0 0 500 500;" xml:space="preserve">
<style type="text/css">
	.st0{fill:#000000;}
	.st1{fill:#00A2A2;}
	.st2{fill:#BF0411;}
</style>
<g id="XMLID_4_">
	<path id="XMLID_14_" class="st0" d="M120,121v112.3h112.3V121H120z M194.9,195.9h-37.4v-37.4h37.4V195.9z"/>
	<path id="XMLID_15_" class="st0" d="M269.7,121v112.3H382V121H269.7z M344.6,195.9h-37.4v-37.4h37.4V195.9z"/>
	<path id="XMLID_16_" class="st0" d="M120,270.7V383h112.3V270.7H120z M194.9,345.6h-37.4v-37.4h37.4V345.6z"/>
	<polygon id="XMLID_3_" class="st1" points="363.3,270.7 382,270.7 382,345.6 325.9,345.6 325.9,326.9 307.1,326.9 307.1,383 
		269.7,383 269.7,270.7 325.9,270.7 325.9,289.4 363.3,289.4 	"/>
	<rect id="XMLID_2_" x="363.3" y="364.3" class="st2" width="18.7" height="18.7"/>
	<rect id="XMLID_1_" x="325.9" y="364.3" class="st2" width="18.7" height="18.7"/>
</g>
</svg>
