<svg width="75" height="75" viewBox="0 0 75 75" fill="none" xmlns="http://www.w3.org/2000/svg">
<circle cx="37.2436" cy="37.2436" r="36.2436" stroke="#95013D" stroke-width="2"/>
<path d="M42.8898 54.2754C42.635 54.9686 42.2369 55.5006 41.7593 55.9681C40.4377 57.274 38.6384 57.3546 37.2532 56.1132C36.5367 55.4845 35.8361 54.8235 35.1514 54.1464C34.8329 53.824 34.61 53.824 34.3234 54.1787C33.9413 54.6301 33.5273 55.0331 33.1133 55.4684C31.2663 57.4029 28.7346 57.0805 27.413 54.7268C27.1583 54.2754 26.999 54.1464 26.4895 54.356C24.8813 55.017 23.0184 54.227 22.1586 52.502C21.8879 51.9539 21.6331 51.8572 21.044 51.9378C18.6238 52.2925 16.4742 49.8259 17.1748 47.4883C17.334 46.9563 17.1907 46.8273 16.7768 46.6177C14.8024 45.6021 14.054 43.4902 15.0253 41.7813C15.3915 41.1526 15.9488 40.6851 16.4265 40.1531C16.6175 39.9274 16.8086 39.7017 17.0315 39.5243C17.5092 39.1374 17.541 38.8633 17.0156 38.4281C15.7736 37.4285 14.5794 36.3484 13.3693 35.3005C11.6656 33.8173 11.5382 32.044 13.0509 30.319C14.5317 28.6263 16.0125 26.9496 17.5092 25.273C18.7989 23.8382 20.6459 23.4513 22.4452 24.1768C23.5757 24.6282 24.6266 25.273 25.8526 25.4826C27.4608 25.7567 28.8779 25.1279 30.2632 24.4508C32.4605 23.3868 34.5941 23.3707 36.7118 24.6282C37.1576 24.8861 37.5239 24.9022 38.0015 24.5959C39.546 23.6286 41.202 23.5803 42.8579 24.338C44.0044 24.87 45.1508 25.4665 46.2813 26.0146C47.5551 26.6272 48.7811 26.5627 49.9912 25.8211C51.1854 25.0796 52.3796 24.3219 53.5738 23.5803C55.1979 22.5807 57.0768 22.9032 58.271 24.4025C59.5766 26.063 60.8664 27.7235 62.1402 29.4162C63.3662 31.0283 63.2866 32.8662 61.9332 34.3977C59.8792 36.7192 57.8251 39.0246 55.7393 41.3138C55.3572 41.7329 55.2616 41.9748 55.7552 42.3939C58.0799 44.3607 56.9016 47.4077 54.4973 48.375C54.0674 48.5523 53.9082 48.6974 53.9082 49.1971C53.94 51.2123 52.1886 52.9212 50.1823 52.8889C49.8798 52.8889 49.6091 52.7922 49.4499 53.2436C48.4627 56.081 45.3896 56.9999 43.3674 54.6945C43.2401 54.5656 43.0968 54.4688 42.8898 54.2754ZM35.7565 26.1597C34.3871 25.3214 33.0337 25.273 31.6644 25.7889C30.8205 26.1113 30.0243 26.5305 29.1804 26.8529C27.4767 27.4978 25.7571 27.4978 24.0693 26.8045C23.2891 26.4821 22.5089 26.1274 21.7287 25.805C20.6619 25.3697 19.611 25.5793 18.8308 26.4499C17.3022 28.1587 15.7736 29.8837 14.2769 31.6087C13.5285 32.4632 13.5922 33.1564 14.4361 33.898C15.6303 34.9458 16.8882 35.9454 18.0506 37.0577C18.6556 37.6381 18.99 37.5736 19.4677 36.961C20.3275 35.8809 21.4739 35.3328 22.8433 35.7036C24.2604 36.1066 25.2316 37.0416 25.6138 38.5248C25.6934 38.8633 25.8049 39.0407 26.2188 39.1052C28.448 39.476 29.6581 41.0397 29.5148 43.3451C29.4989 43.6192 29.483 43.7642 29.8014 43.8771C31.1389 44.3124 31.8395 45.3764 32.2376 46.6339C32.3968 47.1336 32.5879 47.3432 33.1292 47.4077C34.817 47.6173 36.4889 49.6002 36.1068 51.164C35.8361 52.2925 36.2341 52.8889 36.9984 53.5016C37.4124 53.8401 37.7786 54.227 38.1767 54.5817C39.132 55.4684 39.8804 55.4522 40.7084 54.5333C41.5364 53.6144 41.4886 52.9212 40.4855 52.0023C39.96 51.5025 39.4346 51.0189 38.9091 50.5352C37.7149 49.4067 37.7149 49.4067 39.0365 48.2621C40.9631 50.0677 42.8898 51.8733 44.8164 53.6628C45.7399 54.5172 46.4883 54.4527 47.3322 53.5016C48.0805 52.6471 48.0328 51.9378 47.1252 51.0834C45.3578 49.4228 43.6063 47.7462 41.807 46.118C41.3134 45.6666 41.5204 45.4086 41.8707 45.1184C42.1892 44.8605 42.3325 44.1512 43.0172 44.8121C45.0234 46.7628 47.0933 48.649 49.1473 50.5513C50.0709 51.4058 50.7714 51.3735 51.6153 50.4546C52.4274 49.5679 52.3955 48.8264 51.472 47.9719C49.3066 45.9245 47.1411 43.861 44.9279 41.8458C44.3546 41.3299 44.6413 41.0881 45.0075 40.7334C45.3578 40.3788 45.5648 39.9596 46.1698 40.5561C48.1442 42.5068 50.1982 44.3607 52.2204 46.2631C53.1121 47.1014 53.8923 47.053 54.6884 46.1663C55.4527 45.3119 55.4208 44.5381 54.5769 43.732C50.6441 39.8951 46.536 36.2517 41.9663 33.1886C40.8835 32.4632 39.8008 32.3987 38.6862 33.0435C38.1289 33.3659 37.6035 33.7367 37.0462 34.0269C35.3106 34.9136 33.3999 34.2043 32.2694 32.2697C31.3618 30.7543 31.7917 29.0454 33.3521 27.9169C34.1005 27.3366 34.8807 26.7723 35.7565 26.1597ZM40.1829 30.7865C41.1861 30.8188 42.0936 31.0928 42.9375 31.6732C46.6157 34.2687 50.2142 36.961 53.3987 40.1853C53.7967 40.5883 54.0197 40.6367 54.4336 40.1692C56.4558 37.8477 58.5098 35.5907 60.5638 33.2853C61.4396 32.3019 61.4714 31.4153 60.6912 30.3996C59.4652 28.7875 58.2232 27.1753 56.9653 25.5793C56.2329 24.6443 55.4049 24.4992 54.3859 25.144C53.2076 25.8695 52.0452 26.6272 50.867 27.3527C49.1473 28.4006 47.364 28.465 45.5648 27.6267C44.4661 27.1109 43.3674 26.5627 42.2847 26.0146C41.0109 25.3859 39.7849 25.4504 38.6066 26.2887C37.2373 27.2559 35.8679 28.2232 34.5145 29.2066C33.3203 30.0611 33.2407 30.8349 34.212 31.9311C34.8329 32.6405 35.5972 32.7856 36.4252 32.3181C36.9188 32.044 37.3806 31.7538 37.8582 31.4475C38.5588 31.0122 39.355 30.8188 40.1829 30.7865ZM27.8111 42.7486C27.8111 42.0231 27.222 41.2493 26.4895 40.943C25.8208 40.6689 25.3112 40.9108 24.8495 41.3944C23.0025 43.3451 21.1395 45.2958 19.2925 47.2465C18.5282 48.0525 18.5919 48.8264 19.404 49.6163C20.2479 50.4385 20.9962 50.4707 21.7605 49.6808C23.6394 47.714 25.5023 45.7311 27.3653 43.7642C27.6359 43.4741 27.8429 43.1355 27.8111 42.7486ZM22.1427 37.3802C21.6809 37.3479 21.3147 37.5253 20.9962 37.8638C19.595 39.347 18.1779 40.8302 16.7768 42.3456C16.0762 43.1033 16.1876 43.8771 16.9997 44.6509C17.8117 45.4086 18.5601 45.4409 19.2766 44.6832C20.6619 43.2484 22.0312 41.7813 23.4005 40.3465C23.8305 39.8951 24.1171 39.4276 23.8145 38.7666C23.4961 38.025 23.0184 37.4608 22.1427 37.3802ZM25.3272 52.8567C25.773 52.8083 26.1551 52.6471 26.4736 52.3247C27.6996 51.0189 28.9416 49.7453 30.1517 48.4233C30.9001 47.6173 30.8205 46.8434 30.0084 46.0535C29.1645 45.2474 28.4321 45.2313 27.6678 46.0374C26.4418 47.3109 25.2476 48.6007 24.0374 49.8581C23.5757 50.3418 23.3528 50.9221 23.6712 51.5347C23.9897 52.2441 24.531 52.7439 25.3272 52.8567ZM28.7346 53.034C28.7187 53.7434 29.2919 54.5494 30.0084 54.8396C30.6772 55.1137 31.2504 54.9041 31.728 54.3882C32.4605 53.6144 33.1929 52.8567 33.9094 52.0668C34.626 51.2768 34.61 50.503 33.8457 49.7614C32.97 48.8908 32.2216 48.8425 31.4414 49.6324C30.6612 50.4224 29.897 51.2446 29.1327 52.0668C28.8779 52.3408 28.7028 52.6632 28.7346 53.034Z" fill="#95013D"/>
</svg>
