<svg width="51" height="51" viewBox="0 0 51 51" fill="none" xmlns="http://www.w3.org/2000/svg">
<circle cx="25.4322" cy="25.4322" r="25.4322" fill="white" fill-opacity="0.95"/>
<path d="M42.6811 22.6226H41.2642V22.5496H25.4325V29.5859H35.3739C33.9236 33.6819 30.0264 36.6222 25.4325 36.6222C19.6038 36.6222 14.8781 31.8965 14.8781 26.0678C14.8781 20.2391 19.6038 15.5133 25.4325 15.5133C28.123 15.5133 30.5708 16.5283 32.4345 18.1863L37.4101 13.2107C34.2684 10.2827 30.0659 8.47705 25.4325 8.47705C15.7181 8.47705 7.8418 16.3533 7.8418 26.0678C7.8418 35.7823 15.7181 43.6585 25.4325 43.6585C35.147 43.6585 43.0233 35.7823 43.0233 26.0678C43.0233 24.8883 42.9019 23.737 42.6811 22.6226Z" fill="#FFC107"/>
<path d="M9.86914 17.8802L15.6486 22.1187C17.2124 18.2469 20.9997 15.5133 25.4317 15.5133C28.1222 15.5133 30.5699 16.5283 32.4337 18.1863L37.4092 13.2107C34.2675 10.2827 30.0651 8.47705 25.4317 8.47705C18.6751 8.47705 12.8156 12.2916 9.86914 17.8802Z" fill="#FF3D00"/>
<path d="M25.4316 43.6589C29.9753 43.6589 34.1039 41.92 37.2254 39.0923L31.781 34.4853C29.9556 35.8736 27.725 36.6244 25.4316 36.6226C20.8563 36.6226 16.9714 33.7052 15.5078 29.6338L9.77148 34.0535C12.6828 39.7502 18.595 43.6589 25.4316 43.6589Z" fill="#4CAF50"/>
<path d="M42.6802 22.6227H41.2633V22.5497H25.4316V29.586H35.373C34.6793 31.5355 33.4296 33.2389 31.7784 34.4859L31.781 34.4842L37.2254 39.0912C36.8401 39.4412 43.0224 34.8633 43.0224 26.0679C43.0224 24.8884 42.901 23.7371 42.6802 22.6227Z" fill="#1976D2"/>
</svg>
