<svg width="75" height="75" viewBox="0 0 75 75" fill="none" xmlns="http://www.w3.org/2000/svg">
<circle cx="37.2436" cy="37.2436" r="36.2436" stroke="#95013D" stroke-width="2"/>
<path d="M30.0154 51.1519C29.9741 49.7902 30.098 48.2084 29.7815 46.6404C29.286 44.261 28.0198 42.3216 26.4371 40.5198C19.6107 32.7761 22.9688 20.7824 32.8368 17.6464C40.7092 15.1431 49.3661 20.246 50.88 28.3197C51.7333 32.9137 50.6736 37.0537 47.5631 40.5748C45.7602 42.6104 44.4527 44.8661 44.0949 47.5895C44.0123 48.1947 44.0123 48.8274 43.9985 49.4326C43.9848 51.1519 43.9848 52.8711 43.9985 54.5904C44.0123 55.9108 43.5306 56.9149 42.2644 57.4101C41.9616 57.5339 41.9754 57.7127 41.9754 57.9327C41.8791 60.0922 40.9156 60.9999 38.7411 60.9999C37.4612 60.9999 36.1812 60.9999 34.8875 60.9999C33.1809 60.9862 32.0386 59.8721 32.0386 58.1803C32.0386 57.7264 31.9422 57.4788 31.4743 57.2588C30.4145 56.7774 30.0292 55.8558 30.0292 54.7417C30.0154 53.6139 30.0154 52.4998 30.0154 51.1519ZM40.0623 42.913C40.0623 44.1784 40.0623 45.4301 40.0623 46.6955C40.0623 48.4423 40.0623 48.4285 41.8102 48.3735C42.1956 48.3597 42.347 48.2222 42.347 47.8508C42.3332 47.2731 42.4709 46.723 42.5947 46.159C43.1728 43.5045 44.5628 41.3313 46.3382 39.3232C49.0495 36.256 49.9992 32.6111 49.1734 28.6498C47.4943 20.5623 38.6998 16.3947 31.3642 20.1222C26.4921 22.5979 23.7808 28.0997 24.7855 33.4501C25.2397 35.8158 26.2994 37.8927 27.9648 39.6533C29.9191 41.7302 31.144 44.1647 31.6119 46.9706C31.6807 47.4107 31.4743 48.0296 31.8597 48.2497C32.2313 48.456 32.7955 48.291 33.2772 48.346C33.869 48.4148 33.9516 48.1534 33.9379 47.6445C33.9241 44.7148 33.9241 41.7852 33.9241 38.8418C33.9241 37.5901 33.9241 37.5901 32.6992 37.4663C31.4192 37.3425 30.4558 36.2009 30.4971 34.8393C30.5384 33.4638 31.5706 32.4185 32.9469 32.3772C34.337 32.3222 35.4793 33.2438 35.6307 34.5092C35.7683 35.747 35.7683 35.747 37.062 35.747C37.1721 35.747 37.296 35.747 37.4061 35.747C38.3145 35.747 38.3145 35.747 38.3557 34.853C38.4108 33.5188 39.3054 32.501 40.5578 32.3772C41.9892 32.2397 43.2141 33.2713 43.3242 34.7155C43.4343 36.2009 42.3608 37.4663 40.8881 37.4388C40.1449 37.4251 40.0348 37.6864 40.0486 38.3329C40.0899 39.8871 40.0623 41.4001 40.0623 42.913ZM37.007 50.1203C35.4518 50.1203 33.8966 50.134 32.3414 50.1065C31.8734 50.0928 31.7633 50.2441 31.7771 50.6842C31.8046 52.0321 31.7771 53.3801 31.7908 54.728C31.7908 55.5257 32.0661 55.8146 32.8643 55.8146C35.6307 55.8283 38.4108 55.8283 41.1771 55.8146C41.9754 55.8146 42.2369 55.5395 42.2507 54.728C42.2644 53.3801 42.2369 52.0321 42.2644 50.6842C42.2782 50.2441 42.1543 50.0928 41.7001 50.0928C40.1174 50.134 38.5622 50.1203 37.007 50.1203ZM38.342 42.9405C38.342 41.8127 38.3557 40.6986 38.342 39.5707C38.3282 38.9105 38.631 38.044 38.2319 37.6451C37.8052 37.205 36.9244 37.5626 36.25 37.4938C35.7683 37.4388 35.6307 37.6176 35.6307 38.099C35.6582 40.8224 35.6307 43.5457 35.6445 46.2828C35.6445 46.943 35.3554 47.8233 35.7546 48.2084C36.2087 48.6486 37.1033 48.291 37.8052 48.3597C38.2181 48.401 38.3557 48.2497 38.3557 47.8233C38.3282 46.2003 38.342 44.5773 38.342 42.9405ZM37.062 57.5614C36.195 57.5614 35.3279 57.5614 34.4608 57.5614C33.6764 57.5614 33.5387 57.7677 33.8002 58.5379C33.9791 59.0743 34.392 59.2669 34.915 59.2669C36.3051 59.2669 37.7089 59.2806 39.0989 59.2669C39.8834 59.2531 40.255 58.8405 40.2963 58.0703C40.3101 57.6989 40.2413 57.5476 39.8284 57.5614C38.8925 57.5889 37.9841 57.5614 37.062 57.5614ZM33.9379 35.2656C33.9379 34.4816 33.6626 34.1103 33.0846 34.124C32.5753 34.1378 32.2725 34.4129 32.2313 34.9218C32.19 35.4857 32.6029 35.7608 33.3736 35.7883C33.814 35.8158 34.0204 35.6783 33.9379 35.2656ZM40.0623 35.4032C40.0623 35.7608 40.0623 35.7746 40.5165 35.7883C41.1909 35.8021 41.5625 35.527 41.59 35.0043C41.6176 34.5229 41.2735 34.1378 40.8055 34.1653C40.1725 34.1928 40.0623 34.6467 40.0623 35.4032Z" fill="#95013D"/>
<path d="M16.9269 32.0058C16.5553 32.0058 16.1974 32.0195 15.8258 32.0058C15.3166 31.9783 15.0138 31.6894 15.0001 31.1805C14.9863 30.6579 15.3028 30.3553 15.7983 30.3278C16.5966 30.2865 17.4086 30.2865 18.2068 30.3415C18.716 30.369 19.0051 30.7129 18.9638 31.2218C18.9363 31.6894 18.6472 31.9783 18.1655 32.0058C17.7526 32.0195 17.3398 32.0058 16.9269 32.0058Z" fill="#95013D"/>
<path d="M56.9907 32.0058C56.6191 32.0058 56.2612 32.0196 55.8897 32.0058C55.3804 31.9921 55.0639 31.7032 55.0363 31.2081C55.0088 30.6992 55.2978 30.3553 55.8071 30.3278C56.6053 30.2866 57.4036 30.2866 58.2156 30.3278C58.711 30.3553 59.0276 30.6717 59.0138 31.1806C59.0001 31.6895 58.6835 31.9783 58.1743 32.0058C57.7752 32.0196 57.3898 32.0058 56.9907 32.0058Z" fill="#95013D"/>
<path d="M21.2208 24.3447C20.7116 24.3447 18.7986 22.4466 18.8261 21.8689C18.8399 21.5525 18.9913 21.305 19.2803 21.1537C19.5831 20.9886 19.9271 20.9886 20.1749 21.2224C20.7942 21.8001 21.386 22.3915 21.964 23.0105C22.198 23.2581 22.198 23.5882 22.0191 23.9045C21.8677 24.1934 21.62 24.3309 21.2208 24.3447Z" fill="#95013D"/>
<path d="M52.7655 24.3446C52.0911 24.3446 51.6232 23.6707 51.9672 23.148C52.4765 22.364 53.1784 21.7313 53.9216 21.1536C54.2106 20.9336 54.5822 21.0023 54.8712 21.2637C55.1465 21.5112 55.3116 21.8689 55.1052 22.1852C54.5684 23.0105 53.839 23.6844 53.0545 24.2759C52.9582 24.3309 52.8343 24.3309 52.7655 24.3446Z" fill="#95013D"/>
<path d="M19.7482 41.2488C19.3353 41.2488 19.1013 41.0975 18.9362 40.8224C18.7573 40.506 18.771 40.1759 19.005 39.9283C19.583 39.3094 20.1748 38.718 20.8079 38.154C21.1107 37.879 21.4961 37.9202 21.8126 38.1816C22.1154 38.4429 22.2943 38.8005 22.0604 39.1581C21.5236 39.9559 20.8079 40.6023 20.0647 41.1937C19.9684 41.2488 19.8032 41.235 19.7482 41.2488Z" fill="#95013D"/>
<path d="M54.3344 41.2487C54.2931 41.2487 54.2381 41.2487 54.1968 41.2487C53.7013 41.1936 51.8846 39.3781 51.8433 38.8967C51.7883 38.264 52.5315 37.7276 53.0545 38.0852C53.839 38.6216 54.5546 39.2956 55.0639 40.1071C55.3942 40.6022 54.9538 41.2212 54.3344 41.2487Z" fill="#95013D"/>
<path d="M37.5988 21.2225C41.5487 21.6351 44.4527 23.5469 46.118 27.2193C46.4483 27.9621 46.1455 28.5535 45.4712 28.5948C44.9344 28.6223 44.7142 28.2784 44.5215 27.852C43.4755 25.5688 41.7552 24.0146 39.3467 23.2719C38.6723 23.0655 37.9704 22.9693 37.2547 22.928C36.4565 22.8867 36.016 22.5704 36.0436 22.0202C36.0711 21.4563 36.5253 21.1675 37.3235 21.2087C37.4199 21.2087 37.5162 21.2225 37.5988 21.2225Z" fill="#95013D"/>
<path d="M46.2006 31.9922C45.6088 32.0059 45.2234 31.6345 45.2372 31.1394C45.2509 30.6167 45.5537 30.3416 46.0492 30.3141C46.5447 30.2866 46.9438 30.6717 46.9163 31.1669C46.9025 31.6758 46.6135 31.9509 46.2006 31.9922Z" fill="#95013D"/>
</svg>
