<svg width="75" height="75" viewBox="0 0 75 75" fill="none" xmlns="http://www.w3.org/2000/svg">
<circle cx="37.2436" cy="37.2436" r="36.2436" stroke="#95013D" stroke-width="2"/>
<path d="M53.988 43.8363C58.145 40.4351 59.382 34.1898 56.9079 29.388C56.4045 28.4162 56.4333 27.9589 56.9942 27.6445C57.5696 27.3158 58.0299 27.6017 58.5333 28.5877C61.0649 33.5467 60.2738 39.6919 56.5483 43.8363C55.9298 44.5223 55.2538 45.1797 54.6065 45.8371C54.2325 46.2087 53.8873 46.5802 53.5996 47.0232C53.053 47.8664 52.2331 48.338 51.2119 48.4238C50.8954 48.4524 50.7084 48.4952 50.6509 48.8954C50.4495 50.5817 49.4139 51.6678 47.7309 51.9251C47.3138 51.9823 47.2131 52.1109 47.1412 52.511C46.8679 54.1831 45.8035 55.1835 44.0774 55.4121C43.7034 55.455 43.6315 55.6122 43.6027 55.9409C43.4445 57.27 42.7397 58.2417 41.4595 58.7276C40.1793 59.2135 39.0142 58.9706 37.9786 58.0988C37.4752 57.6701 36.9861 57.1985 36.5402 56.6983C36.2381 56.3696 36.0511 56.3696 35.7491 56.6983C35.0586 57.4129 34.397 58.1703 33.347 58.4275C31.4339 58.8991 29.5496 57.7416 29.2044 55.8123C29.1037 55.2263 28.9023 55.0263 28.2838 54.9548C26.9605 54.7976 25.781 53.54 25.6371 52.2109C25.594 51.7536 25.4933 51.5821 24.9899 51.5106C23.3932 51.2677 22.3576 50.2387 22.1131 48.6667C22.0268 48.1665 21.8685 48.0379 21.3651 47.995C20.1137 47.8807 18.9917 46.8518 18.6753 45.5513C18.5746 45.1368 18.3732 44.8367 18.0855 44.5366C15.2087 41.6069 13.8566 38.077 14.0149 33.9612C14.245 27.8589 19.2363 22.2425 25.2919 21.2564C29.5064 20.5562 33.275 21.4708 36.5834 24.1289C36.9717 24.4433 37.1587 24.3147 37.4752 24.0718C42.1787 20.5419 47.1987 20.0703 52.5064 22.5569C52.7797 22.6855 53.0674 22.8284 53.2256 23.1285C53.4126 23.5001 53.3551 23.8288 53.0818 24.1146C52.7941 24.429 52.4345 24.5148 52.0461 24.3147C51.0536 23.8431 50.0611 23.3858 48.968 23.1571C44.9117 22.2854 41.2294 23.1143 38.1512 25.901C35.8498 27.9732 33.7066 30.2312 31.5202 32.432C30.6428 33.3181 30.6715 34.5614 31.4914 35.3617C32.3113 36.162 33.5483 36.1334 34.4545 35.2617C35.26 34.49 36.0655 33.704 36.8423 32.8894C37.1875 32.5321 37.5615 32.3892 38.0505 32.3892C39.2732 32.3749 40.4958 32.4463 41.7184 32.332C42.826 32.232 43.7178 31.7318 44.4945 30.9886C45.0124 30.4885 45.5014 29.974 46.0192 29.4738C46.5083 29.0165 47.0261 28.9736 47.4145 29.3595C47.7885 29.731 47.7597 30.2741 47.285 30.7457C46.3645 31.646 45.559 32.675 44.4082 33.3038C43.9911 33.5325 44.1637 33.704 44.3939 33.9326C45.2857 34.8044 46.1631 35.6761 47.0405 36.5479C48.9248 38.42 50.7947 40.2921 52.679 42.15C53.1825 42.6645 53.6859 43.1789 53.988 43.8363ZM27.8379 22.8284C24.6303 22.8427 21.8685 23.9574 19.5239 26.144C14.9354 30.417 14.5615 37.8341 18.7041 42.5358C18.963 42.836 19.078 42.9074 19.3801 42.5644C19.9986 41.8785 20.6603 41.2068 21.3651 40.6065C23.3788 38.9202 26.3995 40.0492 26.8166 42.6359C26.8885 43.1075 27.0468 43.2933 27.5358 43.379C29.1468 43.6363 30.1825 44.751 30.3695 46.3373C30.4126 46.6517 30.4845 46.7803 30.8154 46.8375C32.6997 47.1662 33.5339 47.995 33.9079 49.8815C33.9511 50.1387 33.9942 50.3102 34.3251 50.3245C36.4539 50.4531 37.9211 52.6111 37.3313 54.5546C37.2594 54.7833 37.3313 54.9548 37.5039 55.1263C38.0937 55.6836 38.6403 56.2982 39.2444 56.8269C40.1074 57.5701 41.3588 57.1985 41.7472 56.1267C42.0061 55.3835 41.6897 54.8405 41.1862 54.3403C39.6471 52.8111 38.0937 51.282 36.569 49.7528C36.0511 49.2384 35.9936 48.7096 36.382 48.3094C36.7847 47.895 37.2882 47.9379 37.8204 48.4524C38.5252 49.124 39.23 49.81 39.9348 50.496C40.8698 51.4106 41.7904 52.3538 42.7397 53.2542C43.3007 53.7829 44.0486 53.8258 44.6528 53.4399C45.2569 53.0684 45.5302 52.3109 45.3001 51.625C45.1706 51.2534 44.9117 50.9819 44.6384 50.7103C42.3657 48.4524 40.093 46.2087 37.8348 43.9507C37.3169 43.4362 37.2882 42.8931 37.7197 42.5216C38.2231 42.0928 38.6834 42.2643 39.1005 42.693C40.0211 43.622 40.9561 44.5366 41.891 45.4655C43.3151 46.8803 44.7247 48.2952 46.1631 49.6957C46.7241 50.2387 47.4576 50.3388 48.0762 49.9958C48.6515 49.6814 48.9823 49.0097 48.8673 48.3666C48.781 47.895 48.4933 47.5663 48.1625 47.2376C45.9761 45.0654 43.7897 42.8931 41.6034 40.7209C41.4164 40.5351 41.2294 40.3493 41.0712 40.1349C40.8122 39.7491 40.8554 39.3632 41.1862 39.0345C41.5171 38.7201 41.9054 38.6487 42.2938 38.9345C42.4808 39.0774 42.6534 39.2489 42.826 39.4204C45.0699 41.6355 47.2994 43.8649 49.5433 46.08C50.3488 46.866 51.2838 46.9089 51.9598 46.2229C52.6071 45.5656 52.564 44.6223 51.8016 43.8792C48.6515 40.7495 45.5014 37.6197 42.3513 34.49C42.1356 34.2756 41.9198 34.1756 41.6034 34.1756C40.6396 34.2041 39.6903 34.2184 38.7266 34.1898C38.2807 34.1756 37.9642 34.3042 37.6478 34.6329C36.8998 35.4046 36.1518 36.1763 35.3319 36.8766C33.7641 38.2056 31.4195 38.0199 30.0386 36.4907C28.629 34.933 28.7153 32.7179 30.2975 31.103C31.8942 29.4595 33.5196 27.8446 35.1737 26.2583C35.634 25.8153 35.5621 25.6009 35.0874 25.2579C32.9442 23.643 30.5277 22.8141 27.8379 22.8284ZM22.1131 46.2944C22.2281 46.3087 22.487 46.2372 22.7028 46.08C23.5227 45.4655 24.285 44.751 24.8748 43.9221C25.2919 43.3361 25.1193 42.5216 24.5871 42.0357C24.0261 41.5069 23.2206 41.4068 22.6165 41.907C21.9261 42.493 21.2788 43.1361 20.689 43.822C20.2863 44.2794 20.2719 44.8796 20.5596 45.4369C20.8473 45.9657 21.3219 46.2515 22.1131 46.2944ZM28.9023 53.2542C29.2475 53.2542 29.5064 53.2256 29.7222 53.0541C30.5565 52.4396 31.29 51.725 31.8942 50.8961C32.3113 50.3245 32.1387 49.5099 31.6209 49.0097C31.0599 48.4809 30.2544 48.3666 29.6647 48.8668C28.9742 49.4527 28.3269 50.0958 27.7372 50.7675C27.3344 51.2248 27.3344 51.8251 27.5934 52.3824C27.8667 52.954 28.3557 53.2256 28.9023 53.2542ZM32.4983 56.7555C32.8291 56.7698 33.1456 56.6983 33.3757 56.4982C34.1093 55.8837 34.8141 55.2406 35.3895 54.4832C35.8498 53.883 35.6772 52.9969 35.1018 52.4824C34.5696 52.0108 33.6778 51.9394 33.1312 52.4253C32.4839 52.9826 31.8798 53.5971 31.3044 54.2402C30.8729 54.7261 30.8298 55.3264 31.1318 55.9123C31.3907 56.4554 31.8798 56.7269 32.4983 56.7555ZM23.9111 48.2094C23.9254 48.7953 24.1844 49.2669 24.7022 49.5528C25.2488 49.8529 25.8529 49.8815 26.3276 49.4956C27.0324 48.8954 27.7084 48.238 28.3126 47.552C28.7153 47.0947 28.7009 46.4945 28.4132 45.9371C28.1256 45.3798 27.6509 45.1082 27.018 45.1225C26.0255 45.1225 23.9111 47.2376 23.9111 48.2094Z" fill="#95013D"/>
<path d="M54.5053 25.6732C54.4909 25.173 54.8936 24.73 55.3971 24.7729C55.9005 24.8158 56.2457 25.073 56.2745 25.6161C56.3033 26.1163 55.8717 26.5593 55.3827 26.5307C54.8792 26.4878 54.5484 26.2163 54.5053 25.6732Z" fill="#95013D"/>
<path d="M34.7991 47.5528C34.2669 47.5385 33.821 47.0955 33.8785 46.6239C33.9361 46.1094 34.2525 45.8093 34.7847 45.795C35.2738 45.7807 35.6909 46.2237 35.6478 46.7239C35.5759 47.2384 35.2594 47.51 34.7991 47.5528Z" fill="#95013D"/>
</svg>
