<svg width="44" height="48" viewBox="0 0 44 48" fill="none" xmlns="http://www.w3.org/2000/svg">
<g clip-path="url(#clip0_11_51)">
<path d="M32.6903 0.0678925C33.0297 0.254597 33.4201 0.237624 33.7935 0.322489C36.5432 1.03536 38.2574 3.00424 38.6139 5.80481C38.7157 6.60255 38.6987 7.40028 38.6987 8.18105C38.6987 10.6931 38.6987 13.2051 38.6987 15.7171C38.6987 16.0226 38.7666 16.1754 39.0891 16.2772C41.4823 17.0919 43.0948 19.3154 43.1118 21.8444C43.1287 26.5969 43.1287 31.3663 43.1118 36.1188C43.1118 37.8501 42.7044 39.4625 41.4314 40.7355C40.4809 41.686 39.2928 42.1782 37.9689 42.2801C37.5615 42.314 37.3918 42.4158 37.4088 42.8911C37.4597 43.8925 37.4258 44.8939 37.4258 45.8953C37.4088 47.2023 36.628 47.983 35.3381 48C34.778 48 34.2178 48 33.6577 48C32.3338 47.983 31.5361 47.2023 31.5361 45.8614C31.5361 44.8091 31.5191 43.7737 31.5361 42.7214C31.5361 42.4328 31.4682 42.3649 31.1796 42.3649C24.7978 42.3819 18.4159 42.3819 12.034 42.3649C11.7115 42.3649 11.6606 42.4668 11.6606 42.7553C11.6775 43.7907 11.6775 44.8091 11.6606 45.8444C11.6606 47.2023 10.8628 47.983 9.50496 48C8.9109 48 8.31685 48.017 7.72279 48C6.58559 47.983 5.77088 47.1853 5.7539 46.0481C5.73693 44.9788 5.71996 43.9264 5.7539 42.8571C5.77088 42.4158 5.60115 42.314 5.21076 42.2801C3.86989 42.1443 2.68177 41.669 1.69733 40.7016C0.543154 39.5813 0.0679064 38.1556 0.0509333 36.5941C0.016987 32.9109 0.016987 29.2277 0.0339601 25.5446C0.0339601 24.017 -0.0848518 22.4724 0.118826 20.9618C0.424342 18.7044 1.68035 17.1768 3.78502 16.3451C4.22632 16.1754 4.39605 15.9887 4.37908 15.4965C4.34513 12.7638 4.36211 10.0311 4.36211 7.29844C4.36211 5.78784 4.58276 4.31117 5.39747 2.98727C6.36494 1.42574 7.82463 0.577086 9.58983 0.186704C9.81048 0.135785 10.0481 0.169731 10.2348 0C17.703 0.0678925 25.2051 0.0678925 32.6903 0.0678925ZM21.5389 1.96888C18.2631 1.96888 14.9873 1.96888 11.7115 1.96888C11.2871 1.96888 10.8628 1.98586 10.4555 2.05375C8.92788 2.25743 7.65489 2.88543 6.90808 4.31117C6.46678 5.14286 6.31402 6.04243 6.31402 6.97595C6.29704 9.86139 6.31402 12.7468 6.29704 15.6322C6.29704 15.8868 6.36494 15.9717 6.63651 16.0057C8.2829 16.2603 9.57286 17.075 10.5403 18.4158C11.4399 19.6549 11.6436 21.0636 11.5587 22.5573C11.5248 22.9816 11.6775 23.0665 12.0679 23.0665C16.6507 23.0495 21.2504 23.0495 25.8331 23.0495C27.5983 23.0495 29.3635 23.0495 31.1287 23.0495C31.4173 23.0495 31.5361 22.9986 31.5191 22.6761C31.4852 22.2687 31.5021 21.8614 31.5191 21.454C31.6379 18.7214 33.6747 16.43 36.3225 16.0226C36.6789 15.9717 36.7638 15.8529 36.7638 15.5134C36.7468 12.7638 36.7638 10.0141 36.7638 7.28147C36.7638 6.77228 36.7468 6.24611 36.662 5.73692C36.3395 4.0396 35.4569 2.83451 33.7596 2.29137C32.9958 2.05375 32.198 1.96888 31.4173 1.96888C28.0905 1.95191 24.8147 1.96888 21.5389 1.96888ZM21.505 40.4979C26.4951 40.4979 31.5021 40.4979 36.4922 40.4979C36.9166 40.4979 37.3409 40.4809 37.7482 40.43C39.2928 40.2263 40.3791 39.4625 40.8543 37.918C41.058 37.2221 41.1259 36.5092 41.1259 35.7963C41.1429 31.2136 41.1259 26.6139 41.1259 22.0311C41.1259 21.7765 41.1259 21.5389 41.092 21.2843C40.9053 19.4682 39.3946 18.0085 37.6125 17.8727C35.2871 17.703 33.4371 19.4342 33.4371 21.8274C33.4201 25.3069 33.4371 28.7864 33.4371 32.2659C33.4371 33.3352 33.1146 33.6577 32.0453 33.6577C25.0354 33.6577 18.0255 33.6577 11.0156 33.6577C9.96324 33.6577 9.64075 33.3352 9.64075 32.2489C9.64075 28.7694 9.64075 25.29 9.64075 21.8105C9.64075 19.7228 8.16409 18.0424 6.21218 17.8557C3.86989 17.6351 1.9689 19.3663 1.9689 21.7765C1.95192 24.5262 1.9689 27.2758 1.9689 30.0255C1.9689 32.232 1.95192 34.4215 1.98587 36.628C2.01982 38.0877 2.52901 39.3098 3.92081 40.0057C4.73552 40.413 5.61812 40.4809 6.51769 40.4809C11.5078 40.4979 16.4979 40.4979 21.505 40.4979ZM21.4371 31.7228C24.628 31.7228 27.802 31.7228 30.9929 31.7228C31.3154 31.7228 31.4512 31.6719 31.4512 31.2984C31.4342 29.3296 31.4342 27.3607 31.4512 25.3918C31.4512 25.0693 31.3833 24.9675 31.0439 24.9675C24.6789 24.9844 18.314 24.9844 11.9321 24.9675C11.5927 24.9675 11.5248 25.0693 11.5248 25.3918C11.5417 27.3267 11.5417 29.2617 11.5248 31.1966C11.5248 31.587 11.5927 31.7228 12.017 31.7228C15.174 31.7228 18.297 31.7228 21.4371 31.7228ZM35.389 44.2829C35.389 43.7567 35.372 43.2136 35.389 42.6874C35.389 42.4668 35.3211 42.3819 35.1004 42.3989C34.6252 42.4158 34.133 42.4158 33.6577 42.3989C33.4201 42.3989 33.3692 42.4837 33.3692 42.7044C33.3862 43.7397 33.3862 44.7581 33.3692 45.7935C33.3692 46.0141 33.4371 46.099 33.6577 46.082C34.133 46.0651 34.5912 46.0651 35.0665 46.082C35.3381 46.099 35.406 45.9972 35.389 45.7426C35.389 45.2504 35.389 44.7581 35.389 44.2829ZM9.65772 44.2489C9.65772 43.7567 9.64075 43.2475 9.65772 42.7553C9.6747 42.4498 9.57286 42.3819 9.28431 42.3989C8.82604 42.4158 8.38474 42.4158 7.92646 42.3989C7.70581 42.3989 7.63792 42.4668 7.63792 42.6874C7.65489 43.7228 7.65489 44.7412 7.63792 45.7765C7.63792 46.0311 7.72279 46.082 7.96041 46.082C8.43566 46.0651 8.89393 46.0651 9.36918 46.082C9.6068 46.099 9.65772 46.0141 9.65772 45.7935C9.64075 45.2673 9.65772 44.7581 9.65772 44.2489Z" fill="#464646"/>
<path d="M21.5389 1.96891C24.8147 1.96891 28.0905 1.96891 31.3663 1.96891C32.1641 1.96891 32.9448 2.05377 33.7086 2.2914C35.4059 2.83454 36.2885 4.03963 36.611 5.73694C36.7129 6.24614 36.7129 6.75533 36.7129 7.2815C36.7129 10.0311 36.7129 12.7808 36.7129 15.5135C36.7129 15.8699 36.628 15.9717 36.2716 16.0227C33.6237 16.43 31.587 18.7384 31.4682 21.4541C31.4512 21.8614 31.4342 22.2688 31.4682 22.6761C31.4851 22.9986 31.3663 23.0495 31.0778 23.0495C29.3126 23.0326 27.5474 23.0495 25.7822 23.0495C21.1994 23.0495 16.5997 23.0495 12.017 23.0665C11.6096 23.0665 11.4738 22.9986 11.5078 22.5573C11.6096 21.0806 11.389 19.6719 10.4894 18.4159C9.52191 17.075 8.23195 16.2603 6.58556 16.0057C6.33096 15.9717 6.24609 15.8869 6.24609 15.6323C6.26307 12.7468 6.24609 9.86141 6.26307 6.97598C6.26307 6.04246 6.4328 5.14288 6.85713 4.3112C7.60394 2.88546 8.87693 2.25745 10.4045 2.05377C10.8288 2.00285 11.2362 1.96891 11.6605 1.96891C14.9873 1.95194 18.2631 1.96891 21.5389 1.96891Z" fill="#C0BABC"/>
<path d="M21.5049 40.4979C16.5148 40.4979 11.5077 40.4979 6.51765 40.4979C5.61807 40.4979 4.73547 40.43 3.92076 40.0227C2.52896 39.3268 2.01977 38.0878 1.98582 36.645C1.9349 34.4385 1.96885 32.249 1.96885 30.0425C1.96885 27.2928 1.95188 24.5432 1.96885 21.7936C1.98582 19.3834 3.86984 17.6521 6.21213 17.8728C8.16404 18.0595 9.6407 19.7398 9.6407 21.8275C9.65767 25.307 9.6407 28.7865 9.6407 32.266C9.6407 33.3353 9.96319 33.6747 11.0155 33.6747C18.0254 33.6747 25.0353 33.6747 32.0452 33.6747C33.1145 33.6747 33.437 33.3523 33.437 32.2829C33.437 28.8035 33.42 25.324 33.437 21.8445C33.454 19.4513 35.2871 17.703 37.6124 17.8897C39.3946 18.0255 40.8882 19.4852 41.0919 21.3013C41.1259 21.5559 41.1259 21.7936 41.1259 22.0482C41.1259 26.6309 41.1259 31.2306 41.1259 35.8134C41.1259 36.5262 41.058 37.2391 40.8543 37.935C40.396 39.4796 39.2928 40.2433 37.7482 40.447C37.3239 40.4979 36.8995 40.5149 36.4922 40.5149C31.4851 40.4979 26.495 40.4979 21.5049 40.4979Z" fill="#C0BABC"/>
<path d="M21.4371 31.7228C18.297 31.7228 15.157 31.7059 12.017 31.7398C11.5757 31.7398 11.5078 31.604 11.5248 31.2136C11.5417 29.2787 11.5417 27.3438 11.5248 25.4088C11.5248 25.0863 11.5927 24.9845 11.9321 24.9845C18.297 25.0015 24.662 25.0015 31.0439 24.9845C31.3833 24.9845 31.4512 25.0863 31.4512 25.4088C31.4342 27.3777 31.4342 29.3466 31.4512 31.3155C31.4512 31.6889 31.3154 31.7398 30.9929 31.7398C27.819 31.7228 24.628 31.7228 21.4371 31.7228Z" fill="#C0BABC"/>
<path d="M35.3889 44.283C35.3889 44.7582 35.372 45.2504 35.3889 45.7257C35.4059 45.9803 35.338 46.0821 35.0664 46.0651C34.5912 46.0482 34.1329 46.0482 33.6577 46.0651C33.437 46.0651 33.3691 45.9972 33.3691 45.7766C33.3861 44.7412 33.3861 43.7228 33.3691 42.6875C33.3691 42.4668 33.4201 42.382 33.6577 42.382C34.1329 42.3989 34.6251 42.3989 35.1004 42.382C35.321 42.382 35.3889 42.4499 35.3889 42.6705C35.3889 43.2136 35.3889 43.7568 35.3889 44.283Z" fill="#C0BABC"/>
<path d="M9.65774 44.249C9.65774 44.7582 9.64077 45.2843 9.65774 45.7935C9.65774 46.0142 9.60682 46.099 9.3692 46.0821C8.89395 46.0651 8.43568 46.0651 7.96043 46.0821C7.72281 46.0821 7.63794 46.0311 7.63794 45.7765C7.65491 44.7412 7.65491 43.7228 7.63794 42.6874C7.63794 42.4668 7.70583 42.3819 7.92648 42.3989C8.38476 42.4159 8.82606 42.4159 9.28433 42.3989C9.5559 42.3819 9.67471 42.4498 9.65774 42.7553C9.62379 43.2475 9.65774 43.7398 9.65774 44.249Z" fill="#C0BABC"/>
</g>
<defs>
<clipPath id="clip0_11_51">
<rect width="43.1287" height="48" fill="white"/>
</clipPath>
</defs>
</svg>
