<svg width="34" height="35" viewBox="0 0 34 35" fill="none" xmlns="http://www.w3.org/2000/svg">
<g clip-path="url(#clip0_1978_107412)">
<path d="M23.9021 6.25609L23.8852 6.27302C23.244 6.91417 22.8579 7.75782 22.8118 8.61838C22.7656 9.47894 23.0632 10.2859 23.6391 10.8618C24.2149 11.4377 25.0219 11.7352 25.8825 11.6891C26.743 11.6429 27.5867 11.2568 28.2278 10.6157L28.2449 10.5964L30.9601 13.3117C31.248 13.5996 31.3968 14.0031 31.3738 14.4334C31.3507 14.8637 31.1576 15.2855 30.837 15.6061L15.1054 31.3377C14.7848 31.6582 14.363 31.8513 13.9327 31.8744C13.5025 31.8975 13.099 31.7487 12.811 31.4607L10.0969 28.7466C10.738 28.1054 11.1242 27.2618 11.1703 26.4012C11.2165 25.5407 10.9189 24.7337 10.343 24.1578C9.76716 23.5819 8.96018 23.2844 8.09962 23.3305C7.23905 23.3767 6.3954 23.7628 5.75425 24.404L3.0401 21.6898C2.75217 21.4019 2.60337 20.9984 2.62645 20.5681C2.64953 20.1378 2.8426 19.716 3.16317 19.3954L18.8948 3.66381C19.2154 3.34323 19.6372 3.15017 20.0675 3.12709C20.4978 3.10401 20.9012 3.2528 21.1892 3.54074L23.9021 6.25609Z" fill="#FDFDFD" stroke="#141313" stroke-width="1.5" stroke-linecap="round" stroke-linejoin="round"/>
<path d="M17.6816 9.35352L18.7479 10.4198M20.8805 12.5523L21.9467 13.6186M24.0793 15.7511L25.1455 16.8174M8.85304 18.1821L9.91932 19.2484M12.0519 21.3809L13.1181 22.4472M15.2507 24.5797L16.317 25.646" stroke="#141313" stroke-width="1.5" stroke-linecap="round" stroke-linejoin="round"/>
</g>
<defs>
<clipPath id="clip0_1978_107412">
<rect width="19" height="28" fill="white" transform="translate(20.1816 0.882812) rotate(45)"/>
</clipPath>
</defs>
</svg>
